<svg width="195" height="65" viewBox="0 0 195 65" fill="none" xmlns="http://www.w3.org/2000/svg">
<path d="M81.8722 19.426V18.8414L84.0678 16.4378C84.3255 16.1563 84.5377 15.9117 84.7045 15.7038C84.8712 15.4938 84.9946 15.2967 85.0747 15.1127C85.157 14.9264 85.1982 14.7315 85.1982 14.528C85.1982 14.2941 85.1419 14.0917 85.0293 13.9206C84.9188 13.7496 84.7672 13.6175 84.5745 13.5244C84.3818 13.4313 84.1653 13.3847 83.9249 13.3847C83.6694 13.3847 83.4464 13.4378 83.2558 13.5439C83.0674 13.6478 82.9213 13.794 82.8173 13.9823C82.7156 14.1707 82.6647 14.3916 82.6647 14.6449H81.8982C81.8982 14.2552 81.988 13.913 82.1677 13.6186C82.3475 13.3241 82.5922 13.0945 82.9018 12.93C83.2136 12.7654 83.5633 12.6831 83.9509 12.6831C84.3407 12.6831 84.686 12.7654 84.987 12.93C85.288 13.0945 85.524 13.3165 85.6951 13.5958C85.8662 13.8752 85.9517 14.1859 85.9517 14.528C85.9517 14.7727 85.9073 15.012 85.8185 15.2458C85.7319 15.4775 85.5803 15.7363 85.3638 16.0221C85.1494 16.3058 84.8517 16.6522 84.4706 17.0615L82.9765 18.6595V18.7115H86.0686V19.426H81.8722ZM89.5797 19.517C89.0904 19.517 88.6735 19.3838 88.3292 19.1175C87.985 18.849 87.7219 18.4603 87.54 17.9514C87.3581 17.4404 87.2671 16.8233 87.2671 16.1C87.2671 15.3812 87.3581 14.7673 87.54 14.2584C87.724 13.7474 87.9882 13.3576 88.3325 13.0891C88.6789 12.8185 89.0947 12.6831 89.5797 12.6831C90.0648 12.6831 90.4794 12.8185 90.8237 13.0891C91.1702 13.3576 91.4344 13.7474 91.6162 14.2584C91.8003 14.7673 91.8923 15.3812 91.8923 16.1C91.8923 16.8233 91.8014 17.4404 91.6195 17.9514C91.4376 18.4603 91.1745 18.849 90.8302 19.1175C90.4859 19.3838 90.0691 19.517 89.5797 19.517ZM89.5797 18.8024C90.0648 18.8024 90.4415 18.5685 90.71 18.1008C90.9785 17.6331 91.1128 16.9662 91.1128 16.1C91.1128 15.5241 91.0511 15.0336 90.9277 14.6287C90.8064 14.2238 90.631 13.9152 90.4015 13.703C90.1741 13.4908 89.9002 13.3847 89.5797 13.3847C89.099 13.3847 88.7233 13.6218 88.4527 14.096C88.182 14.5681 88.0467 15.2361 88.0467 16.1C88.0467 16.676 88.1073 17.1654 88.2286 17.5682C88.3498 17.9709 88.5241 18.2773 88.7515 18.4873C88.981 18.6974 89.2571 18.8024 89.5797 18.8024ZM93.1266 19.426V18.8414L95.3222 16.4378C95.5799 16.1563 95.7921 15.9117 95.9589 15.7038C96.1256 15.4938 96.249 15.2967 96.3291 15.1127C96.4114 14.9264 96.4526 14.7315 96.4526 14.528C96.4526 14.2941 96.3963 14.0917 96.2837 13.9206C96.1732 13.7496 96.0216 13.6175 95.8289 13.5244C95.6362 13.4313 95.4197 13.3847 95.1793 13.3847C94.9238 13.3847 94.7008 13.4378 94.5102 13.5439C94.3218 13.6478 94.1757 13.794 94.0717 13.9823C93.97 14.1707 93.9191 14.3916 93.9191 14.6449H93.1526C93.1526 14.2552 93.2424 13.913 93.4221 13.6186C93.6019 13.3241 93.8466 13.0945 94.1562 12.93C94.468 12.7654 94.8177 12.6831 95.2053 12.6831C95.5951 12.6831 95.9404 12.7654 96.2414 12.93C96.5424 13.0945 96.7784 13.3165 96.9495 13.5958C97.1206 13.8752 97.2061 14.1859 97.2061 14.528C97.2061 14.7727 97.1617 15.012 97.0729 15.2458C96.9863 15.4775 96.8347 15.7363 96.6182 16.0221C96.4038 16.3058 96.1061 16.6522 95.725 17.0615L94.2309 18.6595V18.7115H97.323V19.426H93.1266ZM98.6645 19.426V18.8414L100.86 16.4378C101.118 16.1563 101.33 15.9117 101.497 15.7038C101.663 15.4938 101.787 15.2967 101.867 15.1127C101.949 14.9264 101.99 14.7315 101.99 14.528C101.99 14.2941 101.934 14.0917 101.822 13.9206C101.711 13.7496 101.56 13.6175 101.367 13.5244C101.174 13.4313 100.958 13.3847 100.717 13.3847C100.462 13.3847 100.239 13.4378 100.048 13.5439C99.8597 13.6478 99.7136 13.794 99.6096 13.9823C99.5079 14.1707 99.457 14.3916 99.457 14.6449H98.6904C98.6904 14.2552 98.7803 13.913 98.96 13.6186C99.1397 13.3241 99.3844 13.0945 99.6941 12.93C100.006 12.7654 100.356 12.6831 100.743 12.6831C101.133 12.6831 101.478 12.7654 101.779 12.93C102.08 13.0945 102.316 13.3165 102.487 13.5958C102.658 13.8752 102.744 14.1859 102.744 14.528C102.744 14.7727 102.7 15.012 102.611 15.2458C102.524 15.4775 102.373 15.7363 102.156 16.0221C101.942 16.3058 101.644 16.6522 101.263 17.0615L99.7688 18.6595V18.7115H102.861V19.426H98.6645Z" fill="#fff"/>
<path d="M51.8912 1.95931C53.2843 1.76623 54.8446 0.627112 56.1737 0.192701C57.9654 -0.391341 59.7227 0.487135 61.4258 1.03739C62.9025 1.52007 64.015 2.48543 65.2997 3.23841C67.0422 4.2472 68.4697 5.6518 70.1777 6.67991C71.4821 7.47633 73.5003 7.79007 74.47 9.05469C75.5874 10.5027 71.6495 11.5067 70.5321 11.666C69.1973 11.8108 67.8503 11.8108 66.5155 11.666C65.467 11.5888 64.1282 11.8253 63.1437 11.3667C61.603 10.6427 60.3134 9.11743 58.9991 8.1376C58.2066 7.54873 57.1138 7.32187 56.3066 6.72335C55.7208 6.28411 55.1941 5.66628 54.6379 5.17395C53.8146 4.52877 52.9552 3.92931 52.0635 3.37838C51.1923 2.7509 50.1586 2.20065 51.8912 1.95931Z" fill="#fff"/>
<path d="M58.8711 9.9235C58.4084 8.8616 56.2032 7.99278 55.2581 7.41357C54.2246 6.67729 53.2383 5.87936 52.3047 5.02431C50.2373 3.35906 47.6826 2.12823 45.2658 1.02772C44.3798 0.636754 43.474 0.202343 42.5142 0.380934C41.4657 0.574006 40.3188 1.22562 39.3442 1.66486C36.9766 2.72675 34.6434 3.86105 32.2856 4.92294C37.0061 8.572 41.51 12.3755 46.393 15.8846C47.5905 16.837 48.8375 17.7279 50.129 18.5538C51.3498 19.2537 52.8757 19.0847 54.2736 19.1765C56.1951 19.3025 58.1215 19.0176 59.9196 18.3414C60.8499 17.9553 61.3963 17.1251 62.2478 16.6086C62.7745 16.29 65.0388 15.9232 65.2357 15.455C65.531 14.731 62.6416 13.0416 61.9673 12.5589C60.7957 11.7191 60.0525 10.7103 58.8711 9.9235Z" fill="#fff"/>
<path d="M37.587 11.101C36.7994 10.8549 36.4893 10.2998 35.9528 9.76401C35.3079 9.12205 34.476 8.68764 33.7869 8.11325C32.2462 6.84863 30.8335 5.40542 29.3174 4.11667C27.9638 2.98237 26.8858 1.41366 25.4386 0.404863C24.3951 -0.314328 23.4697 0.158697 22.3819 0.491746C21.0332 0.902023 19.6204 1.50537 18.2324 1.74671C17.1297 1.94461 16.2634 1.84807 15.0673 2.50452C14.3984 2.89693 13.6684 3.17902 12.9064 3.33955C10.8095 3.75466 9.73148 4.90343 8.28432 6.17771C7.16202 7.16237 6.0545 8.20496 4.92236 9.17031C4.31199 9.69161 2.5055 10.6184 1.89021 11.463C1.85638 11.514 1.83763 11.5731 1.83605 11.6338C1.83446 11.6946 1.85011 11.7545 1.88123 11.8071C1.91236 11.8596 1.95775 11.9027 2.01235 11.9314C2.06695 11.9601 2.12861 11.9734 2.19047 11.9699C4.52365 11.8492 6.31538 9.58542 8.00867 8.16152C8.59935 7.67884 9.21464 7.19616 9.81024 6.71348L10.8587 5.79156C11.4346 5.30888 11.2426 5.34267 11.8038 5.48747C13.0737 5.82052 14.4028 7.30717 15.2494 8.20496C16.0961 9.10274 16.7557 10.0391 17.5137 10.9466C18.4068 11.8998 19.3481 12.8083 20.3342 13.6689C21.2645 14.5908 22.0964 16.8111 23.6666 16.9656C24.3508 17.0283 25.5617 16.2512 26.2508 16.0002C27.0835 15.6699 27.9329 15.3815 28.7957 15.1362C31.8918 14.4074 34.5007 12.4863 37.5476 11.7864C37.6251 11.7705 37.6952 11.7302 37.7473 11.6716C37.7994 11.6131 37.8306 11.5395 37.8361 11.462C37.8417 11.3845 37.8213 11.3073 37.7782 11.2422C37.735 11.177 37.6713 11.1275 37.5968 11.101H37.587Z" fill="#fff"/>
<path d="M118.315 40.2157L118.453 40.8573L121.695 41.319C125.597 38.3716 128.706 34.5339 130.751 30.1398L127.509 29.6878C127.509 29.6878 124.743 33.7512 122.553 35.3163L122.711 36.0453C122.711 36.0453 120.297 39.1269 118.315 40.2157Z" fill="#fff"/>
<path d="M146.578 32.0403L145.086 35.4476H146.285L147.232 33.2895L148.362 35.4476H154.816L153.215 32.0403H147.782H146.578Z" fill="#fff"/>
<path d="M146.855 40.0796H145.656L144.169 43.4819H145.368L146.315 41.3239L147.445 43.4819H149.017V60.0709C149.017 60.0709 149.017 61.563 147.257 61.563H142.652L143.599 64.7758H150.147C150.147 64.7758 152.283 64.5134 152.283 61.4999V43.4868H156.437L154.836 40.0845L146.855 40.0796Z" fill="#fff"/>
<path d="M144.987 39.3796L143.386 35.9724H138.018V31.005L137.15 29.8579H134.741V35.9724H131.757H130.558L129.041 39.3796H130.246L131.207 37.2167L132.337 39.3796H134.741V64.7807H138.018V39.3796H144.987Z" fill="#fff"/>
<path d="M129.715 41.1684L126.399 40.449C126.399 40.449 124.228 43.5841 122.042 45.1248L122.191 45.8539C122.191 45.8539 119.712 48.916 117.73 49.9756L117.819 50.6075L121.056 51.0936C121.676 50.6951 122.263 50.2481 122.81 49.7569V64.4162H126.082V46.4032C127.438 44.7594 128.653 43.0085 129.715 41.1684V41.1684Z" fill="#fff"/>
<path d="M129.913 42.9619C130.003 56.3915 127.286 60.1924 127.286 60.1924L130.226 61.0479C133.502 56.0027 132.704 42.9619 132.704 42.9619H129.913Z" fill="#fff"/>
<path d="M146.439 56.9699H143.961C143.535 56.9699 143.411 56.9699 143.411 55.9006C143.411 54.5007 143.411 47.1516 143.411 44.1138L142.543 42.9667H140.402V58.5204C140.402 58.5204 140.402 59.9785 141.735 59.9785H147.292L146.439 56.9699Z" fill="#fff"/>
<path d="M141.23 34.4657H144.218L142.092 29.8579H139.108L141.23 34.4657Z" fill="#fff"/>
<path d="M71.7089 63.187V64.9902H74.9704V37.9415L74.103 36.7993H71.7089V60.1978H61.2155V31.6277L60.353 30.4855H57.954V60.1978H47.4259V37.9415L46.5634 36.7993H44.1693V60.1978L45.1904 63.187H71.7089Z" fill="#fff"/>
<path d="M175.317 39.9629V45.9997H178.588V40.4441C184.844 44.6631 192.333 46.7628 192.333 46.7628L195 44.8964L194.826 44.2645C192.546 44.1916 188.943 42.5293 188.943 42.5293L188.745 41.8099C187.471 41.6107 185.275 40.6191 183.337 39.6421H193.805L192.527 36.9154H178.593V34.3879C182.133 33.9468 185.636 33.2614 189.077 32.3368L187.094 29.785C187.094 29.785 172.754 32.1667 170.097 31.7292L169.681 32.3465C169.681 32.3465 165.716 32.8326 163.54 32.1813L163.168 32.7305L165.101 35.326C165.101 35.326 169.508 35.326 175.332 34.7476V36.896H161.438L160.481 36.6481L159.267 39.4283L160.229 39.6762L160.987 37.9507L161.889 39.6762H169.864C167.921 40.6483 165.73 41.6447 164.457 41.844L164.253 42.5633C164.253 42.5633 160.655 44.2256 158.375 44.2985L158.196 44.9304L160.863 46.7968C160.863 46.7968 168.942 44.5027 175.317 39.9629Z" fill="#fff"/>
<path d="M192.943 53.6501H178.92V53.1009L183.495 49.3972H184.318L184.09 48.9111L183.099 46.7725H168.467L167.302 49.3923H168.229L168.967 47.73L169.835 49.3923H179.699L175.649 52.5517V53.6744H160.883L159.688 56.4012H160.65L161.408 54.6757L162.31 56.4012H175.649V60.4257C175.645 60.5758 175.61 60.7235 175.544 60.8593C175.479 60.9951 175.385 61.1161 175.27 61.2144C175.154 61.3128 175.019 61.3864 174.872 61.4305C174.726 61.4747 174.572 61.4883 174.42 61.4707H169.071L170.732 64.6835H177.428C177.428 64.6835 178.915 64.4988 178.915 62.3942V56.3769H194.222L192.943 53.6501Z" fill="#fff"/>
<path d="M102.265 48.6633V49.6354L101.477 49.9805V50.9526L100.688 51.3025V52.2746H103.628C103.628 52.2746 104.58 51.3025 105.878 48.4494L107.236 49.7763L109.606 49.0375L106.765 46.233C107.303 44.5884 107.661 42.8922 107.831 41.1732H110.384C110.427 41.1732 110.469 41.1901 110.499 41.2202C110.53 41.2503 110.547 41.2911 110.547 41.3336V51.2977C110.547 51.2977 110.547 52.2698 111.44 52.2698H115.147L114.592 50.2964H112.927C112.644 50.2964 112.56 50.2964 112.56 49.5868C112.56 48.6535 112.56 42.8404 112.56 40.8378L111.36 39.2485H107.99C108.039 38.3434 108.039 37.4365 107.99 36.5314H105.675C105.675 37.5035 105.64 38.4076 105.576 39.2485H101.462L102.493 41.217H105.358C105.216 42.2588 105.009 43.2912 104.738 44.3083L104.079 43.6569L101.784 44.4784L103.96 46.6121C103.718 47.2255 103.407 47.8107 103.033 48.3571L102.265 48.6633Z" fill="#fff"/>
<path d="M109.631 31.9674L108.595 29.7753H108.059H105.779L104.803 31.9674H91.4741L90.4977 29.7753H88.0193H87.6822L86.6463 31.9674H81.412L82.6859 34.4123H87.246L87.5633 35.6954H90.3837L90.0714 34.4123H106.206L105.898 35.6954H108.714L109.031 34.4123H116.02L114.87 31.9674H109.631Z" fill="#fff"/>
<path d="M85.1442 55.1715H113.214L112.287 53.203H84.1132L85.1442 55.1715Z" fill="#fff"/>
<path d="M92.7233 58.6565H115.807L114.88 56.688H82.6265L83.6575 58.6565H90.0169C89.1058 59.4938 88.0898 60.2141 86.9933 60.8V61.286C86.9933 61.286 85.0751 62.89 83.6971 63.3031V63.7163L85.6402 64.4211C86.1202 64.205 86.5869 63.9615 87.0379 63.692C89.5857 63.8184 99.742 64.2023 108.783 62.7199C109.749 63.5869 110.877 64.2634 112.104 64.7127L114.047 64.0079V63.5899C112.669 63.1768 110.751 61.5777 110.751 61.5777V61.0916C109.744 60.6191 108.817 59.9996 108 59.2543L106.017 59.8959C106.369 60.3237 106.716 60.7174 107.053 61.0722C101.215 61.8866 95.3166 62.2118 89.4221 62.0443C90.6584 61.0504 91.767 59.9127 92.7233 58.6565V58.6565Z" fill="#fff"/>
<path d="M82.0513 50.4957L83.2112 52.3962L99.7964 51.2783L98.7406 49.373L92.5398 49.791V48.7411H98.6613L97.7344 46.7677H92.5398V44.8235L91.9549 44.0507H90.3291V46.7677H84.5247C86.2328 45.6161 87.7493 44.2127 89.0205 42.6071H94.1457V45.1783C94.145 45.2757 94.1644 45.3722 94.2028 45.462C94.2412 45.5518 94.2978 45.633 94.3692 45.7008C94.4406 45.7685 94.5252 45.8213 94.618 45.856C94.7108 45.8906 94.8098 45.9065 94.9091 45.9025H100.198L99.7022 44.2111H96.3812C96.1532 44.2111 96.064 44.2111 96.064 44.0215V42.6071H100.287L99.3602 40.6337H92.5398V39.37H98.7406L97.8137 37.4258H92.5398V36.862L91.9549 36.0892H90.3439V37.4258H84.153L83.2756 39.37H83.9547L84.5198 38.1014L85.184 39.37H90.3439V40.6337H82.438L81.5606 42.6071H82.2397L82.8048 41.3385L83.469 42.6071H86.2398C85.3953 43.3682 84.4559 44.0215 83.4442 44.5513V45.0374C83.4442 45.0374 81.5259 46.6413 80.1479 47.0545V47.4676L82.091 48.1773C82.8227 47.8451 83.5256 47.455 84.1926 47.0107L85.1096 48.7605H90.3291V49.9611L82.0513 50.4957Z" fill="#fff"/>
<path d="M5.06081 47.7112V60.9755H7.39543V58.3946H11.3608V59.5416H13.6954V43.6478L13.0758 42.8312H11.336V43.6818H7.37064V43.6478L6.87497 42.9673C7.55535 40.1872 7.83565 37.3274 7.7077 34.4711H15.009L13.5963 31.3993H3.71258L2.34949 34.4711H3.40527L4.27765 32.5269L5.26899 34.4711C5.20456 43.1131 2.49323 46.6662 2.49323 46.6662L1.6605 47.0404V48.0611L0.832729 48.4111V49.4318L0 49.8206V50.8413H3.11282C3.90146 49.8877 4.55659 48.835 5.06081 47.7112V47.7112ZM11.336 45.767V56.3045H7.37064V45.767H11.336Z" fill="#fff"/>
<path d="M17.4477 33.2171L17.299 47.5556C17.299 56.4358 14.9198 59.7069 14.9198 59.7069L14.087 60.0763V61.1019L13.2543 61.4713V62.4968L12.4166 62.8662V63.8918H15.5344C15.5344 63.8918 16.9421 62.667 18.3895 58.7591C20.3722 53.4125 20.1144 47.1862 20.1144 47.1862L20.159 33.1831H38.5385L37.3242 30.5681H29.666L28.3525 27.715H25.1851L26.5036 30.5681H17.8442L17.4874 31.3993V31.4479L16.6992 33.2171H17.4477Z" fill="#fff"/>
<path d="M26.0327 34.1406H24.3177V36.1966H20.848L21.9384 38.2818H24.3127V40.7412L25.1008 42.8312H34.3104L33.6313 40.7412V38.2818H37.7752L36.7838 36.1966H33.6313V34.9572L33.0118 34.1406H31.2967V36.1966H26.6523V34.9572L26.0327 34.1406ZM31.2967 38.2818V40.7412H26.6523V38.2818H31.2967Z" fill="#fff"/>
<path d="M37.3241 44.1873H20.3225L21.4179 46.2773H38.3055L37.3241 44.1873Z" fill="#fff"/>
<path d="M36.4716 58.4383H36.878V47.1328H35.163L34.5434 47.9493H23.7625L23.1429 47.1328H21.4279V58.4383H36.4716V58.4383ZM34.5434 52.1537H30.3798V50.2435H34.5434V52.1537ZM28.2533 50.2435V52.1537H23.7625V50.2435H28.2533ZM23.7625 54.2437H28.2533V56.1539H23.7625V54.2437ZM30.3798 56.1539V54.2437H34.5434V56.1539H30.3798Z" fill="#fff"/>
<path d="M22.3052 61.3935C22.3052 61.3935 20.273 63.0898 18.8355 63.5321V63.9696L21.413 64.9368C23.9262 63.845 26.1359 62.1782 27.8567 60.0763L24.9125 59.3181C24.1272 59.9738 23.249 60.5141 22.3052 60.922V61.3935Z" fill="#fff"/>
<path d="M39.3364 63.6099C37.8494 63.1676 35.8667 61.4713 35.8667 61.4713V60.9853C34.9219 60.5765 34.0421 60.0363 33.2545 59.3813L30.3152 60.1395C32.036 62.2415 34.2457 63.9082 36.7589 65L39.3513 64.0571L39.3364 63.6099Z" fill="#fff"/>
<path d="M145.957 19.6782H146.665L143.781 12.3318H143.072L140.193 19.6782H140.897L141.733 17.54H144.741L144.426 16.8497H142.004L143.427 13.2296L145.957 19.6782Z" fill="#fff"/>
<path d="M120.518 18.988V13.0221H121.438L121.118 12.3318H118.894L119.248 13.0221H119.814V18.988H118.894L119.248 19.6782H121.438L121.118 18.988H120.518Z" fill="#fff"/>
<path d="M117.589 12.3318H117.068L114.006 18.9156L110.944 12.3318H110.255L110.211 15.4017C110.198 16.2973 110.047 17.1858 109.763 18.0371C109.57 18.6479 109.233 19.2053 108.778 19.6637H109.738C110.085 19.2741 110.341 18.8143 110.486 18.3171C110.809 17.3368 110.962 16.3107 110.939 15.281V13.833L113.651 19.6734H114.36L117.072 13.8426V19.6782H117.776V12.578L117.589 12.3318Z" fill="#fff"/>
<path d="M128.335 12.3318H127.818V18.6839L123.329 12.3318H123.147H123.142H122.625V12.3367V19.6782H123.329V13.331L127.818 19.6782H128.522V12.578L128.335 12.3318Z" fill="#fff"/>
<path d="M133.68 18.988H130.919V16.285H133.764L133.444 15.5948H130.919V13.0221H133.995L133.68 12.3318H130.215V19.6782H130.919H133.995L133.68 18.988Z" fill="#fff"/>
<path d="M152.971 19.0025C152.872 19.0025 152.843 19.0025 152.843 18.7563V15.0204H154.167L153.847 14.3301H152.863V13.3648L152.661 13.0945H152.169V14.3108H151.11L151.465 15.0011H152.169V19.3452C152.169 19.3452 152.169 19.6831 152.484 19.6831H154.197L154 18.988L152.971 19.0025Z" fill="#fff"/>
<path d="M164.017 15.4693H161.491V12.8967H164.568L164.253 12.2064H160.787V19.5576H161.491V16.1596H164.336L164.017 15.4693Z" fill="#fff"/>
<path d="M166.832 15.281C166.966 15.1474 167.127 15.0417 167.303 14.9704C167.48 14.8991 167.67 14.8635 167.861 14.8659C168.046 14.8587 168.23 14.8917 168.4 14.9626C168.571 15.0336 168.723 15.1407 168.846 15.2762C169.101 15.6071 169.23 16.0153 169.21 16.4298H166.419L166.739 17.1249H170.042V16.7001C170.084 16.0359 169.879 15.3793 169.466 14.8515C169.268 14.6271 169.021 14.4504 168.743 14.3349C168.464 14.2194 168.163 14.1682 167.861 14.1854C167.528 14.1794 167.198 14.2465 166.895 14.3818C166.591 14.5171 166.323 14.7171 166.109 14.9673C165.632 15.5184 165.383 16.2242 165.41 16.9463C165.363 17.6746 165.595 18.3938 166.059 18.9639C166.284 19.2063 166.561 19.3963 166.87 19.5199C167.179 19.6435 167.513 19.6976 167.846 19.6783C168.505 19.7105 169.157 19.5309 169.702 19.1666V18.7756L169.525 18.5343C169.093 18.8374 168.579 19.0057 168.048 19.017C167.814 19.0299 167.579 18.9935 167.36 18.9102C167.141 18.827 166.943 18.6988 166.778 18.5343C166.444 18.1466 166.269 17.6513 166.286 17.1442C166.215 16.4772 166.411 15.8094 166.832 15.281V15.281Z" fill="#fff"/>
<path d="M171.218 18.6067C171.633 18.8393 172.099 18.9717 172.577 18.9928C173.335 18.9928 173.719 18.7418 173.719 18.2399C173.721 18.1369 173.7 18.0348 173.657 17.9411C173.613 17.8474 173.549 17.7647 173.467 17.6993C173.167 17.4895 172.835 17.3267 172.483 17.2166C172.048 17.0817 171.652 16.8486 171.326 16.536C171.214 16.3906 171.133 16.2246 171.088 16.0479C171.043 15.8712 171.034 15.6874 171.062 15.5073C171.091 15.3273 171.156 15.1547 171.254 14.9997C171.351 14.8448 171.48 14.7106 171.631 14.6053C172.055 14.3195 172.56 14.174 173.074 14.1902C173.504 14.1967 173.929 14.2921 174.319 14.4701V14.9142L174.137 15.1507C173.773 14.9572 173.364 14.8606 172.951 14.8708C172.678 14.8595 172.409 14.9339 172.183 15.0831C172.089 15.1422 172.012 15.2238 171.96 15.3201C171.907 15.4164 171.881 15.5242 171.882 15.6334C171.876 15.7298 171.891 15.8265 171.927 15.9165C171.963 16.0066 172.018 16.0879 172.089 16.1547C172.373 16.3568 172.685 16.5192 173.015 16.6374C173.471 16.7742 173.89 17.0101 174.24 17.3276C174.45 17.5638 174.563 17.8686 174.555 18.1819C174.562 18.401 174.511 18.6181 174.407 18.8124C174.304 19.0067 174.152 19.1719 173.965 19.2921C173.518 19.5787 172.991 19.7206 172.458 19.6975C171.966 19.7112 171.478 19.6016 171.041 19.379V18.8673L171.218 18.6067Z" fill="#fff"/>
<path d="M177.13 18.8626C177.031 18.8626 177.002 18.8626 177.002 18.6116V14.8757H178.321L178.006 14.1854H177.021V13.2201L176.82 12.9546H176.327V14.1758H175.23L175.584 14.866H176.293V19.2101C176.293 19.2101 176.293 19.548 176.603 19.548H178.316L178.124 18.8578L177.13 18.8626Z" fill="#fff"/>
<path d="M192.414 12.2064H192.93L193.117 12.4526V19.5576H192.414V12.2064Z" fill="#fff"/>
<path d="M179.557 14.1854H180.073L180.26 14.4316V19.5528H179.557V14.1854Z" fill="#fff"/>
<path d="M180.442 12.414C180.443 12.5183 180.413 12.6204 180.354 12.7076C180.296 12.7947 180.213 12.8629 180.115 12.9035C180.017 12.9441 179.909 12.9552 179.804 12.9354C179.7 12.9157 179.604 12.8659 179.528 12.7926C179.453 12.7192 179.401 12.6254 179.38 12.5232C179.359 12.4211 179.369 12.315 179.41 12.2186C179.45 12.1222 179.519 12.0397 179.607 11.9817C179.696 11.9237 179.8 11.8927 179.906 11.8927C180.047 11.8927 180.183 11.9475 180.284 12.0451C180.384 12.1427 180.441 12.2753 180.442 12.414Z" fill="#fff"/>
<path d="M181.796 14.1854H181.343L181.146 14.3302L183.233 19.5528H183.903L185.946 14.3302L185.749 14.1854H185.296L183.553 18.6502L181.796 14.1854Z" fill="#fff"/>
<path d="M187.043 14.6825C187.583 14.3522 188.209 14.1843 188.845 14.1998C190.085 14.1998 190.71 14.8466 190.71 16.1306V19.5576H189.903V18.7322H189.874C189.721 19.0292 189.485 19.2776 189.194 19.4485C188.903 19.6194 188.569 19.7058 188.23 19.6975C187.774 19.7232 187.326 19.5744 186.979 19.2824C186.828 19.1412 186.709 18.9701 186.63 18.7804C186.551 18.5907 186.514 18.3867 186.522 18.1819C186.522 17.2166 187.107 16.6502 188.279 16.4829L189.898 16.256C189.898 15.3438 189.524 15.0107 188.786 15.0107C188.223 14.9773 187.664 15.121 187.191 15.421L187.043 15.2279V14.6825ZM188.584 17.0621C188.241 17.0817 187.91 17.1954 187.629 17.3903C187.534 17.4851 187.461 17.5989 187.415 17.7239C187.37 17.8488 187.352 17.982 187.363 18.1144C187.359 18.2347 187.383 18.3544 187.432 18.4647C187.482 18.575 187.556 18.673 187.649 18.7515C187.86 18.9224 188.128 19.0101 188.402 18.9977C188.602 19.0023 188.801 18.9647 188.986 18.8872C189.17 18.8098 189.335 18.6943 189.47 18.5488C189.758 18.2436 189.912 17.8396 189.898 17.4241V16.8932L188.584 17.0621Z" fill="#fff"/>
<path d="M149.683 14.3109C149.448 14.3066 149.216 14.3528 149.002 14.4462C148.787 14.5396 148.596 14.678 148.442 14.8515V14.557L148.255 14.3109H147.763V19.6783H148.467V16.5891C148.467 16.3864 148.61 15.1025 149.708 15.0397C150.141 15.0397 150.402 15.0397 150.402 15.0397V14.3495L149.683 14.3109Z" fill="#fff"/>
</svg>
