<svg width="26" height="24" viewBox="0 0 26 24" fill="none" xmlns="http://www.w3.org/2000/svg">
<path d="M0 1.75445C0 0.785495 0.793677 0 1.77273 0H24.2273C25.2063 0 26 0.785495 26 1.75445C26 2.72341 25.2063 3.5089 24.2273 3.5089H1.77273C0.793677 3.5089 0 2.72341 0 1.75445Z" fill="#C6CFE6"/>
<path d="M0 11.6963C0 10.7274 0.793677 9.94189 1.77273 9.94189H24.2273C25.2063 9.94189 26 10.7274 26 11.6963C26 12.6653 25.2063 13.4508 24.2273 13.4508H1.77273C0.793677 13.4508 0 12.6653 0 11.6963Z" fill="#C6CFE6"/>
<path d="M1.77273 20.4911C0.793677 20.4911 0 21.2766 0 22.2455C0 23.2145 0.793677 24 1.77273 24H24.2273C25.2063 24 26 23.2145 26 22.2455C26 21.2766 25.2063 20.4911 24.2273 20.4911H1.77273Z" fill="#C6CFE6"/>
</svg>
