<svg width="171" height="37" viewBox="0 0 171 37" fill="none" xmlns="http://www.w3.org/2000/svg">
<path d="M11.832 14.376C9.12002 14.784 6.36002 15.144 5.18402 15.24L6.69602 18.528C6.98402 18.456 7.22402 18.24 7.34402 17.904C9.48002 16.488 10.944 15.384 11.856 14.616L11.832 14.376ZM9.02402 12.504H8.08802V9.47997H9.02402V12.504ZM4.82402 20.592V2.95197H19.104V9.21597L15.768 7.79997C15.504 9.11997 15.12 10.368 14.64 11.496C14.376 10.152 14.256 8.68797 14.208 7.17597H18.144C18.48 7.17597 18.72 7.05597 18.792 6.79197C18.504 6.50397 18.144 6.19197 17.784 5.90397C18.816 5.27997 18.768 3.35997 15.192 3.28797L14.976 3.43197C15.408 3.91197 15.912 4.72797 16.128 5.51997L15.384 6.50397H14.184C14.184 5.85597 14.184 5.20797 14.184 4.55997C14.736 4.51197 14.976 4.24797 15.024 3.95997L11.4 3.35997C11.4 4.43997 11.424 5.47197 11.472 6.50397H5.23202L5.42402 7.17597H11.496C11.52 7.82397 11.568 8.47197 11.64 9.09597L9.86402 7.77597L8.85602 8.80797H8.18402L5.88002 7.87197V14.28H6.19202C7.10402 14.28 8.08802 13.776 8.08802 13.608V13.176H9.02402V13.872H9.40802C10.2 13.872 11.304 13.344 11.304 13.152V9.67197C11.448 9.64797 11.568 9.59997 11.688 9.55197C11.88 11.448 12.24 13.224 12.84 14.856C11.472 16.872 9.74402 18.48 7.87202 19.656L8.08802 19.92C10.248 19.176 12.12 18.144 13.704 16.728C14.088 17.4 14.52 18.024 15.024 18.624C15.768 19.464 17.472 20.376 18.504 19.368C18.888 18.96 18.768 18.264 18.096 16.992L18.504 13.632L18.264 13.56C17.928 14.424 17.472 15.456 17.16 15.984C16.968 16.32 16.848 16.344 16.608 16.032C16.248 15.624 15.936 15.144 15.672 14.616C16.68 13.248 17.568 11.616 18.264 9.67197C18.648 9.71997 18.936 9.64797 19.104 9.50397V20.592H4.82402ZM20.376 0.59997L18.864 2.27997H5.08802L1.63202 0.911971V23.28H2.16002C3.52802 23.28 4.82402 22.488 4.82402 22.08V21.264H19.104V23.16H19.608C20.832 23.16 22.32 22.392 22.368 22.152V3.47997C22.848 3.35997 23.16 3.16797 23.328 2.95197L20.376 0.59997Z" fill="white"/>
<path d="M41.952 16.752C42.936 17.904 43.992 19.656 44.28 21.264C47.136 23.232 49.512 17.64 42.144 16.608L41.952 16.752ZM42.984 14.784H33.624L33.816 15.456H38.544V17.64L35.232 16.104C34.92 17.784 34.032 20.4 33 22.056L33.192 22.32C35.064 21.24 37.104 19.416 38.016 17.976C38.232 18 38.424 18 38.544 17.952V23.28H39.12C40.752 23.28 41.712 22.8 41.736 22.68V15.456H46.728C47.064 15.456 47.328 15.336 47.4 15.072C46.344 14.088 44.568 12.672 44.568 12.672L42.984 14.784ZM40.512 11.28H36.192L36.384 11.952H43.8C44.136 11.952 44.4 11.832 44.472 11.568C43.536 10.656 41.928 9.33597 41.928 9.33597L40.512 11.28ZM41.376 3.71997H43.848C43.656 4.63197 43.368 5.75997 43.08 6.62397C42.408 5.99997 41.88 5.23197 41.52 4.31997C41.664 4.27197 41.736 4.19997 41.808 4.07997L41.376 3.71997ZM38.184 4.10397C38.064 4.63197 37.92 5.15997 37.776 5.66397C37.44 5.39997 36.912 5.15997 36.096 5.06397C36.36 4.75197 36.6 4.43997 36.816 4.10397H38.184ZM29.064 15.768V3.02397H30.288C30.096 4.94397 29.664 7.79997 29.304 9.40797C30.264 10.92 30.6 12.768 30.6 14.424C30.6 15.096 30.432 15.48 30.168 15.648C30.048 15.744 29.904 15.768 29.688 15.768H29.064ZM45.192 1.55997L43.704 3.04797H41.136L41.352 3.69597L39.408 2.06397L38.04 3.43197H37.248C37.584 2.87997 37.872 2.32797 38.136 1.77597C38.736 1.84797 38.928 1.72797 39.024 1.48797L35.4 0.52797C34.992 3.14397 33.864 6.14397 32.352 7.87197L32.592 8.06397C33.768 7.39197 34.8 6.52797 35.688 5.54397C35.952 5.99997 36.168 6.57597 36.192 7.12797C36.504 7.36797 36.816 7.43997 37.08 7.43997C36.168 9.47997 34.8 11.304 32.88 12.624C32.304 11.4 31.344 10.2 29.928 9.33597C31.224 7.82397 32.688 5.37597 33.552 3.88797C34.128 3.86397 34.44 3.79197 34.632 3.55197L31.632 0.81597L30.048 2.35197H29.376L25.992 1.10397V23.304H26.544C28.128 23.304 29.064 22.56 29.064 22.32V16.272C29.28 16.392 29.448 16.56 29.544 16.752C29.76 17.136 29.856 18.384 29.856 19.248C32.64 19.224 33.504 17.712 33.504 15.336C33.504 14.592 33.36 13.776 33.024 12.984C37.392 11.184 39.792 8.03997 40.896 4.43997C41.088 4.41597 41.256 4.39197 41.376 4.36797L41.232 4.43997C41.88 8.25597 43.272 10.392 45.768 12.024C46.128 10.584 46.896 9.62397 48 9.31197V9.04797C46.32 8.61597 44.688 7.99197 43.392 6.91197C44.568 6.23997 45.984 5.13597 46.848 4.31997C47.352 4.27197 47.592 4.22397 47.784 4.00797L45.192 1.55997ZM36.288 7.53597C35.112 7.91997 33.792 8.27997 32.976 8.37597L34.176 10.512C34.416 10.44 34.608 10.224 34.68 9.93597C35.424 9.07197 36.024 8.32797 36.36 7.82397L36.288 7.53597Z" fill="white"/>
<path d="M50.88 16.44C51.12 16.368 51.36 16.176 51.552 15.936C53.592 15.12 55.392 14.28 56.688 13.632C56.784 14.04 56.832 14.472 56.832 14.88C58.944 16.848 61.56 12.696 55.992 10.704L55.752 10.824C56.016 11.4 56.304 12.096 56.496 12.816C54.96 12.912 53.472 13.008 52.272 13.08C54.696 11.544 57.384 9.19197 58.752 7.53597C59.232 7.65597 59.544 7.51197 59.664 7.29597L56.304 4.99197C56.064 5.66397 55.656 6.45597 55.152 7.31997C53.928 7.34397 52.752 7.34397 51.792 7.34397C53.472 6.11997 55.368 4.19997 56.472 2.75997C56.904 2.78397 57.192 2.63997 57.288 2.42397L53.52 0.52797C53.136 2.39997 51.648 5.87997 50.544 6.93597C50.304 7.10397 49.752 7.24797 49.752 7.24797L51.144 10.512C51.384 10.416 51.6 10.224 51.768 9.93597C52.632 9.57597 53.448 9.19197 54.168 8.85597C53.064 10.512 51.744 12.072 50.688 12.792C50.4 12.984 49.752 13.128 49.752 13.128L50.88 16.44ZM51.408 16.272C51.576 17.544 50.784 19.032 50.256 19.656C49.512 20.184 49.128 21.024 49.56 21.888C50.088 22.848 51.576 22.896 52.128 22.104C52.872 20.976 52.872 18.936 51.72 16.272H51.408ZM53.304 16.08C53.592 17.376 53.736 19.104 53.496 20.616C55.368 22.944 58.512 18.96 53.592 15.984L53.304 16.08ZM67.992 9.67197C67.632 11.688 67.032 13.632 66.168 15.408C65.016 13.92 64.152 12.048 63.648 9.67197H67.992ZM66.048 3.09597L65.4 8.99997H63.192C63.288 7.10397 63.312 5.13597 63.336 3.09597H66.048ZM69.48 7.31997L68.64 8.15997L69.216 3.55197C69.696 3.47997 69.912 3.40797 70.104 3.16797L67.104 0.98397L65.88 2.42397H58.584L58.8 3.09597H60.168C60.168 8.32797 60.312 13.296 59.184 17.808C58.944 16.992 58.008 16.128 55.968 15.624L55.728 15.744C56.328 16.632 56.856 18.024 56.856 19.2C57.552 19.8 58.272 19.752 58.752 19.392C58.368 20.592 57.864 21.768 57.24 22.92L57.552 23.256C61.608 19.632 62.784 14.976 63.144 9.67197H63.264C63.6 12.912 64.176 15.408 65.016 17.424C63.552 19.656 61.56 21.576 58.896 22.992L59.064 23.256C62.016 22.368 64.32 21.072 66.096 19.488C67.008 20.952 68.16 22.152 69.552 23.256C70.128 21.672 71.256 20.688 72.648 20.496L72.72 20.232C71.016 19.488 69.432 18.6 68.04 17.4C69.648 15.312 70.68 12.864 71.352 10.248C71.928 10.176 72.168 10.08 72.312 9.81597L69.48 7.31997Z" fill="white"/>
<path d="M84.024 13.56C84.696 14.712 85.272 16.32 85.272 17.856C88.128 20.352 91.488 14.832 84.216 13.44L84.024 13.56ZM77.808 16.92V10.56H79.704V16.92H77.808ZM79.704 3.83997V9.88797H77.808V3.83997H79.704ZM87.504 4.79997V8.66397H83.88L84.072 9.33597H95.328C95.688 9.33597 95.952 9.21597 96.024 8.95197C94.92 7.91997 93.024 6.38397 93.024 6.38397L91.344 8.66397H90.864V4.79997H96.024C96.384 4.79997 96.648 4.67997 96.696 4.41597C95.664 3.43197 93.888 1.99197 93.888 1.99197L92.304 4.12797H90.864V1.72797C91.536 1.63197 91.704 1.39197 91.728 1.05597L87.504 0.71997V4.12797H83.4C83.568 4.03197 83.688 3.93597 83.76 3.83997L80.904 1.58397L79.464 3.16797H78.144L74.76 1.70397V20.712H75.312C76.872 20.712 77.808 19.992 77.808 19.776V17.592H79.704V19.512H80.208C81.288 19.512 82.776 18.864 82.8 18.648V4.79997H87.504ZM93.576 12.288V10.512C94.104 10.44 94.344 10.248 94.392 9.88797L90.216 9.52797V12.36H82.8L82.992 13.032H90.216V19.272C90.216 19.536 90.096 19.656 89.76 19.656C89.232 19.656 86.544 19.488 86.544 19.488V19.8C87.84 20.04 88.344 20.4 88.752 20.904C89.184 21.432 89.304 22.2 89.376 23.28C93.072 22.944 93.576 21.72 93.576 19.464V13.032H96.672C97.008 13.032 97.272 12.912 97.32 12.648C96.456 11.712 94.896 10.296 94.896 10.296L93.576 12.288Z" fill="white"/>
<path d="M114.648 0.98397C114.024 3.02397 113.208 5.35197 112.584 6.74397L112.848 6.91197C114.504 6.02397 116.376 4.70397 117.96 3.31197C118.512 3.35997 118.848 3.19197 118.992 2.90397L114.648 0.98397ZM101.28 1.31997C102.36 2.63997 103.392 4.55997 103.68 6.35997C106.896 8.66397 109.68 2.37597 101.472 1.19997L101.28 1.31997ZM108.36 15.912V11.736H111.288V15.912H108.36ZM114.408 12.24C114.912 12.144 115.224 11.928 115.368 11.736L112.464 9.52797L111.048 11.064H108.456L105.288 9.83997V19.152H105.72C107.016 19.152 108.36 18.48 108.36 18.192V16.584H111.288V18.552H111.816C112.872 18.552 114.384 17.928 114.408 17.712V12.24ZM117.6 5.68797L116.064 7.39197H111.528V1.43997C112.2 1.34397 112.344 1.10397 112.392 0.76797L108.048 0.43197V7.39197H103.656L99.984 5.95197V23.328H100.512C101.952 23.328 103.392 22.536 103.392 22.152V8.06397H116.304V19.248C116.304 19.536 116.208 19.728 115.824 19.728C115.152 19.728 112.68 19.56 112.68 19.56V19.872C114 20.088 114.48 20.472 114.888 20.952C115.296 21.456 115.416 22.2 115.512 23.28C119.256 22.968 119.784 21.744 119.784 19.584V8.61597C120.288 8.51997 120.576 8.30397 120.744 8.11197L117.6 5.68797Z" fill="white"/>
<path d="M140.808 14.592C140.304 15.384 139.464 16.56 138.672 17.544C137.616 16.8 136.728 15.84 136.104 14.592H140.808ZM131.496 10.68V13.92H129.048C129.24 12.816 129.336 11.736 129.384 10.68H131.496ZM140.64 2.85597V5.92797H129.408V2.85597H140.64ZM137.112 7.17597V10.008H134.76V7.91997C135.24 7.84797 135.384 7.65597 135.408 7.39197L131.496 7.05597V10.008H129.384C129.408 9.55197 129.408 9.09597 129.408 8.66397V6.59997H140.64V7.48797L137.112 7.17597ZM137.112 13.92H134.76V10.68H137.112V13.92ZM141.216 14.592H145.248C145.584 14.592 145.848 14.472 145.92 14.208C144.816 13.176 142.944 11.616 142.944 11.616L141.264 13.92H140.328V10.68H144.144C144.504 10.68 144.744 10.56 144.816 10.296C143.832 9.35997 142.176 7.99197 142.176 7.99197L140.688 10.008H140.328V8.03997C140.808 7.96797 140.976 7.77597 141 7.53597H141.216C142.272 7.53597 143.976 7.03197 144 6.88797V3.40797C144.504 3.28797 144.816 3.07197 144.96 2.87997L141.864 0.575971L140.4 2.18397H129.912L125.88 0.83997V8.68797C125.88 13.488 125.664 18.84 122.904 23.088L123.096 23.232C126.72 20.928 128.28 17.784 128.928 14.592H130.392V18.528C130.392 19.032 130.248 19.296 129.24 19.848L131.112 23.472C131.28 23.376 131.472 23.232 131.64 23.064C133.92 21.384 135.768 19.728 136.656 18.864L136.608 18.648C135.6 18.888 134.592 19.128 133.656 19.344V14.592H135.672C136.872 19.68 139.368 21.816 143.376 23.352C143.76 21.672 144.672 20.544 146.04 20.16L146.064 19.872C143.784 19.584 141.552 19.104 139.728 18.168C141.048 17.832 142.392 17.472 143.424 17.136C143.976 17.256 144.216 17.136 144.36 16.92L141.216 14.592Z" fill="white"/>
<path d="M159.336 0.43197C160.032 1.19997 160.68 2.47197 160.776 3.64797C163.632 5.66397 166.44 0.28797 159.504 0.31197L159.336 0.43197ZM148.776 0.88797C149.352 1.94397 149.976 3.45597 150.072 4.87197C152.76 7.10397 155.856 1.99197 148.968 0.76797L148.776 0.88797ZM147.384 6.43197C148.032 7.41597 148.704 8.87997 148.824 10.224C151.44 12.264 154.224 7.29597 147.576 6.31197L147.384 6.43197ZM154.032 3.81597C150.264 14.352 150.264 14.352 149.784 15.264C149.544 15.792 149.448 15.792 149.088 15.792H148.032V16.224C148.56 16.272 148.944 16.392 149.28 16.632C149.856 17.016 149.952 19.536 149.448 22.032C149.664 23.016 150.336 23.304 150.936 23.304C152.232 23.304 153.12 22.416 153.168 21.144C153.216 18.864 152.136 18.072 152.088 16.68C152.064 16.032 152.184 15.12 152.328 14.256C152.568 12.792 153.72 7.00797 154.416 3.88797L154.032 3.81597ZM152.808 23.16C156.168 22.92 159.336 22.08 161.28 20.808C162.12 21 162.6 20.856 162.816 20.568L158.832 18.072C157.728 19.752 155.328 21.816 152.736 22.944L152.808 23.16ZM162.504 18.912C164.52 20.016 165.864 21.504 166.512 22.464C168.936 24.96 175.08 19.536 162.624 18.648L162.504 18.912ZM163.608 6.93597H156.864C157.104 6.43197 157.2 5.73597 157.08 4.79997H166.512V5.85597C165.816 5.32797 165.24 4.91997 165.24 4.91997L163.608 6.93597ZM164.832 10.44V13.08H163.32V10.44H164.832ZM163.32 16.848V13.752H164.832V16.848H163.32ZM158.544 13.752H160.128V16.848H158.544V13.752ZM160.128 10.44V13.08H158.544V10.44H160.128ZM167.832 2.56797L166.248 4.12797H156.936C156.84 3.69597 156.696 3.21597 156.504 2.71197H156.216C156.024 4.10397 155.328 5.01597 154.488 5.42397C152.88 7.41597 155.208 8.71197 156.432 7.55997L156.456 7.60797H160.128V9.76797H158.784L155.4 8.49597V18.792H155.976C157.584 18.792 158.544 18.288 158.544 18.072V17.52H164.832V18.36H165.408C167.112 18.36 168.12 17.832 168.12 17.688V10.656C168.672 10.56 168.912 10.416 169.056 10.2L166.248 8.06397L164.736 9.76797H163.32V7.60797H167.544C167.904 7.60797 168.168 7.48797 168.24 7.22397C168 7.03197 167.76 6.81597 167.496 6.59997C168.24 6.21597 169.08 5.75997 169.632 5.42397C170.112 5.39997 170.352 5.35197 170.52 5.13597L167.832 2.56797Z" fill="white"/>
<path fill-rule="evenodd" clip-rule="evenodd" d="M170 36.9999L-7.59307e-06 35.9999L0.0176392 33L170.018 34L170 36.9999Z" fill="white"/>
</svg>
