<svg width="200" height="140" viewBox="0 0 200 140" fill="none" xmlns="http://www.w3.org/2000/svg">
<path d="M91.8225 86.4121L95.6942 90.1942L97.3404 95.4194L97.4166 100.386L97.066 105.353L95.8771 109.713L92.2036 112.598L87.6155 112.416L83.9878 109.652L81.4422 106.659L78.0583 104.609L74.2629 103.606L70.437 101.298L68.1963 97.5307L69.0346 93.2017L72.1137 90.1487L77.0371 87.7032L82.0824 85.5919L87.0363 84.7413L91.8225 86.4121Z" fill="#499F94"/>
<path d="M99.2764 80.6401L96.6851 83.4046L93.0878 84.6349L89.4448 83.7388L87.0517 80.8832L86.4268 77.1618L87.57 73.5163L90.1917 70.7063L93.8805 69.6279L97.5235 70.5848L100.221 73.2885L100.816 77.1162L99.2764 80.6401Z" fill="#499F94"/>
<path d="M99.8247 92.9131L97.1572 88.9031L98.1175 84.1489L102.629 80.9287L108.147 81.2173L110.739 85.2729L109.748 90.0271L105.297 93.3232L99.8247 92.9131Z" fill="#499F94"/>
<path d="M82.0519 71.4354L84.8718 75.8555L83.7286 80.9591L80.2532 83.678L75.8785 83.0704L72.9824 78.6959L74.3238 73.6227L77.7229 70.8582L82.0519 71.4354Z" fill="#499F94"/>
<path d="M110.251 103.713L106.089 106.948L100.846 106.128L98.5596 102.482L99.4589 98.3205L103.788 95.2219L109.001 96.194L111.607 99.5964L110.251 103.713Z" fill="#499F94"/>
<path d="M184.819 11.6654L187.943 13.883L189.605 17.2551L190.565 20.6119L191.144 24.0599L188.827 29.5888L182.791 28.9964L179.316 26.794L175.246 26.1408L170.109 22.9359L171.756 17.2399L174.575 14.5818L177.837 12.4704L181.237 11.4376L184.819 11.6654Z" fill="#499F94"/>
<path d="M189.086 6.71368L186.617 9.82749L182.7 10.4351L179.956 7.5339L180.002 3.5543L182.456 0.44049L186.373 0L189.163 2.74927L189.086 6.71368Z" fill="#499F94"/>
<path d="M191.236 15.1134L188.827 12.6983L188.797 9.29587L191.373 6.33395L195.275 5.72638L197.638 8.20224L197.561 11.5895L195.138 14.6425L191.236 15.1134Z" fill="#499F94"/>
<path d="M175.81 2.96191L178.295 5.57448L178.417 9.23511L173.326 11.7717L170.765 9.20473L170.734 5.51372L175.81 2.96191Z" fill="#499F94"/>
<path d="M200 20.9613L197.653 23.8017L193.964 23.8928L191.708 18.8196L194.284 16.0096L198.11 15.8425L200 20.9613Z" fill="#499F94"/>
<path d="M130.067 23.8017L126.256 23.346L122.644 24.6523L119.869 26.794L117.034 28.8294L115.205 34.6469L120.159 38.1252L124.183 38.8847L127.796 40.8897L133.603 41.7403L136.21 36.5607L135.524 32.7634L134.792 28.9812L133.161 25.7459L130.067 23.8017Z" fill="#499F94"/>
<path d="M130.158 17.2703L129.99 21.2043L132.521 24.1966L136.453 23.8473L139.044 20.8398L139.227 16.9057L136.606 14.0046L132.658 14.1717L130.158 17.2703Z" fill="#499F94"/>
<path d="M123.009 22.0549L126.393 21.9638L128.634 19.3968L128.68 15.4779L126.073 12.6071L122.689 12.7287L120.448 15.3412L120.342 19.2753L123.009 22.0549Z" fill="#499F94"/>
<path d="M142.626 23.1182L138.938 23.3764L136.529 26.1712L138.618 31.5179L142.322 31.2293L144.715 28.404L142.626 23.1182Z" fill="#499F94"/>
<path d="M112.385 20.779L112.507 24.47L115.067 27.1129L120.067 24.6219L119.976 20.8853L117.262 18.3639L112.385 20.779Z" fill="#499F94"/>
<path d="M21.2632 118.112L16.6599 118.34L12.834 120.861L10.0903 123.99L7.05697 126.831L5.39551 130.324L6.06619 134.167L9.08425 136.415L12.7882 137.129L17.6659 136.977L22.1473 138.922L25.8817 140L29.5095 138.679L31.5673 135.458L31.2929 131.752L29.6772 127.454L27.7566 123.292L25.0739 120.087L21.2632 118.112Z" fill="#499F94"/>
<path d="M19.9219 110.518L20.5163 115.196L24.1898 118.158L28.7017 116.821L31.11 112.766L30.6223 108.042L26.7811 105.323L22.1473 106.295L19.9219 110.518Z" fill="#499F94"/>
<path d="M12.6053 117.732L16.5227 116.791L18.7329 113.358L17.8184 108.74L14.1449 105.945L10.2122 106.796L8.2002 110.366L8.88612 114.983L12.6053 117.732Z" fill="#499F94"/>
<path d="M35.8204 114.558L31.5677 115.788L29.2051 119.525L29.891 123.201L32.97 125.206L37.1618 124.158L39.4177 120.391L38.8385 116.715L35.8204 114.558Z" fill="#499F94"/>
<path d="M0 118.477L0.868836 122.745L4.42039 125.312L7.94147 124.416L9.80108 121.317L8.76458 116.988L5.10632 114.467L1.57 115.211L0 118.477Z" fill="#499F94"/>
</svg>
