<svg width="135" height="110" viewBox="0 0 135 110" fill="none" xmlns="http://www.w3.org/2000/svg">
<path d="M47.1603 66.9916L43.5127 74.3123L52.874 94.5144L77.5655 109.003L94.1711 107.676L125.482 99.1186L132.203 74.6821L110.509 52.6817L63.6511 52.1588L47.1603 66.9916Z" fill="#F0DE26"/>
<path d="M129.001 65.4484C125.673 61.9155 121.872 58.8929 118.441 55.4876C117.166 54.2122 112.829 55.9722 114.271 57.3879L114.449 57.5665C113.804 57.7543 113.173 57.9887 112.562 58.2679C112.166 58.4465 111.669 58.7143 111.669 59.0077C111.53 59.0709 111.397 59.1478 111.274 59.2372C104.004 64.7469 95.3949 68.1649 88.4313 74.0955C88.1125 74.3633 88.1635 74.5546 88.3421 74.6822C87.7936 74.9883 87.2325 75.2689 86.6841 75.6005C85.9316 76.0341 86.1229 76.4677 86.9264 76.5187C88.0523 76.5383 89.1612 76.2423 90.1276 75.6642C96.2367 72.0676 102.971 69.5679 108.71 65.3463C111.077 63.4342 113.346 61.4038 115.508 59.2627L115.89 58.9311C119.002 61.839 122.267 64.5811 125.175 67.7186C127.637 70.3714 130.43 73.5343 129.767 77.3477C129.461 77.3876 129.159 77.4472 128.861 77.5263C128.425 77.6375 127.999 77.7825 127.586 77.9599C127.343 78.0619 126.527 78.3936 127.037 78.215C126.655 78.3553 125.991 78.6231 125.838 78.942C121.719 80.5872 117.765 82.6278 113.812 84.5919C113.454 84.7705 112.256 85.3827 113.212 85.625C114.3 85.7357 115.395 85.5228 116.362 85.0128C120.599 82.7829 124.955 80.7861 129.41 79.0312C128.619 82.3345 127.637 85.6122 126.655 88.8517C126.068 90.8031 125.469 92.7544 124.78 94.6802C124.55 95.2924 124.333 95.9556 124.066 96.5296C124.066 96.6698 123.862 96.8867 123.798 97.0652C123.555 97.2557 123.381 97.5197 123.3 97.8177C122.876 97.9847 122.523 98.2964 122.306 98.6977C122.258 98.8078 122.223 98.9235 122.204 99.0421C116.821 100.955 111.069 101.861 105.624 103.442C100.522 104.947 95.1909 106.605 89.8088 106.847C90.2296 106.388 90.6123 105.865 91.0841 105.406C91.8832 104.614 92.7354 103.876 93.6349 103.2C95.6865 101.704 97.6456 100.086 99.5017 98.3534C103.216 94.4392 107.137 90.7268 111.248 87.232C111.465 87.1046 111.648 86.9267 111.781 86.7133C111.914 86.4999 111.993 86.2574 112.012 86.0067C112.03 85.756 111.988 85.5044 111.888 85.2736C111.789 85.0427 111.635 84.8395 111.439 84.6812C110.939 84.3832 110.359 84.2455 109.777 84.2865C109.196 84.3275 108.641 84.5454 108.187 84.9108C107.575 85.4082 106.975 85.9311 106.376 86.454C106.539 86.2642 106.629 86.0221 106.629 85.7717C106.629 85.5212 106.539 85.2791 106.376 85.0893C106.147 84.8624 105.865 84.6959 105.555 84.6047C105.246 84.5134 104.919 84.5003 104.603 84.5664H104.374C103.825 84.4006 103.29 84.2093 102.741 84.0053C101.568 83.5844 100.407 83.138 99.2721 82.6406C95.446 80.9571 91.6198 79.0185 87.6916 77.6156C87.1298 77.4674 86.539 77.4683 85.9776 77.6181C85.4162 77.768 84.9036 78.0616 84.4904 78.4701C84.3259 78.6054 84.2038 78.7853 84.1388 78.9882C84.0738 79.191 84.0685 79.4083 84.1237 79.6141C84.1788 79.8199 84.292 80.0054 84.4498 80.1486C84.6075 80.2917 84.8032 80.3864 85.0133 80.4214C89.5409 82.0157 93.7369 84.3624 98.188 86.1096C99.5058 86.6629 100.856 87.1357 102.231 87.5253C103.02 87.7566 103.856 87.7742 104.654 87.5763C104.934 87.4926 105.204 87.3771 105.458 87.232C102.371 89.9613 99.4762 92.8947 96.6066 95.8536C94.9312 97.4846 93.1411 98.9935 91.2499 100.368C90.3444 101.057 89.4389 101.771 88.5844 102.549C88.087 103.009 87.5896 103.493 87.1177 103.991L86.8371 104.348C86.4214 104.587 86.0744 104.93 85.8295 105.342C86.0336 104.998 85.4852 105.827 85.4342 105.967C85.3576 106.188 85.3272 106.423 85.3449 106.656V106.656C84.7721 106.631 84.2025 106.755 83.691 107.014C83.1795 107.273 82.7432 107.659 82.4243 108.136C78.4195 107.893 74.4021 105.33 71.0478 103.34C67.2217 101.07 63.6251 98.5064 59.8117 96.2362C58.0771 95.2159 56.1385 94.5144 54.455 93.3921C52.5164 92.1167 51.764 90.1399 50.9987 88.0355C49.2454 83.597 47.8674 79.0194 46.8792 74.3506C58.2939 75.1668 69.8362 75.0775 81.1744 76.3274C81.9779 76.4167 84.7327 75.7025 84.3118 74.4016C83.9675 73.3685 83.4063 73.4323 82.488 73.1262C81.7665 72.9925 81.021 73.1048 80.3709 73.445C69.2368 72.412 58.0389 72.4885 46.9047 71.5957C46.752 71.583 46.5984 71.583 46.4456 71.5957V71.5957C51.088 67.1191 55.4243 62.4512 60.0157 57.9108C64.0332 54.0081 69.173 54.0847 74.4403 53.8296C80.8173 53.5873 87.1942 53.9954 93.6732 54.1612C96.5429 54.2845 99.4173 54.2419 102.282 54.0337C104.08 53.8679 107.039 53.0389 108.748 53.9061C109.273 54.1271 109.847 54.208 110.412 54.1409C110.978 54.0738 111.516 53.8611 111.975 53.5235C112.613 53.0644 113.25 51.9293 112.281 51.4191C110.062 50.3095 107.422 50.5646 105.024 50.7814C102.058 51.0718 99.0767 51.191 96.0964 51.1385C88.8267 50.9855 81.608 50.5646 74.3383 50.8324C68.5991 51.0365 62.6303 51.4446 58.0006 55.2453C55.4048 57.5372 52.9394 59.9727 50.6161 62.5405C48.0653 65.206 45.438 67.8716 42.7725 70.4479C42.6531 70.5401 42.5554 70.6574 42.4862 70.7914C42.417 70.9255 42.3779 71.073 42.3719 71.2238C42.3658 71.3745 42.3928 71.5247 42.451 71.6639C42.5092 71.8031 42.5971 71.9278 42.7087 72.0294C42.2368 72.2717 41.918 72.5523 41.9562 72.8456C42.8628 78.7306 44.4595 84.4883 46.7134 89.9996C47.2982 91.939 48.4979 93.6355 50.1315 94.8333C51.917 96.0194 53.9576 96.7719 55.8197 97.8815C59.7989 100.279 63.5996 102.983 67.6298 105.304C71.2391 107.409 75.1928 109.577 79.4399 109.819C80.5327 109.855 81.6127 109.576 82.5518 109.016C82.8629 109.213 83.2176 109.331 83.5849 109.36C91.0969 110.329 98.5069 108.085 105.636 106.031C112.536 104.029 119.806 102.945 126.425 100.113C127.216 99.769 128.262 98.838 127.471 98.0855C128.454 96.7775 129.153 95.2789 129.524 93.6854C130.8 90.1909 131.782 86.6453 132.777 83.087C133.465 80.6127 134.588 77.8196 134.588 75.2178C134.562 71.4682 131.437 68.0247 129.001 65.4484ZM100.05 68.5603C100.956 68.0119 101.874 67.4762 102.792 66.9406C102.473 67.1574 102.155 67.3742 101.823 67.5783C101.236 67.9226 100.637 68.2287 100.05 68.5603ZM89.6685 106.809V106.694C89.674 106.732 89.674 106.771 89.6685 106.809V106.809Z" fill="white"/>
<path d="M44.1246 15.67C43.997 15.4914 43.793 15.3894 43.6654 15.1981C43.5347 15.0054 43.3329 14.8724 43.1043 14.8282C42.7982 14.4328 42.5048 13.9482 42.3263 13.7314C41.7269 13.0044 41.1402 12.2902 40.528 11.576C39.1633 9.95623 37.7604 8.37475 36.2809 6.86979C33.7302 4.2425 30.6055 1.36012 26.9706 0.339813C26.6929 0.283472 26.4066 0.283472 26.1289 0.339813C23.3388 -0.0362519 20.5156 -0.100417 17.7113 0.148505C14.769 0.281422 11.849 0.726043 9.00042 1.47491C7.986 1.81895 7.09768 2.45855 6.44965 3.31146C6.40549 3.36241 6.36701 3.418 6.33486 3.47726C5.70992 1.98506 2.62348 3.00537 2.38116 4.80367C1.5139 10.1603 -0.258891 15.8868 1.06751 21.3072C1.06751 21.3072 1.06751 21.3709 1.06751 21.4092C0.366049 22.0214 -0.207875 22.6846 0.0727099 23.2203C2.52145 28.3218 5.17426 33.3086 7.72503 38.3208C7.85257 38.5504 8.46476 38.3208 8.57954 38.3208C13.1709 36.3822 18.6679 37.9637 23.4633 38.0147C24.6104 37.7908 25.6409 37.1672 26.3712 36.2547C26.5395 36.3817 26.7367 36.4649 26.9451 36.497C27.513 36.5111 28.0734 36.3656 28.5626 36.077C29.0519 35.7884 29.4503 35.3683 29.7127 34.8645C30.0752 34.1552 30.5022 33.4807 30.9881 32.8494C31.5875 32.0459 32.2635 31.2807 32.9267 30.5282C34.3551 28.9595 35.8728 27.48 37.3523 25.9751C39.5459 23.7432 42.1477 21.1669 43.3721 18.157C44.1118 17.4428 44.7113 16.5372 44.1246 15.67Z" fill="#F0DE26"/>
<path d="M44.1246 15.67C43.997 15.4914 43.793 15.3894 43.6654 15.1981C43.5347 15.0054 43.3329 14.8724 43.1043 14.8282C42.7982 14.4328 42.5048 13.9482 42.3263 13.7314C41.7269 13.0044 41.1402 12.2902 40.528 11.576C39.1633 9.95623 37.7604 8.37475 36.2809 6.86979C33.7302 4.2425 30.6055 1.36012 26.9706 0.339813C26.6929 0.283472 26.4066 0.283472 26.1289 0.339813C23.3388 -0.0362519 20.5156 -0.100417 17.7113 0.148505C14.769 0.281422 11.849 0.726043 9.00042 1.47491C7.986 1.81895 7.09768 2.45855 6.44965 3.31146C6.40549 3.36241 6.36701 3.418 6.33486 3.47726C5.70992 1.98506 2.62348 3.00537 2.38116 4.80367C1.5139 10.1603 -0.258891 15.8868 1.06751 21.3072C1.06751 21.3072 1.06751 21.3709 1.06751 21.4092C0.366049 22.0214 -0.207875 22.6846 0.0727099 23.2203C2.52145 28.3218 5.17426 33.3086 7.72503 38.3208C7.85257 38.5504 8.46476 38.3208 8.57954 38.3208C13.1709 36.3822 18.6679 37.9637 23.4633 38.0147C24.6104 37.7908 25.6409 37.1672 26.3712 36.2547C26.5395 36.3817 26.7367 36.4649 26.9451 36.497C27.513 36.5111 28.0734 36.3656 28.5626 36.077C29.0519 35.7884 29.4503 35.3683 29.7127 34.8645C30.0752 34.1552 30.5022 33.4807 30.9881 32.8494C31.5875 32.0459 32.2635 31.2807 32.9267 30.5282C34.3551 28.9595 35.8728 27.48 37.3523 25.9751C39.5459 23.7432 42.1477 21.1669 43.3721 18.157C44.1118 17.4428 44.7113 16.5372 44.1246 15.67ZM6.33486 4.65062H6.44965C9.20148 3.90923 12.0221 3.45195 14.8672 3.28596C17.5867 3.03479 20.3262 3.10328 23.0297 3.49002C22.3665 6.04079 21.4737 8.43852 20.6064 10.8745C20.058 12.4305 19.4841 13.9737 18.8464 15.5042C18.6168 16.0271 18.3873 16.5372 18.1449 17.0474L18.0557 17.2004C17.9154 17.3407 17.7878 17.4938 17.6731 17.6341C17.4954 17.855 17.3494 18.0997 17.2394 18.361C17.0539 18.3596 16.8691 18.3854 16.691 18.4376C16.3439 18.5602 16.0204 18.7414 15.7345 18.9732C15.3774 18.9732 15.0202 18.9732 14.6504 18.9732C14.1222 18.9777 13.5942 18.9522 13.0689 18.8967L10.9645 18.7181C8.98766 18.5268 6.92154 18.1952 4.90643 18.1825C4.64449 16.1034 4.69608 13.9968 5.05947 11.9331C5.40383 9.5226 5.93949 7.09936 6.33486 4.65062ZM27.6338 32.0332C27.6338 32.0332 27.6338 32.0332 27.5701 31.9567H27.6593L27.6338 32.0332ZM11.1303 35.1196C8.9239 30.8343 6.73023 26.549 4.6386 22.1999L5.91398 22.302C7.57199 22.4678 9.21723 22.6463 10.8752 22.7739C12.2806 22.9419 13.6997 22.9633 15.1095 22.8376C16.1702 22.7025 17.1588 22.2283 17.9281 21.4857C18.0812 21.8173 18.2342 22.1617 18.3745 22.506L20.0198 26.5107C21.005 29.1296 22.1507 31.6852 23.4506 34.1631C23.5526 34.3416 23.6674 34.5202 23.7822 34.6987C19.5479 34.3926 15.1733 33.7039 11.1303 35.1196ZM26.6773 31.9184H26.7793H26.8558C26.7964 31.9132 26.7367 31.9132 26.6773 31.9184V31.9184ZM17.9281 17.5193C17.8644 17.6341 17.7241 17.7744 17.9281 17.5193V17.5193ZM38.092 20.593C36.7977 22.1718 35.4137 23.6749 33.947 25.0951C31.6892 27.2046 29.6076 29.4952 27.7231 31.9439H27.5573C27.468 31.8036 27.3532 31.6888 27.2767 31.5613C27.2002 31.4337 27.0089 31.1021 26.8941 30.8726L26.7028 30.5155L26.6008 30.3114C25.861 28.7682 25.1978 27.1995 24.5346 25.618C23.374 22.8376 22.3665 19.917 20.9508 17.2387C20.9139 17.1774 20.8639 17.125 20.8044 17.0853C20.7448 17.0456 20.6772 17.0196 20.6064 17.0091L20.683 16.9198C21.1067 16.3399 21.4659 15.7155 21.7543 15.0578C22.4748 13.5224 23.1175 11.9516 23.6801 10.3516C24.4071 8.40026 25.1341 6.41065 25.7845 4.4083C28.6955 5.97438 31.2903 8.0675 33.4368 10.5812C34.9163 12.1116 36.3065 13.7314 37.6711 15.3639L39.3929 17.4428L39.7117 17.8509C39.3152 18.8507 38.7549 19.7774 38.0537 20.593H38.092Z" fill="white"/>
</svg>
