<svg width="225" height="225" viewBox="0 0 225 225" fill="none" xmlns="http://www.w3.org/2000/svg">
<path d="M112.495 0V225" stroke="white" stroke-width="1.01046" stroke-miterlimit="10"/>
<path d="M106.614 0.15155L118.386 224.838" stroke="white" stroke-width="1.01046" stroke-miterlimit="10"/>
<path d="M100.743 0.616394L124.257 224.384" stroke="white" stroke-width="1.01046" stroke-miterlimit="10"/>
<path d="M94.9027 1.38434L130.097 223.606" stroke="white" stroke-width="1.01046" stroke-miterlimit="10"/>
<path d="M89.1128 2.45544L135.887 222.534" stroke="white" stroke-width="1.01046" stroke-miterlimit="10"/>
<path d="M83.3834 3.82971L141.616 221.16" stroke="white" stroke-width="1.01046" stroke-miterlimit="10"/>
<path d="M77.735 5.50708L147.265 219.493" stroke="white" stroke-width="1.01046" stroke-miterlimit="10"/>
<path d="M72.1775 7.46735L152.813 217.523" stroke="white" stroke-width="1.01046" stroke-miterlimit="10"/>
<path d="M66.7411 9.73083L158.259 215.269" stroke="white" stroke-width="1.01046" stroke-miterlimit="10"/>
<path d="M61.4261 12.257L163.574 212.733" stroke="white" stroke-width="1.01046" stroke-miterlimit="10"/>
<path d="M56.2524 15.0761L168.747 209.924" stroke="white" stroke-width="1.01046" stroke-miterlimit="10"/>
<path d="M51.2306 18.1479L173.77 206.842" stroke="white" stroke-width="1.01046" stroke-miterlimit="10"/>
<path d="M46.3702 21.4825L178.62 203.507" stroke="white" stroke-width="1.01046" stroke-miterlimit="10"/>
<path d="M41.7018 25.0696L183.298 199.92" stroke="white" stroke-width="1.01046" stroke-miterlimit="10"/>
<path d="M37.2255 28.8993L187.774 196.101" stroke="white" stroke-width="1.01046" stroke-miterlimit="10"/>
<path d="M32.9512 32.9512L192.049 192.049" stroke="white" stroke-width="1.01046" stroke-miterlimit="10"/>
<path d="M28.8993 37.2255L196.101 187.774" stroke="white" stroke-width="1.01046" stroke-miterlimit="10"/>
<path d="M25.0696 41.7019L199.92 183.298" stroke="white" stroke-width="1.01046" stroke-miterlimit="10"/>
<path d="M21.4824 46.3702L203.507 178.62" stroke="white" stroke-width="1.01046" stroke-miterlimit="10"/>
<path d="M18.1479 51.2305L206.842 173.769" stroke="white" stroke-width="1.01046" stroke-miterlimit="10"/>
<path d="M15.0762 56.2526L209.924 168.748" stroke="white" stroke-width="1.01046" stroke-miterlimit="10"/>
<path d="M12.257 61.4261L212.733 163.574" stroke="white" stroke-width="1.01046" stroke-miterlimit="10"/>
<path d="M9.73096 66.7411L215.269 158.259" stroke="white" stroke-width="1.01046" stroke-miterlimit="10"/>
<path d="M7.46729 72.1774L217.523 152.812" stroke="white" stroke-width="1.01046" stroke-miterlimit="10"/>
<path d="M5.50708 77.735L219.493 147.265" stroke="white" stroke-width="1.01046" stroke-miterlimit="10"/>
<path d="M3.82959 83.3835L221.16 141.617" stroke="white" stroke-width="1.01046" stroke-miterlimit="10"/>
<path d="M2.45557 89.1128L222.535 135.887" stroke="white" stroke-width="1.01046" stroke-miterlimit="10"/>
<path d="M1.38428 94.9028L223.606 130.097" stroke="white" stroke-width="1.01046" stroke-miterlimit="10"/>
<path d="M0.616211 100.743L224.383 124.257" stroke="white" stroke-width="1.01046" stroke-miterlimit="10"/>
<path d="M0.151611 106.614L224.838 118.386" stroke="white" stroke-width="1.01046" stroke-miterlimit="10"/>
<path d="M0 112.495H225" stroke="white" stroke-width="1.01046" stroke-miterlimit="10"/>
<path d="M0.151611 118.386L224.838 106.614" stroke="white" stroke-width="1.01046" stroke-miterlimit="10"/>
<path d="M0.616211 124.257L224.383 100.743" stroke="white" stroke-width="1.01046" stroke-miterlimit="10"/>
<path d="M1.38428 130.097L223.606 94.9028" stroke="white" stroke-width="1.01046" stroke-miterlimit="10"/>
<path d="M2.45557 135.887L222.535 89.1128" stroke="white" stroke-width="1.01046" stroke-miterlimit="10"/>
<path d="M3.82959 141.617L221.16 83.3835" stroke="white" stroke-width="1.01046" stroke-miterlimit="10"/>
<path d="M5.50708 147.265L219.493 77.735" stroke="white" stroke-width="1.01046" stroke-miterlimit="10"/>
<path d="M7.46729 152.812L217.523 72.1774" stroke="white" stroke-width="1.01046" stroke-miterlimit="10"/>
<path d="M9.73096 158.259L215.269 66.7411" stroke="white" stroke-width="1.01046" stroke-miterlimit="10"/>
<path d="M12.257 163.574L212.733 61.4261" stroke="white" stroke-width="1.01046" stroke-miterlimit="10"/>
<path d="M15.0762 168.748L209.924 56.2526" stroke="white" stroke-width="1.01046" stroke-miterlimit="10"/>
<path d="M18.1479 173.769L206.842 51.2305" stroke="white" stroke-width="1.01046" stroke-miterlimit="10"/>
<path d="M21.4824 178.62L203.507 46.3702" stroke="white" stroke-width="1.01046" stroke-miterlimit="10"/>
<path d="M25.0696 183.298L199.92 41.7019" stroke="white" stroke-width="1.01046" stroke-miterlimit="10"/>
<path d="M28.8993 187.774L196.101 37.2255" stroke="white" stroke-width="1.01046" stroke-miterlimit="10"/>
<path d="M32.9512 192.049L192.049 32.9512" stroke="white" stroke-width="1.01046" stroke-miterlimit="10"/>
<path d="M37.2255 196.101L187.774 28.8993" stroke="white" stroke-width="1.01046" stroke-miterlimit="10"/>
<path d="M41.7018 199.92L183.298 25.0696" stroke="white" stroke-width="1.01046" stroke-miterlimit="10"/>
<path d="M46.3702 203.507L178.62 21.4825" stroke="white" stroke-width="1.01046" stroke-miterlimit="10"/>
<path d="M51.2306 206.842L173.77 18.1479" stroke="white" stroke-width="1.01046" stroke-miterlimit="10"/>
<path d="M56.2524 209.924L168.747 15.0761" stroke="white" stroke-width="1.01046" stroke-miterlimit="10"/>
<path d="M61.4261 212.733L163.574 12.257" stroke="white" stroke-width="1.01046" stroke-miterlimit="10"/>
<path d="M66.7411 215.269L158.259 9.73083" stroke="white" stroke-width="1.01046" stroke-miterlimit="10"/>
<path d="M72.1775 217.523L152.813 7.46735" stroke="white" stroke-width="1.01046" stroke-miterlimit="10"/>
<path d="M77.735 219.493L147.265 5.50708" stroke="white" stroke-width="1.01046" stroke-miterlimit="10"/>
<path d="M83.3834 221.16L141.616 3.82971" stroke="white" stroke-width="1.01046" stroke-miterlimit="10"/>
<path d="M89.1128 222.534L135.887 2.45544" stroke="white" stroke-width="1.01046" stroke-miterlimit="10"/>
<path d="M94.9027 223.606L130.097 1.38434" stroke="white" stroke-width="1.01046" stroke-miterlimit="10"/>
<path d="M100.743 224.384L124.257 0.616394" stroke="white" stroke-width="1.01046" stroke-miterlimit="10"/>
<path d="M106.614 224.838L118.386 0.15155" stroke="white" stroke-width="1.01046" stroke-miterlimit="10"/>
</svg>
