<?xml version="1.0" encoding="utf-8"?>
<!-- Generator: Adobe Illustrator 25.0.1, SVG Export Plug-In . SVG Version: 6.00 Build 0)  -->
<svg version="1.1" id="Layer_2" xmlns="http://www.w3.org/2000/svg" xmlns:xlink="http://www.w3.org/1999/xlink" x="0px" y="0px"
	 viewBox="0 0 1440 487" style="enable-background:new 0 0 1440 487;" xml:space="preserve">
<style type="text/css">
	.st0{fill:#A6B2D5;}
</style>
<path class="st0" d="M0,86v401h1440V64c0,0-46.2-24.4-77.8-13.8c-28,8.9-48.9,16.4-76,11.1c-27.1-5.3-48-2.7-48-2.7
	s-37.3-6.7-50.7-6.2c-13.3,0.4-53.8-9.8-99.6,10.7c-16.4-4-52.4-7.6-62.7-3.1c-10.2,4.4-81.3,23.1-81.3,23.1s-24.9,14.2-64.4-12.4
	c-34.7-26.2-56-36-72.4-32.9c-10.7-3.6-16.4-13.3-18.7-15.6s-9.8-16-32.4-8.4c-23.6,7.1-23.6,1.8-36,6.2s-43.6,25.8-43.6,25.8
	s-12.4-2.7-16.9-2.2c-4.4,0.4-13.8,8-13.8,8s-47.6-13.8-85.8,3.1c-14.2,0.4-48-7.6-52.4-11.1c-4.4-3.6-20.4-17.3-36.4-16.4
	s-24.4-4-28.4-6.7s-16.4-13.8-27.6-8.9C403.6,7.1,376.4-7.1,328,7.1S216.4,67.6,196.4,71.6c-24.4,1.3-83.6,16.9-83.6,16.9
	s-16,5.3-29.8,4C69.3,91.1,0,86,0,86z"/>
</svg>
