<svg width="275" height="125" viewBox="0 0 275 125" fill="none" xmlns="http://www.w3.org/2000/svg">
<path d="M53.056 37.6811H52.736C52.576 37.7451 52.224 37.8091 52.064 37.8091C51.904 37.8411 51.584 37.8411 51.424 37.8411H50.976H50.496C50.208 37.8411 50.144 37.7451 50.144 37.4571V34.3851C50.72 34.3211 51.008 34.0331 51.072 33.6171L46.752 33.2651V38.2251C46.752 40.2411 46.976 40.9771 49.28 40.9771H50.464C53.056 40.9771 54.24 40.3371 54.24 39.0571C54.24 38.4171 53.984 38.1291 53.216 37.7451L53.056 37.6811ZM33.248 29.1691C28.672 34.8331 28.672 34.8331 27.936 35.6651C27.488 36.1451 27.392 36.1451 26.784 36.1451H25.216V36.6891C25.824 36.7531 26.176 36.8811 26.624 37.1051C27.264 37.4571 27.36 38.9931 27.04 41.0091C27.264 41.7771 28 42.2251 28.736 42.2251C30.72 42.2251 31.648 41.3611 31.712 40.3371C31.808 38.5771 30.528 38.0011 30.496 37.0091C30.496 36.4651 30.72 35.6971 30.976 35.0571C31.264 34.2571 32.928 30.9291 33.664 29.3291L33.248 29.1691ZM26.688 25.0411C27.744 25.9371 29.12 27.5371 29.664 28.9451C33.184 30.5131 35.104 24.0811 26.912 24.8491L26.688 25.0411ZM24.416 28.7211C25.408 29.6811 26.496 31.3131 26.816 32.7851C30.112 34.7691 32.704 28.5611 24.672 28.5291L24.416 28.7211ZM37.056 48.6891V52.9451H33.824C36 52.5931 37.184 49.5211 31.84 48.6891H37.056ZM43.488 48.6891C43.264 49.9691 42.88 51.6651 42.496 52.9451H41.376V48.6891H43.488ZM47.808 52.9451H43.648C45.024 52.1771 46.432 51.2491 47.36 50.5771C48.096 50.6091 48.448 50.3531 48.576 49.9691L44.192 48.6891H49.536C49.984 48.6891 50.304 48.5291 50.4 48.1771C49.152 47.1531 47.168 45.7451 47.168 45.7451L45.44 47.7931H41.376V46.0331H43.776C44.224 46.0331 44.544 45.8731 44.608 45.5211C43.488 44.5931 41.76 43.3771 41.76 43.3771L40.192 45.1371H33.696L33.952 46.0331H37.056V47.7931H28.448L28.704 48.6891H30.912L30.848 48.7211C31.296 49.5531 31.648 50.8971 31.488 52.1451C31.968 52.6251 32.512 52.8491 33.024 52.9451H25.152L25.408 53.8411H52.8C53.248 53.8411 53.6 53.6811 53.696 53.3291C52.256 52.1131 49.888 50.3851 49.888 50.3851L47.808 52.9451ZM37.92 38.9291C39.296 37.7131 39.68 36.3691 39.744 35.2811V34.7051C40.448 34.6411 40.704 34.2891 40.736 33.9051L37.408 33.6171L37.504 33.4571C41.952 32.6251 45.92 31.6971 48.704 31.0571C49.12 31.7291 49.472 32.4331 49.696 33.0731C52.864 34.8011 55.04 28.9451 47.2 28.6251L46.912 28.8171C47.328 29.2331 47.744 29.7451 48.192 30.3211C44.416 30.4491 40.864 30.5771 38.4 30.6091C39.584 29.9691 40.864 29.2331 42.016 28.4331H52.352C52.8 28.4331 53.152 28.2731 53.248 27.9211C51.808 26.7371 49.504 25.1051 49.504 25.1051L47.456 27.5371H43.232C43.776 27.1211 44.256 26.7051 44.672 26.3211C45.344 26.3531 45.696 26.0651 45.824 25.7131L40.736 24.1451C40.384 25.0411 39.616 26.3211 38.72 27.5371H33.312L33.568 28.4331H38.016C37.312 29.2651 36.576 29.9691 35.904 30.3531C35.584 30.5451 35.04 30.6731 35.04 30.6731L36.288 33.5211L35.648 33.4571V35.1851C35.648 37.0091 35.2 39.3771 32.032 41.1051L32.224 41.3931C33.44 41.1371 34.464 40.8491 35.296 40.4971C32.736 42.9931 28.544 45.5211 24.352 46.9931L24.448 47.3451C31.008 46.3851 37.28 43.5051 40.224 41.3931C43.072 44.1451 47.552 45.9371 52.64 46.7371C52.768 45.2331 53.376 43.3771 54.912 42.7691V42.2251C49.408 42.6091 44.064 42.1291 40.64 41.0731C41.824 40.9451 42.176 40.7531 42.272 40.3371L37.92 38.9291ZM41.856 39.7611C43.296 39.7611 45.056 39.2171 45.056 38.9931V34.6411C45.728 34.5451 45.92 34.2571 45.984 33.9371L41.152 33.5211V39.7611H41.856Z" fill="white"/>
<path d="M87.712 33.3291C83.2 32.3691 76.992 30.6731 74.048 26.7371C75.232 26.6091 75.68 26.4171 75.808 25.9371L68.864 24.1131C67.68 28.7851 61.952 35.7611 56.48 39.5371L56.672 39.8571C59.168 38.9291 61.76 37.5851 64.192 35.9851L64.416 36.7851H69.088V41.3611H59.008L59.264 42.2571H69.088V52.4971H57.376L57.632 53.3931H85.824C86.304 53.3931 86.688 53.2331 86.784 52.8811C85.056 51.3771 82.144 49.1691 82.144 49.1691L79.584 52.4971H73.92V42.2571H84.288C84.768 42.2571 85.12 42.0971 85.216 41.7451C83.648 40.3691 80.992 38.3211 80.992 38.3211L78.688 41.3611H73.92V36.7851H78.624C79.072 36.7851 79.424 36.6251 79.52 36.2731C78.048 34.9931 75.648 33.1691 75.648 33.1691L73.504 35.8891H64.352C68.192 33.3611 71.584 30.2571 73.568 27.1211C75.328 32.5931 79.424 36.1131 83.936 38.5771C84.256 36.6891 85.6 34.4491 87.68 33.8411L87.712 33.3291ZM75.552 51.3771C77.568 50.0331 79.84 48.0171 81.728 45.9691C82.464 46.0011 82.912 45.7451 83.04 45.3291L77.088 43.2171C76.512 46.0011 75.744 49.2331 75.2 51.1531L75.552 51.3771ZM61.92 43.5691C62.592 45.4891 63.072 47.8251 62.912 50.1291C66.56 53.9371 71.648 46.7051 62.208 43.4411L61.92 43.5691Z" fill="white"/>
<path d="M102.72 41.6491C103.616 43.1851 104.384 45.3291 104.384 47.3771C108.192 50.7051 112.672 43.3451 102.976 41.4891L102.72 41.6491ZM94.432 46.1291V37.6491H96.96V46.1291H94.432ZM96.96 28.6891V36.7531H94.432V28.6891H96.96ZM107.36 29.9691V35.1211H102.528L102.784 36.0171H117.792C118.272 36.0171 118.624 35.8571 118.72 35.5051C117.248 34.1291 114.72 32.0811 114.72 32.0811L112.48 35.1211H111.84V29.9691H118.72C119.2 29.9691 119.552 29.8091 119.616 29.4571C118.24 28.1451 115.872 26.2251 115.872 26.2251L113.76 29.0731H111.84V25.8731C112.736 25.7451 112.96 25.4251 112.992 24.9771L107.36 24.5291V29.0731H101.888C102.112 28.9451 102.272 28.8171 102.368 28.6891L98.56 25.6811L96.64 27.7931H94.88L90.368 25.8411V51.1851H91.104C93.184 51.1851 94.432 50.2251 94.432 49.9371V47.0251H96.96V49.5851H97.632C99.072 49.5851 101.056 48.7211 101.088 48.4331V29.9691H107.36ZM115.456 39.9531V37.5851C116.16 37.4891 116.48 37.2331 116.544 36.7531L110.976 36.2731V40.0491H101.088L101.344 40.9451H110.976V49.2651C110.976 49.6171 110.816 49.7771 110.368 49.7771C109.664 49.7771 106.08 49.5531 106.08 49.5531V49.9691C107.808 50.2891 108.48 50.7691 109.024 51.4411C109.6 52.1451 109.76 53.1691 109.856 54.6091C114.784 54.1611 115.456 52.5291 115.456 49.5211V40.9451H119.584C120.032 40.9451 120.384 40.7851 120.448 40.4331C119.296 39.1851 117.216 37.2971 117.216 37.2971L115.456 39.9531Z" fill="white"/>
<path d="M143.552 24.8811C142.72 27.6011 141.632 30.7051 140.8 32.5611L141.152 32.7851C143.36 31.6011 145.856 29.8411 147.968 27.9851C148.704 28.0491 149.152 27.8251 149.344 27.4411L143.552 24.8811ZM125.728 25.3291C127.168 27.0891 128.544 29.6491 128.928 32.0491C133.216 35.1211 136.928 26.7371 125.984 25.1691L125.728 25.3291ZM135.168 44.7851V39.2171H139.072V44.7851H135.168ZM143.232 39.8891C143.904 39.7611 144.32 39.4731 144.512 39.2171L140.64 36.2731L138.752 38.3211H135.296L131.072 36.6891V49.1051H131.648C133.376 49.1051 135.168 48.2091 135.168 47.8251V45.6811H139.072V48.3051H139.776C141.184 48.3051 143.2 47.4731 143.232 47.1851V39.8891ZM147.488 31.1531L145.44 33.4251H139.392V25.4891C140.288 25.3611 140.48 25.0411 140.544 24.5931L134.752 24.1451V33.4251H128.896L124 31.5051V54.6731H124.704C126.624 54.6731 128.544 53.6171 128.544 53.1051V34.3211H145.76V49.2331C145.76 49.6171 145.632 49.8731 145.12 49.8731C144.224 49.8731 140.928 49.6491 140.928 49.6491V50.0651C142.688 50.3531 143.328 50.8651 143.872 51.5051C144.416 52.1771 144.576 53.1691 144.704 54.6091C149.696 54.1931 150.4 52.5611 150.4 49.6811V35.0571C151.072 34.9291 151.456 34.6411 151.68 34.3851L147.488 31.1531Z" fill="white"/>
<path d="M165.952 24.4651C167.36 25.9691 168.64 28.3051 169.024 30.5131C173.536 33.5851 177.344 24.8171 166.144 24.3051L165.952 24.4651ZM174.272 32.5611C173.76 36.7531 172.448 40.5931 170.016 43.9531C166.496 41.2651 163.776 37.6171 162.368 32.5611H174.272ZM183.808 32.5611C184.288 32.5611 184.64 32.4011 184.736 32.0491C183.072 30.4811 180.16 28.1451 180.16 28.1451L177.568 31.6651H155.072L155.328 32.5611H161.824C162.912 38.6731 164.96 43.1851 167.776 46.6091C164.704 49.7451 160.448 52.3371 154.752 54.2571L154.88 54.5771C161.312 53.4891 166.272 51.5691 170.016 48.9131C172.864 51.4731 176.32 53.2651 180.288 54.6411C181.12 52.3051 182.752 50.8331 185.088 50.4811L185.184 50.0971C180.96 49.2651 176.896 48.0171 173.344 46.0971C176.896 42.4171 178.912 37.8411 179.872 32.5611H183.808Z" fill="white"/>
<path d="M187.52 42.0651C189.088 41.0411 190.56 39.8891 191.904 38.5771V54.6091H192.768C194.592 54.6091 196.48 53.6491 196.544 53.2971V34.6411C197.184 34.5131 197.44 34.2891 197.536 34.0011L196.032 33.4571C197.28 31.5051 198.4 29.2971 199.392 26.8331C200.16 26.8651 200.576 26.5771 200.704 26.1611L194.304 24.1771C192.992 30.8331 190.08 37.6171 187.2 41.8411L187.52 42.0651ZM216.32 44.4971H216C215.264 46.5771 214.592 48.1771 214.112 48.8171C213.792 49.1691 213.376 49.2651 212.928 49.2971C212.352 49.3611 211.392 49.3611 210.304 49.3611H206.912C205.6 49.3611 205.12 49.1051 205.12 48.1771V36.7211H216.256C216.736 36.7211 217.056 36.5611 217.152 36.2091C215.84 34.8971 213.536 32.9451 213.536 32.9451L211.52 35.8251H205.12V26.2571C205.952 26.1611 206.24 25.7771 206.272 25.3611L200.768 24.7851V49.3931C200.768 52.8171 202.272 53.5211 206.24 53.5211H209.888C216.384 53.5211 218.176 52.7851 218.176 50.8011C218.176 50.0011 217.76 49.4891 216.448 48.9451L216.32 44.4971Z" fill="white"/>
<path d="M243.36 29.1051H236.512C238.752 27.9531 238.848 23.6971 231.456 24.0171L231.264 24.1771C232.352 25.2331 233.312 27.0571 233.504 28.7851C233.696 28.9131 233.888 29.0091 234.08 29.1051H220.256L220.512 30.0011H249.184C249.664 30.0011 250.016 29.8411 250.112 29.4891C248.544 27.9851 245.792 25.7451 245.792 25.7451L243.36 29.1051ZM228.992 39.0571C229.6 38.9291 229.888 38.7051 229.984 38.4171L227.744 37.5851C228.896 36.1771 229.984 34.6091 230.976 32.8171C231.712 32.8811 232.16 32.6571 232.32 32.2411L226.656 30.0011C225.216 35.1531 222.528 40.2731 220.032 43.4091L220.352 43.6651C221.76 42.8971 223.104 41.9691 224.384 40.9131V54.6091H225.248C227.008 54.6091 228.928 53.7771 228.992 53.4571V39.0571ZM243.104 35.5371C242.4 39.0891 241.152 42.4171 239.296 45.3291C237.408 43.9851 235.968 42.2571 234.944 40.1771C235.424 39.5371 235.872 38.8971 236.32 38.2251C236.736 39.3131 237.056 40.6571 236.992 41.9051C239.968 44.7211 244.064 39.2491 236.864 37.3291C237.184 36.7531 237.536 36.1451 237.824 35.5371H243.104ZM245.216 32.2731L242.848 34.6411H238.272C238.56 33.9691 238.848 33.2971 239.136 32.5931C239.872 32.5931 240.288 32.3371 240.416 31.9211L234.496 30.1931C233.632 35.5691 231.68 41.1371 229.632 44.7211L229.984 44.9451C231.616 43.7931 233.12 42.3851 234.464 40.7531C235.264 43.4091 236.224 45.7451 237.568 47.6971C235.36 50.3851 232.48 52.6571 228.832 54.3211L229.056 54.6731C233.344 53.5851 236.736 51.9531 239.392 49.9051C241.344 51.9211 243.904 53.4571 247.328 54.4811C247.68 52.0491 248.704 50.5131 250.912 49.7771L250.944 49.3931C247.648 48.9451 244.768 48.2091 242.4 47.1211C245.056 44.0811 246.72 40.4331 247.808 36.4011C248.608 36.3051 248.928 36.1771 249.152 35.8251L245.216 32.2731Z" fill="white"/>
<path d="M29.152 73.5371H32.704V80.2251H29.152V73.5371ZM33.056 88.0971H36.48C36.896 88.0971 37.216 87.9371 37.312 87.5851C36.384 86.4011 34.624 84.5451 34.624 84.5451L33.056 87.2011V82.2091H33.344C34.56 82.2091 36.416 81.5371 36.448 81.3131V74.0171C36.992 73.9211 37.376 73.6651 37.536 73.4731L34.08 70.8811L32.416 72.6411H29.6L25.472 70.8811V82.6891H26.144C28.032 82.6891 29.152 81.8891 29.152 81.6331V81.1851H29.344V94.4971L28.416 94.6571V85.7291C28.896 85.6331 29.024 85.4411 29.056 85.1851L25.248 84.8331V95.2011C24.768 95.2651 24.352 95.3291 24 95.3611L25.888 100.065C26.272 99.9691 26.624 99.6171 26.784 99.2011C32 96.7691 35.52 94.6891 37.952 93.1211L37.888 92.7691C36.288 93.1211 34.656 93.4731 33.056 93.7931V88.0971ZM47.328 90.6891H42.656C43.168 89.6011 43.776 88.1931 44.192 87.2331H51.616C52.064 87.2331 52.416 87.0731 52.512 86.7211C51.104 85.5371 48.864 83.9051 48.864 83.9051L46.88 86.3371H37.216L37.472 87.2331H39.456C39.168 88.0331 38.688 89.2491 38.24 90.1771C37.728 90.4011 37.248 90.7211 36.928 91.0091L40.928 93.3451L42.464 91.5851H47.552C47.296 94.1771 46.848 95.8411 46.304 96.2571C46.08 96.4171 45.824 96.4491 45.344 96.4491C44.704 96.4491 42.496 96.3531 41.12 96.2251V96.6091C42.496 96.8971 43.616 97.3451 44.192 97.9531C44.736 98.4971 44.864 99.4571 44.864 100.545C46.752 100.545 48 100.225 48.992 99.6171C50.56 98.6571 51.264 96.3531 51.68 92.2571C52.32 92.1611 52.704 91.9691 52.928 91.7131L49.376 88.8011L47.328 90.6891ZM53.76 76.3851C54.24 76.3851 54.592 76.2251 54.688 75.8731C53.12 74.4971 50.528 72.4811 50.528 72.4811L48.224 75.4891H44.768C45.184 74.5611 45.6 73.6011 45.984 72.5451C46.72 72.5771 47.136 72.2891 47.264 71.8731L41.376 70.2091C41.12 72.0331 40.736 73.7931 40.224 75.4891H36.928L37.184 76.3851H39.936C38.816 79.7131 37.28 82.6251 35.616 84.8331L35.968 85.0891C37.248 84.3531 38.432 83.5211 39.52 82.5611L39.712 83.2331H48.192C48.64 83.2331 48.992 83.0731 49.056 82.7211C47.84 81.5691 45.824 79.9371 45.824 79.9371L44 82.3371H39.776C41.536 80.7371 43.04 78.7851 44.32 76.3851H46.304C47.392 80.3531 49.152 83.0731 52.224 84.8331C52.64 82.7211 53.696 81.3771 55.2 80.9611L55.232 80.6091C52.096 80.0331 48.832 78.5611 47.04 76.3851H53.76Z" fill="white"/>
<path d="M65.344 78.4331H69.632V82.9771H65.344V78.4331ZM69.632 73.1851V77.5371H65.344V73.1851H69.632ZM78.72 73.1851V77.5371H74.112V73.1851H78.72ZM74.112 82.9771V78.4331H78.72V82.9771H74.112ZM78.72 83.8731V85.2171H79.52C81.024 85.2171 83.328 84.4171 83.36 84.1611V73.9211C84.032 73.7931 84.416 73.4731 84.608 73.2171L80.416 70.0491L78.4 72.2891H65.664L60.8 70.4331V85.6651H61.472C63.36 85.6651 65.344 84.6411 65.344 84.1931V83.8731H66.528C64.576 87.0091 61.184 89.7291 56.704 91.4251L56.896 91.8091C60 91.2331 62.784 90.4011 65.152 89.3451V91.3931C65.152 94.6571 64.096 98.0491 57.504 100.385L57.664 100.673C67.744 99.0731 69.6 95.2331 69.696 91.4571V88.7691C70.432 88.6731 70.688 88.3531 70.72 87.9371L68.16 87.7131C69.792 86.6251 71.168 85.3451 72.192 83.8731H74.592C75.168 85.2811 75.904 86.4651 76.768 87.4891L74.368 87.2971V100.609H75.264C76.8 100.609 78.912 99.7771 78.912 99.4891V89.5691C80.352 90.6571 82.048 91.5531 83.936 92.2891C84.352 90.0811 85.44 88.5771 87.104 88.0651L87.136 87.6811C82.88 87.3291 78.048 86.3371 75.424 83.8731H78.72Z" fill="white"/>
<path d="M105.952 93.6011H108.992V97.5371H105.952V93.6011ZM108.992 84.0651V87.9051H105.952V84.0651H108.992ZM108.992 92.7051H105.952V88.8011H108.992V92.7051ZM114.016 97.5371H113.056V93.6011H117.984C118.432 93.6011 118.752 93.4411 118.848 93.0891C117.536 91.8731 115.328 90.1131 115.328 90.1131L113.376 92.7051H113.056V88.8011H117.856C118.304 88.8011 118.656 88.6411 118.72 88.2891C117.408 87.0731 115.232 85.3131 115.232 85.3131L113.28 87.9051H113.056V84.0651H118.464C118.912 84.0651 119.264 83.9051 119.328 83.5531C117.952 82.2731 115.616 80.4171 115.616 80.4171L113.536 83.1691H106.4L106.208 83.1051C106.656 82.5611 107.04 81.9851 107.392 81.4731C108.192 81.5371 108.48 81.3131 108.64 80.9611L104.64 79.0091L105.504 77.9211H114.112V79.3291H114.752C116.416 79.3291 118.336 78.6891 118.336 78.4011V73.0891C119.232 72.9611 119.456 72.6411 119.52 72.1931L114.112 71.7771V77.0251H111.808V71.5531C112.672 71.4251 112.928 71.1051 112.96 70.6571L107.68 70.2411V77.0251H105.344V73.0251C106.144 72.8651 106.432 72.6091 106.496 72.2571L101.216 71.7451V73.7931C99.808 72.5131 97.664 70.7531 97.664 70.7531L95.616 73.6011H89.248L89.504 74.4971H92.576V82.8491H89.568L89.824 83.7451H92.576V92.7371C91.04 93.1211 89.76 93.4091 88.992 93.5691L91.296 98.6571C91.712 98.4971 92.032 98.1451 92.16 97.6971C96.544 94.6891 99.456 92.3211 101.248 90.6891L101.152 90.4331C99.744 90.8491 98.304 91.2331 96.928 91.5851V83.7451H100.128C100.544 83.7451 100.864 83.5851 100.928 83.2331C100.064 82.0811 98.336 80.2571 98.336 80.2571L96.928 82.6891V74.4971H100.512C100.8 74.4971 101.056 74.4331 101.216 74.2731V76.5771C100.8 76.8971 100.416 77.2811 100.16 77.6011L103.328 78.9451C102.432 82.1771 100.416 86.8171 98.016 89.8891L98.304 90.2091C99.52 89.5051 100.64 88.7051 101.696 87.8411V100.641H102.464C104.64 100.641 105.952 99.7131 105.952 99.4251V98.4331H119.104C119.584 98.4331 119.936 98.2731 120 97.9211C118.592 96.5771 116.16 94.6251 116.16 94.6251L114.016 97.5371ZM108.16 78.2731C108.768 79.2971 109.312 80.8331 109.28 82.3371C112.832 85.3771 117.472 78.7851 108.384 78.1451L108.16 78.2731Z" fill="white"/>
<path d="M143.872 92.8971C145.312 94.4971 147.072 96.8971 147.84 99.0411C151.936 101.377 154.656 93.6011 144.128 92.7051L143.872 92.8971ZM138.688 77.6971C138.272 78.7851 137.824 79.8091 137.28 80.7371C137.12 80.0971 136.416 79.5211 134.88 79.5211C135.36 78.9131 135.776 78.3051 136.128 77.6971H138.688ZM148.8 71.2971L146.656 73.4411H143.52C142.528 72.4171 141.12 71.1371 141.12 71.1371L139.616 73.4091H139.36V71.2971C139.936 71.2011 140.128 70.9771 140.16 70.6251L135.776 70.2411V75.4891L132.992 74.6251C132.704 76.6411 132.128 78.9451 131.392 80.8651L131.008 80.4491L129.6 82.8491H129.504V74.4971H132.928C133.408 74.4971 133.728 74.3371 133.824 73.9851C132.448 72.6731 130.112 70.7531 130.112 70.7531L128.032 73.6011H121.984L122.24 74.4971H125.152V82.8491H122.208L122.464 83.7451H125.152V92.6731C123.712 93.0891 122.528 93.4091 121.792 93.5691L124.224 98.5611C124.64 98.4331 124.96 98.0491 125.056 97.6011C128 95.3291 130.208 93.4091 131.776 91.9051H139.296V93.9531L134.72 91.9691C133.856 94.9451 132.416 97.8251 131.008 99.5851L131.328 99.8731C133.888 98.8491 136.416 97.1211 138.336 94.6571C138.752 94.7211 139.072 94.6571 139.296 94.5291V100.577H140.096C141.664 100.577 143.456 100.001 143.456 99.7451V91.9051H151.424C151.872 91.9051 152.192 91.7451 152.288 91.3931C151.008 90.2731 148.928 88.6411 148.928 88.6411L147.072 91.0091H143.456V85.7611C144.224 85.6331 144.416 85.3451 144.48 84.9611L139.296 84.4811V91.0091H132.672L133.088 90.5931L133.024 90.3371C131.84 90.7211 130.656 91.0731 129.504 91.4251V83.7451H132.64C133.088 83.7451 133.376 83.5851 133.472 83.2331C133.184 82.8491 132.8 82.4331 132.448 82.0171C132.928 81.6011 133.376 81.1851 133.792 80.7371C134.208 81.2171 134.528 81.7931 134.688 82.3051C135.2 82.5611 135.68 82.5931 136.096 82.4651C134.592 84.3851 132.672 85.9211 130.208 87.1371L130.432 87.5851C131.68 87.2971 132.832 86.9771 133.856 86.5931C134.528 87.5531 135.104 88.8651 135.232 90.0491C138.304 92.1931 141.312 87.0411 135.328 85.9851C138.976 84.2251 141.152 81.6331 142.72 78.2411C143.424 78.1771 143.872 78.0491 144.096 77.7611L140.48 74.9451L139.36 76.1291V74.3051H143.008C143.136 74.3051 143.232 74.3051 143.328 74.2731L143.36 74.3371H146.816C146.624 75.1051 146.4 75.8731 146.112 76.5771C145.024 76.0651 143.712 75.6171 142.24 75.2011L141.92 75.4251C142.912 76.3851 144 77.5371 145.056 78.7851C143.776 80.8971 141.92 82.6571 139.392 83.9371L139.584 84.3531C142.528 83.6171 144.928 82.4971 146.816 81.0251C147.776 82.2731 148.576 83.5531 149.152 84.7371C152.32 86.4651 154.24 82.2411 149.376 78.4971C150.208 77.3771 150.88 76.1611 151.36 74.8491C152.032 74.7851 152.32 74.6891 152.512 74.3691L148.8 71.2971ZM144.352 90.5931C146.208 89.7291 148.416 88.4171 149.504 87.6171C150.176 87.7451 150.592 87.4571 150.72 87.1691L145.984 84.9611C145.664 86.2411 144.832 88.8011 144.128 90.4331L144.352 90.5931Z" fill="white"/>
<path d="M155.2 72.8651C155.744 74.9131 156.192 77.6971 156 80.0651C158.528 82.9451 161.984 77.3451 155.616 72.7371L155.2 72.8651ZM167.712 91.4571C166.848 91.9051 166.016 92.3531 165.184 92.7691V83.3931H167.776C168.224 83.3931 168.544 83.2331 168.64 82.8811C167.36 81.7611 165.248 80.2251 165.248 80.2251L163.392 82.4971H163.008V80.9931L163.296 81.1211C164.896 79.1371 166.592 76.4171 167.424 74.8491C167.616 74.8491 167.776 74.8491 167.936 74.7851C168.352 75.2971 168.672 75.8731 168.864 76.3211C171.008 77.6011 172.256 72.9291 167.04 73.4091L166.88 73.6331L164.224 72.8011C164.064 74.6251 163.52 78.3371 163.008 80.8331V71.4571C163.648 71.3291 163.872 71.0731 163.904 70.7211L159.328 70.3051V82.4971H154.656L154.912 83.3931H157.088C157.056 89.2171 157.152 95.1371 154.72 100.097L155.168 100.545C159.808 96.0971 160.416 89.8571 160.544 83.3931H161.824V93.1531C161.824 93.7931 161.664 94.0491 160.608 94.8491L163.488 98.2091C163.744 97.9531 164.032 97.5691 164.224 97.0571C165.888 94.8811 167.296 92.7691 167.872 91.7771L167.712 91.4571ZM175.904 73.7931C176.896 74.3691 177.536 75.4571 177.856 76.1611C180 77.4411 181.248 72.7691 176.128 73.4411L175.904 73.7931ZM175.072 73.6011C175.712 73.4731 176.16 73.2171 176.352 72.9611H180.352V76.5451C178.144 77.0251 176.096 77.4411 175.072 77.6011V73.6011ZM172.672 85.5371L172 85.2811C172.416 84.7371 172.768 84.1931 173.056 83.6811C173.824 83.6171 174.08 83.3611 174.176 83.0091L171.584 82.2731C173.024 82.1451 173.856 81.8891 174.368 81.5051C175.072 82.5931 175.296 84.1291 175.296 85.0891C175.456 85.2811 175.616 85.4091 175.776 85.5371H172.672ZM174.848 89.6651H172.256V86.4331H174.848V89.6651ZM174.848 93.7931H172.256V90.5611H174.848V93.7931ZM174.848 97.8251H172.256V94.6891H174.848V97.8251ZM178.592 80.7691C179.456 80.9291 179.68 81.2171 179.872 81.4731C180.096 81.7291 180.096 82.2411 180.128 82.9131C183.456 82.6571 183.904 81.8251 183.904 80.0651V73.5691C184.576 73.4731 185.024 73.1531 185.216 72.9291L181.632 70.2411L180.032 72.0651H175.52L175.616 72.3531L172.864 70.3051L171.296 72.0971H166.752L167.04 72.9931H171.616V76.7051C169.408 77.2171 167.296 77.6651 166.304 77.8571L167.808 80.9291C168.128 80.8011 168.384 80.5451 168.512 80.1291C169.728 79.2651 170.784 78.4971 171.616 77.8571V79.4571C171.616 79.7451 171.552 79.9371 171.168 79.9371C170.752 79.9371 169.856 79.8411 169.856 79.8411V80.2891C170.72 80.4171 170.944 80.6731 171.136 80.9291C171.36 81.1851 171.36 81.6331 171.392 82.2091L169.184 81.5691C168.704 84.0971 167.424 87.9371 165.728 90.4011L166.016 90.7211C166.848 90.2731 167.68 89.6971 168.448 89.0571V100.385H169.152C171.104 100.385 172.256 99.5211 172.256 99.2651V98.7211H184.16C184.608 98.7211 184.96 98.5611 185.056 98.2091C183.744 96.9931 181.504 95.2011 181.504 95.2011L179.552 97.8251H178.496V94.6891H182.752C183.2 94.6891 183.52 94.5291 183.616 94.1771C182.464 93.0891 180.512 91.5211 180.512 91.5211L178.784 93.7931H178.496V90.5611H182.688C183.136 90.5611 183.456 90.4011 183.552 90.0491C182.4 88.9611 180.448 87.3931 180.448 87.3931L178.72 89.6651H178.496V86.4331H183.52C184 86.4331 184.32 86.2731 184.416 85.9211C183.136 84.7371 180.96 83.0091 180.96 83.0091L179.072 85.5371H177.568C178.88 84.6731 179.168 82.1131 174.752 81.1211C175.008 80.7371 175.072 80.1931 175.072 79.5531V77.6651L176.48 80.7051C176.8 80.6091 177.088 80.3531 177.216 79.9371C178.464 79.0731 179.52 78.3371 180.352 77.6971V79.9691C180.352 80.2571 180.288 80.4491 179.904 80.4491C179.488 80.4491 178.592 80.3531 178.592 80.3531V80.7691Z" fill="white"/>
<path d="M210.848 77.7611V96.6731H204.864V72.1931C205.76 72.0651 205.984 71.7451 206.048 71.2651L199.872 70.7211V96.6731H194.016V79.2331C194.848 79.1051 195.104 78.7851 195.2 78.3051L189.12 77.7291V96.1291C188.672 96.4811 188.224 96.9291 187.904 97.3131L192.768 99.6171L194.176 97.5691H210.848V100.641H211.744C213.632 100.641 215.776 99.6171 215.776 99.2331V79.2331C216.672 79.1051 216.896 78.7531 216.96 78.3051L210.848 77.7611Z" fill="white"/>
<path d="M237.536 81.0251L235.584 82.9131H234.08V78.0811H240.032C240.096 79.9051 240.224 81.6651 240.384 83.3611L237.536 81.0251ZM234.08 83.8091H235.872C235.808 88.7691 235.648 91.0411 235.2 91.6171C235.072 91.7771 234.944 91.8091 234.72 91.8091C234.4 91.8091 233.696 91.7771 233.024 91.7451C233.952 89.0251 234.08 86.2731 234.08 83.8731V83.8091ZM227.136 80.1931H229.888V83.8731C229.888 85.1851 229.856 86.4971 229.76 87.8411C228.864 88.0971 228 88.3211 227.136 88.5771V80.1931ZM246.176 75.4571L244.832 77.1851H244.032C244.032 75.4891 244.064 73.7611 244.096 72.0971C244.256 72.0651 244.384 72.0651 244.512 72.0011C245.152 72.8651 245.888 74.2091 246.112 75.4251L246.176 75.4571ZM250.528 90.0811L250.208 90.0171C249.632 91.3931 248.864 92.9931 248.384 93.8251C248.064 94.3691 247.872 94.4011 247.552 93.8571C246.88 92.8651 246.304 91.7131 245.856 90.4971C247.168 88.3531 248.256 85.8891 249.216 83.0411C250.048 83.0731 250.368 82.8811 250.528 82.4651L245.664 80.8011C245.344 82.2731 244.96 83.6811 244.544 84.9611C244.224 82.7851 244.096 80.4491 244.064 78.0811H249.568C250.048 78.0811 250.368 77.9211 250.464 77.5691C249.824 76.9931 248.992 76.3211 248.288 75.7771C250.368 75.1371 250.88 71.6171 245.056 71.6811C245.184 71.5211 245.248 71.3611 245.248 71.2011L239.904 70.6571C239.904 72.8971 239.936 75.0731 240 77.1851H234.72L229.888 75.5211V78.1131C229.088 77.1851 228.352 76.3531 228.352 76.3531L227.136 78.5611V72.1291C228.032 72.0011 228.256 71.6811 228.32 71.2331L222.816 70.7531V79.2971H220.064L220.32 80.1931H222.816V89.6971C221.44 90.0491 220.288 90.3051 219.584 90.4651L221.728 95.5851C222.144 95.4571 222.496 95.0731 222.624 94.6251C225.728 92.3531 228.032 90.4331 229.664 88.9611C229.248 92.8971 228.128 96.8651 225.184 100.193L225.44 100.449C229.568 98.2411 231.744 95.2971 232.864 92.1931C233.6 92.4811 234.112 92.9291 234.4 93.3771C234.72 93.8571 234.816 94.7211 234.816 95.5531C236.096 95.5211 237.152 95.3291 237.984 94.6891C239.36 93.5691 239.616 90.8171 239.744 84.4491C240.032 84.4171 240.288 84.3211 240.48 84.2251C240.768 86.6891 241.184 89.0891 241.856 91.3291C239.872 94.8171 237.312 97.5051 234.016 99.7451L234.272 100.193C237.792 98.7211 240.608 96.8331 242.912 94.4011C243.392 95.5531 243.968 96.7051 244.608 97.7931C245.536 99.3291 248.128 101.313 250.144 100.065C250.88 99.5851 250.656 98.1451 249.76 95.8091L250.528 90.0811Z" fill="white"/>
<rect x="0.5" y="0.5" width="273.944" height="123.673" stroke="white"/>
</svg>
