<svg width="125" height="30" viewBox="0 0 125 30" fill="none" xmlns="http://www.w3.org/2000/svg">
<g clip-path="url(#clip0_375_640)">
<path d="M9.804 19.064H20.856L15.348 5.672L9.804 19.064ZM6.024 28.136H3L14.088 2.648H16.608L27.696 28.136H24.672L21.864 21.44H8.832L6.024 28.136Z" fill="white"/>
<path d="M33.7277 25.76H38.6957C39.6317 25.76 40.5077 25.664 41.3237 25.472C42.1397 25.28 42.8477 24.992 43.4477 24.608C44.0477 24.2 44.5157 23.696 44.8517 23.096C45.2117 22.496 45.3917 21.776 45.3917 20.936C45.3917 19.256 44.8517 18.008 43.7717 17.192C42.6917 16.376 41.1077 15.968 39.0197 15.968H33.7277V25.76ZM33.7277 13.808H38.9477C39.5717 13.808 40.1837 13.736 40.7837 13.592C41.4077 13.424 41.9597 13.16 42.4397 12.8C42.9437 12.44 43.3517 11.984 43.6637 11.432C43.9757 10.856 44.1317 10.16 44.1317 9.344C44.1317 9.08 44.0717 8.708 43.9517 8.228C43.8557 7.748 43.6157 7.268 43.2317 6.788C42.8717 6.308 42.3317 5.9 41.6117 5.564C40.8917 5.204 39.9197 5.024 38.6957 5.024H33.7277V13.808ZM31.1357 2.648H38.7317C39.7877 2.648 40.8077 2.756 41.7917 2.972C42.7757 3.188 43.6517 3.548 44.4197 4.052C45.1877 4.556 45.7997 5.216 46.2557 6.032C46.7117 6.848 46.9397 7.856 46.9397 9.056C46.9397 10.448 46.5437 11.648 45.7517 12.656C44.9837 13.64 43.8797 14.3 42.4397 14.636V14.708C44.2397 14.852 45.6437 15.488 46.6517 16.616C47.6837 17.72 48.1997 19.208 48.1997 21.08C48.1997 21.488 48.0917 22.088 47.8757 22.88C47.6837 23.672 47.2637 24.464 46.6157 25.256C45.9677 26.024 45.0317 26.696 43.8077 27.272C42.5837 27.848 40.9517 28.136 38.9117 28.136H31.1357V2.648Z" fill="white"/>
<path d="M75.8435 15.392C75.8435 13.928 75.6035 12.536 75.1235 11.216C74.6435 9.872 73.9475 8.696 73.0355 7.688C72.1475 6.68 71.0555 5.876 69.7595 5.276C68.4635 4.676 66.9995 4.376 65.3675 4.376C63.7355 4.376 62.2715 4.676 60.9755 5.276C59.6795 5.876 58.5755 6.68 57.6635 7.688C56.7755 8.696 56.0915 9.872 55.6115 11.216C55.1315 12.536 54.8915 13.928 54.8915 15.392C54.8915 16.856 55.1315 18.26 55.6115 19.604C56.0915 20.924 56.7755 22.088 57.6635 23.096C58.5755 24.104 59.6795 24.908 60.9755 25.508C62.2715 26.108 63.7355 26.408 65.3675 26.408C66.9995 26.408 68.4635 26.108 69.7595 25.508C71.0555 24.908 72.1475 24.104 73.0355 23.096C73.9475 22.088 74.6435 20.924 75.1235 19.604C75.6035 18.26 75.8435 16.856 75.8435 15.392ZM78.6515 15.392C78.6515 17.336 78.3155 19.124 77.6435 20.756C76.9715 22.388 76.0355 23.804 74.8355 25.004C73.6595 26.18 72.2555 27.104 70.6235 27.776C69.0155 28.448 67.2635 28.784 65.3675 28.784C63.4715 28.784 61.7075 28.448 60.0755 27.776C58.4675 27.104 57.0635 26.18 55.8635 25.004C54.6875 23.804 53.7635 22.388 53.0915 20.756C52.4195 19.124 52.0835 17.336 52.0835 15.392C52.0835 13.448 52.4195 11.66 53.0915 10.028C53.7635 8.396 54.6875 6.992 55.8635 5.816C57.0635 4.616 58.4675 3.68 60.0755 3.008C61.7075 2.336 63.4715 2 65.3675 2C67.2635 2 69.0155 2.336 70.6235 3.008C72.2555 3.68 73.6595 4.616 74.8355 5.816C76.0355 6.992 76.9715 8.396 77.6435 10.028C78.3155 11.66 78.6515 13.448 78.6515 15.392Z" fill="white"/>
<path d="M102.051 18.632C102.051 19.688 101.919 20.816 101.655 22.016C101.415 23.192 100.947 24.284 100.251 25.292C99.5549 26.3 98.5949 27.14 97.3709 27.812C96.1709 28.46 94.6229 28.784 92.7269 28.784C90.8069 28.784 89.2469 28.46 88.0469 27.812C86.8469 27.14 85.8989 26.3 85.2029 25.292C84.5069 24.284 84.0269 23.192 83.7629 22.016C83.5229 20.816 83.4029 19.688 83.4029 18.632V2.648H85.9949V18.344C85.9949 19.568 86.1149 20.624 86.3549 21.512C86.5949 22.376 86.9069 23.108 87.2909 23.708C87.6989 24.308 88.1429 24.788 88.6229 25.148C89.1269 25.484 89.6189 25.748 90.0989 25.94C90.6029 26.132 91.0829 26.264 91.5389 26.336C91.9949 26.384 92.3909 26.408 92.7269 26.408C93.0389 26.408 93.4229 26.384 93.8789 26.336C94.3589 26.264 94.8389 26.132 95.3189 25.94C95.8229 25.748 96.3149 25.484 96.7949 25.148C97.2989 24.788 97.7429 24.308 98.1269 23.708C98.5349 23.108 98.8589 22.376 99.0989 21.512C99.3389 20.624 99.4589 19.568 99.4589 18.344V2.648H102.051V18.632Z" fill="white"/>
<path d="M116.687 28.136H114.095V5.024H105.563V2.648H125.219V5.024H116.687V28.136Z" fill="white"/>
</g>
<defs>
<clipPath id="clip0_375_640">
<rect width="125" height="30" fill="white"/>
</clipPath>
</defs>
</svg>
