<svg width="59" height="64" viewBox="0 0 59 64" fill="none" xmlns="http://www.w3.org/2000/svg">
<path fill-rule="evenodd" clip-rule="evenodd" d="M6.99853 3C6.99853 4.65685 5.65538 6 3.99853 6C2.34167 6 0.998529 4.65685 0.998529 3C0.998529 1.34315 2.34167 0 3.99853 0C5.65538 0 6.99853 1.34315 6.99853 3ZM1.0002 14.702L1.0002 13.4H11.2622V14.702H1.0002ZM1.0002 20.0636L1.0002 18.7896H8.6022L8.6022 19.8256L7.4962 19.9516V19.9936C8.2102 20.7076 8.7842 21.4916 8.7842 22.5416C8.7842 24.1376 7.7482 24.8656 5.8162 24.8656H1.0002L1.0002 23.5776H5.6482C7.0762 23.5776 7.6782 23.1436 7.6782 22.1356C7.6782 21.3656 7.2722 20.8196 6.5162 20.0636H1.0002ZM0.8042 31.1145C0.8042 31.5905 0.944198 32.0945 1.0982 32.5145L2.0502 32.2625C1.9522 32.0245 1.8402 31.6745 1.8402 31.4085C1.8402 30.5265 2.3862 30.2325 3.3102 30.2325H7.5662V32.2905H8.6022V30.2325H10.7442V29.1545L8.6022 29.0145L8.5182 27.8245H7.5662V28.9585H3.3382C1.8262 28.9585 0.8042 29.4905 0.8042 31.1145ZM1.0002 36.6858L1.0002 35.4118H8.6022V36.4478L7.2162 36.5738V36.6158C8.1822 37.1338 8.7842 37.9178 8.7842 38.7718C8.7842 39.1078 8.7422 39.3318 8.6302 39.5838L7.5102 39.3458C7.5942 39.0798 7.6362 38.9118 7.6362 38.6038C7.6362 37.9738 7.1742 37.1898 5.8722 36.6858H1.0002ZM0.804199 45.0022C0.804199 46.8642 2.2742 48.5162 4.7802 48.5162C7.3282 48.5162 8.7842 46.8642 8.7842 45.0022C8.7842 43.1262 7.3282 41.4742 4.7802 41.4742C2.2742 41.4742 0.804199 43.1262 0.804199 45.0022ZM1.8682 45.0022C1.8682 43.6722 3.0442 42.7902 4.7802 42.7902C6.5442 42.7902 7.7202 43.6722 7.7202 45.0022C7.7202 46.3182 6.5442 47.2002 4.7802 47.2002C3.0442 47.2002 1.8682 46.3182 1.8682 45.0022ZM3.99999 62C5.65685 62 6.99999 60.6569 6.99999 59C6.99999 57.3431 5.65685 56 3.99999 56C2.34314 56 0.999994 57.3431 0.999994 59C0.999994 60.6569 2.34314 62 3.99999 62Z" fill="black"/>
<path d="M31.2723 32.056V38.28H32.3763V33.16H38.1043V38.2H39.2563V32.056H31.2723ZM38.6643 23.624C36.8883 24.264 33.6403 24.76 30.8563 25.064C31.0003 25.336 31.1603 25.8 31.2083 26.088C34.0723 25.816 37.4163 25.32 39.6083 24.568L38.6643 23.624ZM34.7283 25.016V32.696H35.8802V25.016H34.7283ZM30.1042 28.264V29.416H40.2963V28.264H30.1042ZM32.0243 36.488V37.592H38.6323V36.488H32.0243ZM26.4403 24.616C27.4323 25.144 28.7603 25.928 29.4323 26.408L30.1363 25.432C29.4483 24.968 28.0883 24.248 27.1122 23.768L26.4403 24.616ZM25.6562 29.032C26.6323 29.544 27.9602 30.312 28.6163 30.76L29.2882 29.784C28.6163 29.32 27.2723 28.616 26.3283 28.152L25.6562 29.032ZM26.0403 37.256L27.0483 38.072C27.9923 36.584 29.1122 34.584 29.9602 32.888L29.0963 32.104C28.1683 33.928 26.9043 36.04 26.0403 37.256Z" fill="black"/>
<path d="M43.7043 34.024V34.936H51.0002V34.024H43.7043ZM43.2723 26.312V27.24H51.2563V26.312H43.2723ZM46.7442 24.856V36.632H47.8482V24.856H46.7442ZM43.2563 36.664L43.4323 37.704C45.4643 37.496 48.3603 37.16 51.0803 36.84L51.0643 35.896C48.2003 36.2 45.2083 36.488 43.2563 36.664ZM44.7442 31.032H49.9283V32.216H44.7442V31.032ZM44.7442 29.08H49.9283V30.232H44.7442V29.08ZM43.7362 28.248V33.048H50.9522V28.248H43.7362ZM50.3763 23.72C48.7283 24.104 45.8163 24.392 43.4323 24.52C43.5603 24.76 43.6723 25.16 43.7203 25.416C46.1203 25.336 49.0963 25.064 50.9843 24.648L50.3763 23.72ZM51.1443 27.304V28.424H56.9203V27.304H51.1443ZM56.4563 27.304V27.592C56.2803 34.072 56.1043 36.376 55.7043 36.872C55.5603 37.08 55.4003 37.128 55.1443 37.128C54.8243 37.128 54.1203 37.112 53.3363 37.048C53.5283 37.368 53.6562 37.864 53.6882 38.2C54.4242 38.248 55.1923 38.248 55.6403 38.2C56.1203 38.152 56.4403 38.008 56.7283 37.592C57.2563 36.904 57.4163 34.664 57.5923 27.912C57.5923 27.752 57.6083 27.304 57.6083 27.304H56.4563ZM53.0803 23.768C53.0643 29.816 53.1442 34.888 49.4802 37.512C49.7682 37.704 50.1843 38.088 50.3763 38.376C54.2003 35.512 54.2163 30.136 54.2323 23.768H53.0803Z" fill="black"/>
<path d="M26.6003 52.64V63.28H27.6883V52.64H26.6003ZM30.0403 57.568V62.544H31.1283V57.568H30.0403ZM30.5203 57.568V58.352H34.9043V61.2H30.5203V61.968H35.9763V57.568H30.5203ZM27.1603 52.64V53.44H31.1283V55.968H27.1603V56.768H32.2163V52.64H27.1603ZM27.2083 54.32V55.072H31.5283V54.32H27.2083ZM30.5522 59.376V60.128H35.4323V59.376H30.5522ZM34.2323 54.32V55.072H38.6963V54.32H34.2323ZM38.5523 52.64H33.5763V56.768H38.5523V55.968H34.6643V53.44H38.5523V52.64ZM38.2643 52.64V61.904C38.2643 62.128 38.1843 62.208 37.9283 62.224C37.6723 62.224 36.8243 62.24 35.9283 62.192C36.0883 62.512 36.2643 62.976 36.3123 63.28C37.5123 63.28 38.2963 63.264 38.7763 63.088C39.2403 62.912 39.3843 62.576 39.3843 61.904V52.64H38.2643ZM27.8163 49.632V50.608H32.9043V49.632H27.8163ZM34.4243 49.632V50.608H40.2803V49.632H34.4243ZM28.1363 48.448C27.5763 49.68 26.6483 50.912 25.6562 51.712C25.8963 51.888 26.3123 52.304 26.4883 52.496C27.5123 51.584 28.5523 50.176 29.1923 48.752L28.1363 48.448ZM34.7283 48.448C34.2803 49.712 33.4963 50.928 32.5683 51.728C32.8403 51.888 33.2882 52.24 33.4963 52.432C34.4403 51.552 35.3363 50.16 35.8323 48.72L34.7283 48.448ZM28.9043 51.072C29.4002 51.536 30.0403 52.192 30.3282 52.592L31.1283 51.92C30.8082 51.504 30.1683 50.896 29.6562 50.464L28.9043 51.072ZM35.8802 51.168C36.4243 51.6 37.0963 52.24 37.4323 52.656L38.2323 51.936C37.8963 51.536 37.2083 50.944 36.6643 50.528L35.8802 51.168Z" fill="black"/>
<path d="M53.0323 54.864V63.312H54.2803V54.864H53.0323ZM47.0323 54.88V56.928C47.0323 58.752 46.7283 60.864 43.7203 62.432C44.0243 62.624 44.4883 63.024 44.6963 63.312C47.9123 61.568 48.2803 59.088 48.2803 56.96V54.88H47.0323ZM50.5683 48.464C49.1123 50.96 46.0883 53.376 43.0643 54.384C43.3363 54.688 43.6403 55.168 43.8003 55.52C46.8403 54.304 49.9282 51.776 51.5282 49.12L50.5683 48.464ZM51.1443 49.328L50.1042 49.76C51.7042 52.16 54.5363 54.352 57.3682 55.312C57.5763 54.976 57.9603 54.464 58.2323 54.208C55.4483 53.392 52.5683 51.392 51.1443 49.328Z" fill="black"/>
</svg>
