<svg width="129" height="144" viewBox="0 0 129 144" fill="none" xmlns="http://www.w3.org/2000/svg">
<g filter="url(#filter0_d_1378_520)">
<path d="M10.336 17.216C10.32 16.208 10.304 15.184 10.304 14.208V8.624L10.368 6.016L10.128 5.856L5.792 6.832V7.424L7.68 7.248V14.208C7.68 15.184 7.664 16.208 7.648 17.216L5.36 17.504V18H12.48V17.504L10.336 17.216ZM20.3904 17.216C20.3744 16.208 20.3584 15.184 20.3584 14.208V8.624L20.4224 6.016L20.1824 5.856L15.8464 6.832V7.424L17.7344 7.248V14.208C17.7344 15.184 17.7184 16.208 17.7024 17.216L15.4144 17.504V18H22.5344V17.504L20.3904 17.216ZM30.4447 17.216C30.4287 16.208 30.4127 15.184 30.4127 14.208V8.624L30.4767 6.016L30.2367 5.856L25.9007 6.832V7.424L27.7887 7.248V14.208C27.7887 15.184 27.7727 16.208 27.7567 17.216L25.4687 17.504V18H32.5887V17.504L30.4447 17.216ZM39.7311 15.056V11.072H42.1791V15.056H39.7311ZM42.1791 7.392V10.624H39.9551L37.3791 9.696C38.1791 9.04 38.9151 8.272 39.6191 7.392H42.1791ZM46.2111 15.056H44.7231V11.072H48.5151C48.7551 11.072 48.9311 10.992 48.9791 10.816C48.1631 10.144 46.8191 9.152 46.8191 9.152L45.6351 10.624H44.7231V7.392H49.0751C49.3151 7.392 49.5071 7.312 49.5391 7.136C48.6431 6.384 47.2511 5.376 47.2511 5.376L45.9871 6.944H39.9551C40.2591 6.528 40.5471 6.08 40.8351 5.6C41.2191 5.632 41.4431 5.504 41.5231 5.296L38.3551 4.128C37.5071 6.864 35.9551 9.632 34.5791 11.296L34.7231 11.424C35.6191 10.96 36.4671 10.432 37.2671 9.776V15.056H34.5791L34.7071 15.504H42.1791V19.504H42.6591C43.9711 19.504 44.7071 19.008 44.7231 18.864V15.504H49.2991C49.5391 15.504 49.7311 15.424 49.7791 15.248C48.8991 14.528 47.4751 13.472 47.4751 13.472L46.2111 15.056Z" fill="white"/>
<path d="M19.36 64.816C28 68.592 30.56 72.432 30.56 77.232C30.56 82.032 28 84.848 23.392 84.848C18.528 84.848 15.648 81.648 15.648 74.736C15.648 70.64 16.736 67.696 19.296 64.752L19.36 64.816ZM23.584 39.344C27.68 39.344 30.112 42.8 30.112 47.856C30.112 52.08 29.216 55.344 27.168 58.48C18.592 54.64 16.736 50.608 16.736 46.64C16.736 42.16 20 39.344 23.584 39.344ZM28.576 59.12C35.488 56.176 38.176 52.4 38.176 48.176C38.176 42.224 33.568 37.104 23.776 37.104C14.88 37.104 8.224 42.224 8.224 50.16C8.224 56.048 11.36 60.912 17.824 64.112C10.976 66.544 7.264 70.448 7.264 75.952C7.264 82.352 12.192 87.088 22.496 87.088C33.76 87.088 39.776 81.648 39.776 73.392C39.776 67.312 36.192 62.768 28.576 59.12ZM45.3695 97.584H50.8735L70.2655 34.544H64.7615L45.3695 97.584ZM92.781 84.848C88.429 84.848 85.421 78.96 85.421 65.392C85.421 64.432 85.485 63.536 85.549 62.64C87.533 60.848 89.901 60.336 92.205 60.336C96.685 60.336 98.989 64.368 98.989 72.24C98.989 81.2 96.301 84.848 92.781 84.848ZM106.093 37.104C87.725 38.768 74.989 51.44 74.989 66.8C74.989 79.536 81.901 87.088 92.781 87.088C103.021 87.088 109.229 80.432 109.229 71.088C109.229 62.576 104.429 56.624 96.173 56.624C92.077 56.624 88.557 57.904 85.741 60.464C87.341 49.392 94.509 41.52 106.477 38.704L106.093 37.104Z" fill="white"/>
<path d="M23 125L4 136L4 114L23 125Z" fill="white"/>
<path d="M56 125L38 136L38 114L56 125Z" fill="white"/>
<path d="M90 125L71 136L71 114L90 125Z" fill="white"/>
</g>
<defs>
<filter id="filter0_d_1378_520" x="0" y="0" width="133" height="144" filterUnits="userSpaceOnUse" color-interpolation-filters="sRGB">
<feFlood flood-opacity="0" result="BackgroundImageFix"/>
<feColorMatrix in="SourceAlpha" type="matrix" values="0 0 0 0 0 0 0 0 0 0 0 0 0 0 0 0 0 0 127 0" result="hardAlpha"/>
<feOffset dy="4"/>
<feGaussianBlur stdDeviation="2"/>
<feComposite in2="hardAlpha" operator="out"/>
<feColorMatrix type="matrix" values="0 0 0 0 0 0 0 0 0 0 0 0 0 0 0 0 0 0 0.25 0"/>
<feBlend mode="normal" in2="BackgroundImageFix" result="effect1_dropShadow_1378_520"/>
<feBlend mode="normal" in="SourceGraphic" in2="effect1_dropShadow_1378_520" result="shape"/>
</filter>
</defs>
</svg>
