<svg width="125" height="136" viewBox="0 0 125 136" fill="none" xmlns="http://www.w3.org/2000/svg">
<path d="M6.336 17.216C6.32 16.208 6.304 15.184 6.304 14.208V8.624L6.368 6.016L6.128 5.856L1.792 6.832V7.424L3.68 7.248V14.208C3.68 15.184 3.664 16.208 3.648 17.216L1.36 17.504V18H8.48V17.504L6.336 17.216ZM16.3904 17.216C16.3744 16.208 16.3584 15.184 16.3584 14.208V8.624L16.4224 6.016L16.1824 5.856L11.8464 6.832V7.424L13.7344 7.248V14.208C13.7344 15.184 13.7184 16.208 13.7024 17.216L11.4144 17.504V18H18.5344V17.504L16.3904 17.216ZM26.4447 17.216C26.4287 16.208 26.4127 15.184 26.4127 14.208V8.624L26.4767 6.016L26.2367 5.856L21.9007 6.832V7.424L23.7887 7.248V14.208C23.7887 15.184 23.7727 16.208 23.7567 17.216L21.4687 17.504V18H28.5887V17.504L26.4447 17.216ZM35.7311 15.056V11.072H38.1791V15.056H35.7311ZM38.1791 7.392V10.624H35.9551L33.3791 9.696C34.1791 9.04 34.9151 8.272 35.6191 7.392H38.1791ZM42.2111 15.056H40.7231V11.072H44.5151C44.7551 11.072 44.9311 10.992 44.9791 10.816C44.1631 10.144 42.8191 9.152 42.8191 9.152L41.6351 10.624H40.7231V7.392H45.0751C45.3151 7.392 45.5071 7.312 45.5391 7.136C44.6431 6.384 43.2511 5.376 43.2511 5.376L41.9871 6.944H35.9551C36.2591 6.528 36.5471 6.08 36.8351 5.6C37.2191 5.632 37.4431 5.504 37.5231 5.296L34.3551 4.128C33.5071 6.864 31.9551 9.632 30.5791 11.296L30.7231 11.424C31.6191 10.96 32.4671 10.432 33.2671 9.776V15.056H30.5791L30.7071 15.504H38.1791V19.504H38.6591C39.9711 19.504 40.7071 19.008 40.7231 18.864V15.504H45.2991C45.5391 15.504 45.7311 15.424 45.7791 15.248C44.8991 14.528 43.4751 13.472 43.4751 13.472L42.2111 15.056Z" fill="white"/>
<path d="M15.36 64.816C24 68.592 26.56 72.432 26.56 77.232C26.56 82.032 24 84.848 19.392 84.848C14.528 84.848 11.648 81.648 11.648 74.736C11.648 70.64 12.736 67.696 15.296 64.752L15.36 64.816ZM19.584 39.344C23.68 39.344 26.112 42.8 26.112 47.856C26.112 52.08 25.216 55.344 23.168 58.48C14.592 54.64 12.736 50.608 12.736 46.64C12.736 42.16 16 39.344 19.584 39.344ZM24.576 59.12C31.488 56.176 34.176 52.4 34.176 48.176C34.176 42.224 29.568 37.104 19.776 37.104C10.88 37.104 4.224 42.224 4.224 50.16C4.224 56.048 7.36 60.912 13.824 64.112C6.976 66.544 3.264 70.448 3.264 75.952C3.264 82.352 8.192 87.088 18.496 87.088C29.76 87.088 35.776 81.648 35.776 73.392C35.776 67.312 32.192 62.768 24.576 59.12ZM41.3695 97.584H46.8735L66.2655 34.544H60.7615L41.3695 97.584ZM88.781 84.848C84.429 84.848 81.421 78.96 81.421 65.392C81.421 64.432 81.485 63.536 81.549 62.64C83.533 60.848 85.901 60.336 88.205 60.336C92.685 60.336 94.989 64.368 94.989 72.24C94.989 81.2 92.301 84.848 88.781 84.848ZM102.093 37.104C83.725 38.768 70.989 51.44 70.989 66.8C70.989 79.536 77.901 87.088 88.781 87.088C99.021 87.088 105.229 80.432 105.229 71.088C105.229 62.576 100.429 56.624 92.173 56.624C88.077 56.624 84.557 57.904 81.741 60.464C83.341 49.392 90.509 41.52 102.477 38.704L102.093 37.104Z" fill="white"/>
<path d="M19 125L9.45698e-07 136L1.90735e-06 114L19 125Z" fill="white"/>
<path d="M52 125L34 136L34 114L52 125Z" fill="white"/>
<path d="M86 125L67 136L67 114L86 125Z" fill="white"/>
</svg>
