<svg width="224" height="224" viewBox="0 0 224 224" fill="none" xmlns="http://www.w3.org/2000/svg">
<circle cx="112" cy="112" r="112" fill="#DEE3F0"/>
<g clip-path="url(#clip0_1459_509)">
<path d="M28.2923 105.44C34.5275 109.471 40.9639 113.3 47.8025 115.719C55.4457 118.54 63.29 120.153 70.7321 116.323C77.3696 112.897 83.8059 108.665 90.2423 105.037C103.92 97.1766 117.396 89.1148 131.073 81.0531C137.912 77.0222 144.951 72.9914 151.79 68.9605C154.807 67.1466 158.226 65.3327 160.037 62.3096C160.037 62.3096 160.037 62.108 160.238 62.108C156.416 57.0694 143.745 49.6123 131.475 42.7598C116.591 34.295 108.546 36.512 97.8855 41.7521C92.4548 44.3722 69.7264 55.4571 64.2957 58.6818C53.4343 65.1312 39.1537 72.9914 25.8787 80.65C20.8502 83.4716 15.6207 87.5025 13.4082 91.7349C14.4139 97.9828 23.6662 102.417 28.2923 105.44Z" fill="#6D4D42"/>
<path d="M15.6206 102.82C23.2638 109.068 29.2979 113.099 42.3717 120.153C51.624 125.191 61.2785 127.811 78.7774 117.734C84.6104 114.509 127.654 89.1149 139.923 81.6578C148.572 76.4176 159.433 70.3713 161.042 65.1312C161.243 64.325 160.841 63.1158 160.037 61.9065C160.037 61.9065 160.037 62.108 159.835 62.108C158.025 65.3327 154.606 66.9451 151.589 68.759C144.75 72.7898 137.71 76.8207 130.872 80.8516C117.194 88.9133 103.718 96.7735 90.041 104.835C83.6047 108.665 77.1683 112.695 70.5308 116.122C62.8876 119.951 55.2445 118.339 47.6013 115.517C40.7626 112.897 34.3263 109.269 28.091 105.238C23.666 102.215 14.2126 97.7812 13.0058 91.7349C11.1956 95.5643 11.3967 99.3936 15.6206 102.82Z" fill="#563835"/>
<path d="M92.0522 88.3086C85.6158 86.0917 78.1738 85.8901 71.5363 84.8824C63.4909 83.6731 56.0488 83.27 47.8022 83.6731C41.9693 84.0762 34.5272 83.27 29.9011 87.5025C27.4874 88.3086 23.4647 90.5256 25.4761 93.7503C25.8784 94.3549 26.4818 94.758 27.0852 95.1611C28.8954 96.3704 30.1022 96.975 31.5102 98.7889C32.717 100.603 33.7227 102.618 35.3318 104.029C37.142 105.44 39.1534 106.246 41.3659 107.052C43.1761 107.657 44.7852 108.261 46.3943 109.269C47.6011 109.874 48.6068 111.083 49.8136 111.688C51.4227 112.292 52.6295 112.091 54.2386 111.486C56.4511 110.68 58.0602 109.269 60.4738 109.471C62.6863 109.471 64.6977 110.478 66.9102 110.68C72.9443 111.486 77.5704 112.494 84.6102 105.641C86.2193 104.029 88.4318 104.231 90.8454 103.021C93.4602 101.611 94.8681 99.192 95.6727 96.7735C96.8795 92.7426 95.4715 89.5179 92.0522 88.3086Z" fill="#563835"/>
<path d="M80.3862 58.0769C86.8225 55.86 94.2646 55.6584 100.902 54.6507C108.948 53.4414 116.39 53.0384 124.636 53.4414C130.469 53.8445 137.911 53.0384 142.537 57.2708C144.951 58.0769 148.974 60.2939 146.962 63.5186C146.56 64.1232 145.957 64.5263 145.353 64.9294C143.543 66.1387 142.336 66.7433 140.928 68.5572C139.721 70.3711 138.716 72.3865 137.107 73.7973C135.296 75.2081 133.285 76.0143 131.073 76.8205C129.262 77.4251 127.653 78.0297 126.044 79.0375C124.837 79.6421 123.832 80.8514 122.625 81.456C121.016 82.0606 119.809 81.8591 118.2 81.2544C115.987 80.4483 114.378 79.0375 111.965 79.239C109.752 79.239 107.741 80.2467 105.528 80.4483C99.4941 81.2544 94.868 82.2622 87.8282 75.4097C86.2191 73.7973 84.0066 73.9989 81.593 72.7896C78.9782 71.3788 77.5702 68.9603 76.7657 66.5418C75.76 62.7124 76.9668 59.4877 80.3862 58.0769Z" fill="#563835"/>
<path d="M95.4721 72.5884C92.2539 72.9915 87.6278 68.9606 87.4267 66.5421C87.2255 64.1235 83.2028 63.3174 81.3926 61.3019C79.5823 59.2865 81.5937 52.0309 82.3983 51.8294C88.2312 50.0155 112.166 59.2865 112.166 59.2865C111.965 57.8757 110.155 57.0695 108.948 56.4649C106.132 54.651 103.115 53.2402 100.098 51.8294C94.2653 49.2093 87.6278 46.3877 81.1914 46.1862C80.9903 46.1862 76.163 44.9769 75.3585 49.0078C75.1573 50.0155 76.163 51.2248 76.3642 51.6278C76.5653 53.0386 75.7608 53.4417 75.7608 54.8525C75.7608 55.8603 75.5596 56.2633 76.163 57.0695C76.7664 58.2788 78.1744 58.8834 78.3755 60.4958C78.5767 61.3019 77.9733 62.3097 78.1744 63.3174C78.3755 64.3251 78.7778 64.9297 79.3812 65.5343C80.1858 66.3405 81.1914 66.139 81.5937 67.7513C81.7948 68.356 81.3926 69.1621 81.5937 69.7668C81.7948 70.976 82.1971 71.9837 83.4039 72.3868C84.0073 72.7899 84.8119 72.5884 85.4153 72.5884C87.2255 72.9915 88.0301 73.9992 89.2369 75.41C90.0414 76.2162 90.4437 76.8208 91.6505 76.8208C92.4551 76.8208 93.2596 76.4177 94.0642 76.2162C95.4721 76.0146 96.6789 76.8208 97.8858 77.0223C99.2937 77.2239 99.696 77.4254 100.903 76.6192C102.713 75.41 104.322 74.2007 106.333 73.3945C106.937 73.193 107.54 72.7899 108.144 72.3868C106.132 70.976 103.92 68.759 103.92 68.759C103.92 68.759 98.6903 72.3868 95.4721 72.5884Z" fill="#9E9B26"/>
<path d="M110.557 70.976C111.563 69.7667 111.764 68.1544 111.764 66.7436C111.764 65.5343 111.362 64.5266 111.362 63.3173C111.362 62.3096 111.965 61.3019 112.166 60.0926C112.166 59.6896 112.166 59.488 112.166 59.488C112.166 59.488 88.2313 50.217 82.3983 52.0309C81.5938 52.2324 79.5824 59.2865 81.3926 61.5035C83.2028 63.5189 87.4267 64.3251 87.4267 66.7436C87.4267 69.1621 92.254 73.193 95.4722 72.7899C98.6903 72.3868 104.121 69.1621 104.121 69.1621C104.121 69.1621 106.334 71.3791 108.345 72.7899C109.351 72.1853 109.954 71.5806 110.557 70.976Z" fill="#898919"/>
<path d="M135.096 35.1013C133.286 33.6905 132.481 33.6905 130.872 31.2719C130.269 30.4658 130.269 29.6596 129.665 28.8534C128.458 27.6442 126.849 27.0395 125.24 26.4349C123.43 25.8303 122.625 25.4272 121.419 23.8148C120.815 23.2102 120.614 22.404 119.809 22.2025C118.2 21.3963 117.798 22.404 116.189 22.6056C114.178 23.0086 113.172 21.3963 111.161 21.7994C108.546 22.2025 107.138 24.2179 104.322 24.4195C100.5 24.621 99.4947 27.6442 100.5 30.8688C99.6958 31.2719 99.8969 32.4812 100.903 32.4812C103.517 32.6827 105.126 38.1244 106.937 39.9383C108.747 41.7522 110.758 42.9615 112.971 43.9692C114.781 44.7753 116.39 44.9769 117.597 47.1939C117.999 48 117.798 49.0078 118.401 49.8139C119.407 51.2247 120.614 51.4263 122.424 51.0232C127.855 50.0155 144.147 42.3568 135.096 35.1013Z" fill="#9E9B26"/>
<path d="M100.299 28.0475C100.299 28.0475 105.327 26.4351 107.942 28.0475C110.557 29.6598 110.557 32.0783 110.557 32.0783C110.557 32.0783 111.362 28.0475 113.976 26.2336C116.591 24.4197 117.597 24.0166 117.597 24.0166C117.597 24.0166 115.384 26.8382 114.58 28.0475C112.971 30.2645 114.177 32.0783 114.177 32.0783C114.177 32.0783 115.988 31.2722 117.396 28.249C118.2 26.4351 118.804 24.6212 118.804 24.6212C118.804 24.6212 119.206 28.4506 118.804 30.2645C118.401 32.0783 117.798 33.2876 117.798 33.2876C117.798 33.2876 121.217 32.0783 123.631 31.8768C126.045 31.8768 129.866 34.0938 130.47 35.1015C130.872 36.3108 130.872 39.5355 130.47 39.9385C130.268 40.1401 120.212 42.9617 118.2 42.7601C116.189 42.5586 104.724 37.7216 101.908 36.1092C99.0922 34.6984 100.299 28.0475 100.299 28.0475Z" fill="#898919"/>
<path d="M142.136 52.8381C141.533 49.815 140.929 48.6057 138.918 48.2026C138.918 48.6057 138.918 49.2104 138.918 49.815C138.717 52.8381 136.504 54.2489 136.504 57.8767C136.504 61.5045 134.091 62.9153 130.872 63.7215C127.654 64.7292 125.643 65.5354 124.838 67.7524C123.833 70.1709 122.425 70.9771 119.609 71.1786C118 71.3801 116.793 72.5894 116.189 73.5971C116.391 73.7987 116.592 73.7987 116.793 74.0002C117.799 74.6048 119.206 76.2172 120.212 76.8218C121.419 77.4264 123.229 76.8218 124.436 76.4187C125.844 76.0156 127.252 75.411 128.459 74.2018C129.666 72.7909 129.263 71.9848 131.677 71.3801C132.482 71.1786 133.286 71.3801 134.292 71.1786C135.7 70.574 137.108 69.9693 137.309 68.5585C138.314 63.5199 141.935 62.9153 142.538 62.3107C144.751 59.2875 142.739 56.2644 142.136 52.8381Z" fill="#9E9B26"/>
<path d="M119.408 70.9765C122.223 70.7749 123.631 69.9688 124.637 67.5502C125.442 65.1317 127.654 64.3255 130.671 63.5194C133.889 62.5117 136.102 61.3024 136.303 57.6746C136.303 54.0468 138.515 52.8376 138.717 49.6129C138.717 49.0082 138.717 48.4036 138.717 48.0005C138.113 47.799 137.309 47.799 136.504 48.0005C132.481 48.4036 128.861 50.419 126.045 53.0391C124.034 54.853 122.223 57.2715 120.413 59.287C118.804 61.5039 112.368 67.5502 112.77 67.9533C113.373 70.7749 113.575 71.7827 115.787 73.395C116.592 72.3873 117.798 71.178 119.408 70.9765Z" fill="#898919"/>
<path d="M108.545 56.0618C107.942 49.2093 107.138 42.9615 108.143 35.9075C108.143 35.9075 108.143 35.9075 108.143 35.7059C108.545 33.0859 108.143 28.4504 101.908 30.0627C100.098 30.4658 98.6898 30.0627 97.483 28.8534C96.2761 28.2488 95.6727 27.6442 94.2648 28.0473C92.6557 28.4504 92.0523 29.4581 91.2477 30.6673C89.8398 32.6828 87.8284 31.8766 86.2193 31.675C83.8057 31.272 82.8 32.2797 82.8 35.1013C82.8 37.3183 83.2023 37.9229 81.5932 38.9306C80.3864 39.5352 79.1796 40.543 78.9784 41.9538C78.7773 44.1707 80.9898 44.3723 79.9841 46.9924C79.5818 48.2016 78.375 49.0078 78.5761 50.4186C78.7773 51.8294 79.9841 51.8294 80.7886 52.6356C83.8057 55.2556 81.7943 56.2634 83.2023 59.2865C84.4091 61.5035 86.8227 62.3097 89.0352 61.9066C89.2364 64.1236 89.6386 66.5421 92.0523 67.5498C94.0636 68.356 96.075 67.1467 97.8852 66.5421C100.299 65.7359 103.115 64.9297 105.327 63.7205C108.344 61.9066 108.747 59.085 108.545 56.0618Z" fill="#BCBF47"/>
<path d="M135.699 47.3952C135.297 46.589 134.492 46.3875 134.09 45.5813C131.878 42.5582 133.286 42.7597 132.682 40.1397C132.28 38.1242 131.274 37.9227 129.665 37.318C128.056 36.915 125.642 35.5042 123.832 35.5042C120.011 35.5042 115.787 40.3412 114.58 43.5659C113.373 46.7906 113.976 50.4184 113.172 53.6431C112.166 57.4724 109.954 60.6971 107.339 63.5187C107.138 63.7202 107.138 63.9218 107.138 64.1233C106.534 64.5264 106.333 65.131 106.534 65.9372C106.534 66.3403 106.937 66.7434 107.138 67.1465C107.54 68.1542 108.747 70.1696 109.35 70.9758C112.569 74.8051 115.183 69.565 118.603 68.9604C120.413 68.5573 121.217 69.1619 122.826 67.9527C123.43 67.348 124.033 66.5419 124.436 65.7357C125.844 63.1156 125.844 62.7125 129.464 61.7048C131.073 61.3017 132.079 61.1002 133.084 59.6894C133.688 58.6817 134.09 57.4724 134.291 56.4647C134.693 54.2477 135.096 53.24 136.101 51.023C136.101 49.8137 136.504 49.0076 135.699 47.3952Z" fill="#BCBF47"/>
<path d="M101.909 39.3337C101.909 39.3337 99.8973 36.3106 98.4893 35.1013C97.0814 33.6905 95.8746 31.272 95.8746 31.272C95.8746 31.272 96.2768 33.2874 96.6791 34.2951C97.0814 35.3028 97.4837 36.3106 97.4837 36.3106C97.4837 36.3106 93.6621 34.6982 92.053 34.6982C89.8405 34.6982 87.2257 33.489 87.2257 33.489C87.2257 33.489 89.2371 35.3028 90.8462 35.7059C92.6564 36.3106 95.07 36.7136 95.07 36.7136C95.07 36.7136 90.8462 36.7136 87.8291 36.7136C86.0189 36.7136 84.4098 36.7136 84.4098 36.7136C84.4098 36.7136 86.8234 37.3183 89.0359 37.7214C91.0473 38.1245 95.07 38.326 95.07 38.326C95.07 38.326 91.2484 39.7368 87.0246 40.1399C85.4155 40.1399 82.3984 41.1476 82.3984 41.1476C82.3984 41.1476 86.4212 41.7522 88.0303 41.5507C89.8405 41.3491 94.4666 41.9538 94.4666 41.9538C94.4666 41.9538 89.0359 43.5661 88.2314 43.7677C87.4268 43.9692 82.3984 46.3877 82.3984 46.3877C82.3984 46.3877 87.4268 45.7831 89.2371 45.1785C91.0473 44.5738 94.0643 44.5738 94.0643 44.5738C94.0643 44.5738 89.2371 46.5893 87.4268 48.0001C86.0189 49.2093 84.0075 50.6202 84.0075 50.6202C84.0075 50.6202 87.628 49.4109 88.8348 49.0078C90.0416 48.6047 93.0587 48.4032 93.0587 48.4032C93.0587 48.4032 90.2428 51.6279 89.0359 52.6356C87.8291 53.6433 86.22 56.2634 86.22 56.2634C86.22 56.2634 89.2371 54.4495 90.2428 53.8448C91.4496 53.2402 92.8575 52.434 92.8575 52.434C92.8575 52.434 90.8462 56.868 90.645 57.8757C90.0416 59.8912 91.0473 61.9066 91.0473 61.9066C91.0473 61.9066 91.0473 59.2865 92.053 57.4726C92.6564 56.2634 97.2825 52.8371 97.2825 52.8371L101.909 39.3337Z" fill="#898919"/>
<path d="M123.832 41.9535C123.832 41.9535 126.246 40.9457 128.458 41.3488C130.671 41.7519 131.274 41.9535 131.274 41.9535C131.274 41.9535 129.263 41.9535 128.458 41.9535C127.855 41.9535 127.252 41.9535 127.252 41.9535C127.252 41.9535 130.067 43.5658 131.274 44.5735C132.481 45.5812 133.286 48.2013 133.286 48.2013C133.286 48.2013 131.677 46.3874 130.671 45.7828C129.665 45.1782 128.659 44.7751 128.659 44.7751C128.659 44.7751 131.475 48.4029 132.079 49.8137C133.286 52.8368 131.677 55.6584 131.677 55.6584C131.677 55.6584 131.677 52.4337 130.872 50.8214C130.067 49.0075 129.062 48.2013 129.062 48.2013C129.062 48.2013 130.47 54.2476 130.067 56.0615C129.665 57.8754 127.855 60.2939 125.844 60.8986C123.832 61.5032 119.407 60.8986 119.407 60.8986L123.832 41.9535Z" fill="#898919"/>
<path d="M112.569 33.8916C106.132 32.6823 96.2766 33.8916 94.0641 48.4027C92.8573 57.2706 100.098 66.9447 109.954 66.7432C129.464 66.1386 135.699 38.5271 112.569 33.8916Z" fill="#DDDD58"/>
<path d="M109.753 34.698C109.753 34.698 111.966 38.7289 111.966 44.3721C111.966 47.5968 108.747 54.0462 106.937 58.6817C105.529 62.1079 105.529 64.9295 105.529 64.9295L109.954 58.4801C109.954 58.4801 110.357 60.6971 111.563 62.511C112.368 63.7203 114.178 64.9295 114.178 64.9295C114.178 64.9295 111.362 53.8446 112.569 48.6045C113.977 42.3567 118.603 37.5196 118.603 37.5196C118.603 37.5196 116.592 37.9227 115.787 38.5273C114.983 39.132 113.776 40.9458 113.776 40.9458C113.776 40.9458 113.575 36.7134 109.753 34.698Z" fill="#9E9B26"/>
<path d="M104.925 38.3262C108.143 38.9308 109.953 40.5431 109.953 40.5431C109.953 40.5431 106.735 39.5354 105.126 39.5354C103.517 39.3339 101.506 40.14 101.506 40.14C101.506 40.14 104.925 41.1478 106.735 41.7524C109.35 42.7601 110.758 43.7678 110.758 43.7678C110.758 43.7678 107.54 43.1632 105.528 42.5586C103.718 41.9539 100.902 41.5508 100.902 41.5508C100.902 41.5508 104.523 43.5663 105.931 44.574C108.344 46.1863 108.747 48.0002 108.747 48.0002C108.747 48.0002 104.523 44.9771 103.919 44.574C103.517 44.1709 100.098 42.7601 100.098 42.7601C100.098 42.7601 103.718 47.1941 104.322 47.7987C104.925 48.4033 106.936 50.2172 106.936 50.2172C106.936 50.2172 103.115 47.7987 102.31 46.9925C101.506 46.1863 99.4944 43.7678 99.4944 43.7678C99.4944 43.7678 101.305 48.0002 102.109 49.2095C102.914 50.4188 105.126 53.0388 105.126 53.0388C105.126 53.0388 102.511 51.8296 100.902 49.411C100.098 48.2018 98.2876 45.5817 98.2876 45.5817C98.2876 45.5817 98.2876 48.8064 99.8967 51.628C100.5 52.6357 102.109 55.0543 102.109 55.0543C102.109 55.0543 99.0921 52.8373 98.4887 51.628C97.0808 48.6049 97.0808 46.3879 97.0808 46.3879C97.0808 46.3879 96.4774 51.0234 97.483 54.0465C98.2876 56.4651 99.2933 58.682 99.2933 58.682C99.2933 58.682 96.6785 55.8604 96.0751 52.6357C95.4717 49.411 95.8739 45.1786 97.0808 42.5586C98.2876 38.7292 101.707 37.7215 104.925 38.3262Z" fill="#9E9B26"/>
<path d="M123.229 42.9615C120.212 41.3491 117.999 41.3491 117.999 41.3491C117.999 41.3491 121.217 42.7599 122.424 43.5661C123.832 44.3723 124.838 46.3877 124.838 46.3877C124.838 46.3877 121.62 44.9769 119.81 44.3723C117.195 43.5661 115.586 43.3646 115.586 43.3646C115.586 43.3646 118.603 44.9769 120.413 45.7831C122.223 46.5893 124.637 47.7985 124.637 47.7985C124.637 47.7985 120.614 47.1939 118.804 46.9923C115.988 46.7908 114.379 47.7985 114.379 47.7985C114.379 47.7985 119.608 48.2016 120.212 48.2016C120.815 48.2016 124.235 49.0078 124.235 49.0078C124.235 49.0078 118.603 50.217 117.798 50.217C116.994 50.217 114.178 50.6201 114.178 50.6201C114.178 50.6201 118.804 51.2248 119.81 51.0232C120.815 50.8217 124.033 50.4186 124.033 50.4186C124.033 50.4186 120.011 52.434 118.603 53.0386C117.195 53.4417 113.977 54.0464 113.977 54.0464C113.977 54.0464 116.792 54.651 119.407 54.0464C120.815 53.6433 123.832 52.8371 123.832 52.8371C123.832 52.8371 121.821 55.2556 118.804 56.4649C117.798 56.868 114.982 57.6741 114.982 57.6741C114.982 57.6741 118.603 57.8757 120.011 57.2711C123.028 55.8603 124.436 54.0464 124.436 54.0464C124.436 54.0464 122.022 58.0772 119.407 59.8911C117.396 61.3019 115.183 62.5112 115.183 62.5112C115.183 62.5112 119.005 61.9066 121.62 59.8911C124.235 57.6741 125.844 54.8525 126.648 52.0309C127.453 48.2016 126.246 44.5738 123.229 42.9615Z" fill="#9E9B26"/>
<path d="M75.7607 102.215C78.9789 102.618 83.605 98.587 83.8062 96.1685C84.0073 93.75 88.03 92.9438 89.8403 90.9284C91.6505 88.913 89.6391 81.6574 88.8346 81.4558C83.0016 79.642 59.0664 88.913 59.0664 88.913C59.2675 87.5022 61.0778 86.696 62.2846 86.0913C65.1005 84.2775 68.1175 82.8667 71.1346 81.4558C76.9675 78.8358 83.605 76.0142 90.0414 75.8126C90.2425 75.8126 95.0698 74.6034 95.8744 78.6342C96.0755 79.642 95.0698 80.8512 94.8687 81.2543C94.6675 82.6651 95.4721 83.0682 95.4721 84.479C95.4721 85.4867 95.6732 85.8898 95.0698 86.696C94.4664 87.9052 93.0585 88.5099 92.8573 90.1222C92.6562 90.9284 93.2596 91.9361 93.0584 92.9438C92.8573 93.9515 92.455 94.5562 91.8516 95.1608C91.0471 95.967 90.0414 95.7654 89.6391 97.3778C89.438 97.9824 89.8403 98.7886 89.6391 99.3932C89.438 100.602 89.0357 101.61 87.8289 102.013C87.2255 102.416 86.421 102.215 85.8175 102.215C84.0073 102.618 83.2028 103.626 81.9959 105.036C81.1914 105.843 80.7891 106.447 79.5823 106.447C78.7778 106.447 77.9732 106.044 77.1687 105.843C75.7607 105.641 74.5539 106.447 73.3471 106.649C71.9391 106.85 71.5369 107.052 70.33 106.246C68.5198 105.036 66.9107 103.827 64.8994 103.021C64.296 102.819 63.6925 102.416 63.0891 102.013C65.1005 100.602 67.313 98.3855 67.313 98.3855C67.313 98.3855 72.5425 101.812 75.7607 102.215Z" fill="#9E9B26"/>
<path d="M60.6755 100.4C59.6698 99.1911 59.4687 97.5787 59.4687 96.1679C59.4687 94.9586 59.871 93.9509 59.871 92.7417C59.871 91.7339 59.2675 90.7262 59.0664 89.517C59.0664 89.1139 59.0664 88.9123 59.0664 88.9123C59.0664 88.9123 83.0016 79.6413 88.8346 81.4552C89.6391 81.6568 91.6505 88.7108 89.8403 90.9278C88.03 92.9432 83.8062 93.7494 83.8062 96.1679C83.605 98.5864 78.9789 102.617 75.7607 102.214C72.5425 101.811 67.1119 98.5864 67.1119 98.5864C67.1119 98.5864 64.8994 100.803 62.888 102.214C62.0835 101.811 61.2789 101.206 60.6755 100.4Z" fill="#898919"/>
<path d="M36.3381 64.7277C38.1483 63.3169 38.9528 63.3169 40.5619 60.8984C41.1653 60.0922 41.1653 59.2861 41.7687 58.4799C42.9756 57.2706 44.5847 56.666 46.1937 56.0614C48.004 55.4567 48.8085 55.0536 50.0153 53.4413C50.6187 52.8367 50.8199 52.0305 51.6244 51.8289C53.2335 51.0228 53.6358 52.0305 55.2449 52.232C57.2562 52.6351 58.2619 51.0228 60.2733 51.4259C62.8881 51.8289 64.296 53.8444 67.1119 54.0459C70.9335 54.2475 71.9392 57.2706 70.9335 60.4953C71.7381 60.8984 71.5369 62.1077 70.5313 62.1077C67.9165 62.3092 66.3074 67.7509 64.4972 69.5648C62.6869 71.3787 60.6756 72.5879 58.4631 73.5956C56.6528 74.4018 55.0437 74.6034 53.8369 76.8203C53.4347 77.6265 53.6358 78.6342 53.0324 79.4404C52.0267 80.8512 50.8199 81.0528 49.0097 80.6497C43.579 79.6419 27.0858 71.9833 36.3381 64.7277Z" fill="#9E9B26"/>
<path d="M70.933 57.472C70.933 57.472 65.9046 55.8597 63.2898 57.472C60.6751 59.0844 60.6751 61.5029 60.6751 61.5029C60.6751 61.5029 59.8705 57.472 57.2557 55.6581C54.4398 53.8443 53.6353 53.4412 53.6353 53.4412C53.6353 53.4412 56.0489 56.2628 56.8535 57.2705C58.4626 59.4875 57.2557 61.3014 57.2557 61.3014C57.2557 61.3014 55.4455 60.4952 54.0376 57.472C53.233 55.6581 52.6296 53.8442 52.6296 53.8442C52.6296 53.8442 52.2273 57.6736 52.6296 59.4875C53.0319 61.3014 53.6353 62.5106 53.6353 62.5106C53.6353 62.5106 50.216 61.3014 47.8023 61.0998C45.3887 61.0998 41.5671 63.3168 40.9637 64.3245C40.5614 65.3322 40.7626 68.7585 40.9637 69.1616C41.1648 69.5646 51.2217 72.1847 53.233 71.9832C55.2444 71.7816 66.7092 66.9446 69.5251 65.3322C72.341 64.123 70.933 57.472 70.933 57.472Z" fill="#898919"/>
<path d="M29.298 82.2625C29.9014 79.2393 30.5048 78.03 32.5162 77.627C32.5162 78.03 32.5162 78.6347 32.5162 79.2393C32.7173 82.2625 34.9298 83.6733 34.9298 87.301C34.9298 90.9288 37.3434 92.3396 40.5616 93.1458C43.7798 94.1535 45.7912 94.9597 46.5957 97.1767C47.6014 99.5952 49.0093 100.401 51.8252 100.603C53.4343 100.804 54.6412 102.014 55.2446 103.021C55.0434 103.223 54.8423 103.223 54.6412 103.425C53.6355 104.029 52.2275 105.642 51.2218 106.246C50.015 106.851 48.2048 106.246 46.998 105.843C45.59 105.44 44.1821 104.835 42.9752 103.626C41.7684 102.215 42.1707 101.409 39.7571 100.804C38.9525 100.603 38.148 100.804 37.1423 100.603C35.7343 99.9983 34.3264 99.3937 34.1252 97.9829C33.1196 92.9443 29.4991 92.3396 28.8957 91.735C26.4821 88.7118 28.4934 85.6887 29.298 82.2625Z" fill="#9E9B26"/>
<path d="M52.0269 100.603C49.211 100.401 47.803 99.5952 46.7973 97.1767C45.7916 94.7582 43.7803 93.952 40.7632 93.1458C37.545 92.3397 35.3325 90.9289 35.1314 87.3011C35.1314 83.6733 32.9189 82.464 32.7178 79.2393C32.7178 78.6347 32.7178 78.0301 32.7178 77.627C33.3212 77.4254 34.1257 77.4254 34.9303 77.627C38.953 78.0301 42.5735 80.0455 45.3894 82.6656C47.4007 84.4795 49.211 86.898 51.0212 88.9134C52.6303 91.1304 59.0666 97.1767 58.6644 97.5798C58.061 100.401 57.8598 101.409 55.6473 103.021C54.6416 102.014 53.636 100.603 52.0269 100.603Z" fill="#898919"/>
<path d="M62.8875 85.6883C63.4909 78.8358 64.2955 72.5879 63.2898 65.5339C63.2898 65.5339 63.2898 65.5339 63.2898 65.3324C62.8875 62.7123 63.2898 58.0768 69.525 59.6892C71.3352 60.0923 72.7432 59.6892 73.95 58.4799C75.1568 57.8753 75.7602 57.2706 77.1682 57.6737C78.7773 58.0768 79.3807 59.0845 80.1852 60.2938C81.5932 62.3092 83.6046 61.5031 85.2137 61.3015C87.6273 60.8984 88.633 61.9061 88.633 64.7278C88.633 66.9447 88.2307 67.5494 89.8398 68.5571C91.0466 69.1617 92.2534 70.1694 92.4546 71.5802C92.6557 73.7972 90.4432 73.9988 91.4489 76.6188C91.8512 77.8281 93.058 78.6343 92.8568 80.0451C92.6557 81.4559 91.4489 81.4559 90.6443 82.262C87.6273 84.8821 89.6387 85.8898 88.2307 88.913C87.0239 91.13 84.6102 91.9361 82.3977 91.533C82.1966 93.75 81.7943 96.1685 79.3807 97.1763C77.3693 97.9824 75.358 96.7732 73.5477 96.1685C71.1341 95.3624 68.3182 94.5562 66.1057 93.3469C62.8875 91.533 62.4852 88.7114 62.8875 85.6883Z" fill="#BCBF47"/>
<path d="M35.5331 77.0217C35.9354 76.2155 36.7399 76.014 37.1422 75.2078C39.3547 72.1846 37.9468 72.3862 38.5502 69.7661C38.9524 67.7507 39.9581 67.5491 41.5672 66.9445C43.1763 66.5414 45.5899 65.1306 47.4002 65.1306C51.2218 65.1306 55.4456 69.9677 56.6524 73.1924C57.8593 76.4171 57.2558 80.0448 58.0604 83.2695C59.0661 87.0989 61.2786 90.3236 63.8933 93.1452C64.0945 93.3467 64.0945 93.5482 64.0945 93.7498C64.6979 94.1529 64.899 94.7575 64.6979 95.5637C64.6979 95.9668 64.2956 96.3699 64.0945 96.7729C63.6922 97.7807 62.4854 99.7961 61.882 100.602C58.6638 104.432 56.049 99.1915 52.6297 98.5868C50.8195 98.1838 50.0149 98.7884 48.4058 97.5791C47.8024 96.9745 47.199 96.1683 46.7967 95.3621C45.3888 92.7421 45.3888 92.339 41.7683 91.3313C40.1593 90.9282 39.1536 90.7266 38.1479 89.3158C37.5445 88.3081 37.1422 87.0989 36.9411 86.0911C36.5388 83.8742 36.1365 82.8664 35.1308 80.6495C35.1308 79.2387 34.7286 78.634 35.5331 77.0217Z" fill="#BCBF47"/>
<path d="M69.5254 68.759C69.5254 68.759 71.5368 65.7359 72.9447 64.5266C74.3527 63.1158 75.5595 60.6973 75.5595 60.6973C75.5595 60.6973 75.1572 62.7127 74.7549 63.7204C74.3527 64.7281 73.9504 65.7359 73.9504 65.7359C73.9504 65.7359 77.772 64.1235 79.3811 64.1235C81.5936 64.1235 84.2083 62.9142 84.2083 62.9142C84.2083 62.9142 82.197 64.7281 80.5879 65.1312C78.7777 65.7359 76.364 66.1389 76.364 66.1389C76.364 66.1389 80.5879 66.1389 83.6049 66.1389C85.4152 66.1389 87.0243 66.1389 87.0243 66.1389C87.0243 66.1389 84.6106 66.7436 82.3981 67.1467C80.3868 67.5497 76.364 67.9528 76.364 67.9528C76.364 67.9528 80.1856 69.3636 84.4095 69.7667C86.0186 69.9683 89.0356 70.7744 89.0356 70.7744C89.0356 70.7744 85.0129 71.3791 83.4038 71.1775C81.5936 70.976 76.9674 71.5806 76.9674 71.5806C76.9674 71.5806 82.3981 73.193 83.2027 73.3945C84.0072 73.596 89.0356 76.0146 89.0356 76.0146C89.0356 76.0146 84.0072 75.4099 82.197 74.8053C80.3868 74.2007 77.3697 74.2007 77.3697 74.2007C77.3697 74.2007 82.197 76.2161 84.0072 77.6269C85.4152 78.8362 87.4265 80.247 87.4265 80.247C87.4265 80.247 83.8061 79.0377 82.5992 78.6346C81.3924 78.2316 78.3754 78.03 78.3754 78.03C78.3754 78.03 81.1913 81.2547 82.3981 82.2624C83.6049 83.2701 85.214 85.8902 85.214 85.8902C85.214 85.8902 82.197 84.0763 81.1913 83.4717C79.9845 82.8671 78.5765 82.0609 78.5765 82.0609C78.5765 82.0609 80.5879 86.4948 80.789 87.5026C81.3924 89.518 80.3868 91.5334 80.3868 91.5334C80.3868 91.5334 80.3868 88.9134 79.3811 87.0995C78.7777 85.8902 74.1515 82.464 74.1515 82.464L69.5254 68.759Z" fill="#898919"/>
<path d="M47.4007 71.379C47.4007 71.379 44.987 70.3713 42.7745 70.7744C40.562 71.1775 39.9586 71.379 39.9586 71.379C39.9586 71.379 41.97 71.379 42.7745 71.379C43.3779 71.379 43.9814 71.379 43.9814 71.379C43.9814 71.379 41.1654 72.9913 39.9586 73.9991C38.7518 75.0068 37.9473 77.6269 37.9473 77.6269C37.9473 77.6269 39.5564 75.813 40.562 75.2083C41.3666 74.6037 42.5734 74.2006 42.5734 74.2006C42.5734 74.2006 39.7575 77.8284 39.1541 79.2392C37.9473 82.2624 39.5564 85.084 39.5564 85.084C39.5564 85.084 39.5564 81.8593 40.3609 80.2469C41.1654 78.433 42.1711 77.6269 42.1711 77.6269C42.1711 77.6269 40.9643 83.6732 41.3666 85.487C41.7689 87.3009 43.5791 89.7195 45.5904 90.3241C47.6018 90.9287 52.0268 90.3241 52.0268 90.3241L47.4007 71.379Z" fill="#898919"/>
<path d="M58.8649 63.3171C65.3013 62.1079 75.157 63.3171 77.3695 77.8283C78.5763 86.6962 71.3354 96.3703 61.4797 96.1687C41.9695 95.7656 35.5331 68.1542 58.8649 63.3171Z" fill="#DDDD58"/>
<path d="M61.4799 64.1235C61.4799 64.1235 59.2674 68.1544 59.2674 73.7976C59.2674 77.0223 62.4856 83.4717 64.2958 88.1072C65.7037 91.5335 65.7037 94.3551 65.7037 94.3551L61.2787 87.9057C61.2787 87.9057 60.8765 90.1227 59.6697 91.9365C58.8651 93.1458 57.0549 94.3551 57.0549 94.3551C57.0549 94.3551 59.8708 83.2702 58.664 78.03C57.256 71.7822 52.6299 66.9451 52.6299 66.9451C52.6299 66.9451 54.6412 67.3482 55.4458 67.9529C56.2503 68.5575 57.4572 70.3714 57.4572 70.3714C57.4572 70.3714 57.8594 66.139 61.4799 64.1235Z" fill="#9E9B26"/>
<path d="M66.3076 67.7508C63.0894 68.3555 61.2792 69.9678 61.2792 69.9678C61.2792 69.9678 64.4973 68.9601 66.1064 68.9601C67.7155 68.7586 69.7269 69.5647 69.7269 69.5647C69.7269 69.5647 66.3076 70.5725 64.4973 71.1771C61.8826 71.9833 60.4746 73.1925 60.4746 73.1925C60.4746 73.1925 63.6928 72.5879 65.7042 71.9833C67.5144 71.3786 70.3303 70.9755 70.3303 70.9755C70.3303 70.9755 66.7098 72.991 65.3019 73.9987C62.8882 75.611 62.486 77.4249 62.486 77.4249C62.486 77.4249 66.7098 74.4018 67.3132 73.9987C67.7155 73.5956 71.1348 72.1848 71.1348 72.1848C71.1348 72.1848 67.5144 76.6188 66.911 77.2234C66.3076 77.6265 64.2962 79.6419 64.2962 79.6419C64.2962 79.6419 68.1178 77.2234 68.9223 76.4172C69.7269 75.611 71.7382 73.1925 71.7382 73.1925C71.7382 73.1925 69.928 77.4249 69.1235 78.6342C68.3189 79.6419 66.3076 82.262 66.3076 82.262C66.3076 82.262 68.9223 81.0527 70.5314 78.6342C71.336 77.4249 73.1462 74.8049 73.1462 74.8049C73.1462 74.8049 73.1462 78.0296 71.5371 80.8512C70.9337 81.8589 69.3246 84.2774 69.3246 84.2774C69.3246 84.2774 72.3417 82.0604 72.9451 80.8512C74.353 77.828 74.353 75.611 74.353 75.611C74.353 75.611 74.9564 80.2465 73.9507 83.2697C73.1462 85.6882 72.1405 87.9052 72.1405 87.9052C72.1405 87.9052 74.7553 85.0836 75.3587 81.8589C75.9621 78.6342 75.5598 74.4018 74.353 71.7817C72.9451 68.1539 69.5257 67.1462 66.3076 67.7508Z" fill="#9E9B26"/>
<path d="M48.0042 72.5879C51.0212 70.9756 53.2337 70.9756 53.2337 70.9756C53.2337 70.9756 50.2167 72.3864 48.8087 73.3941C47.4008 74.2003 46.3951 76.2157 46.3951 76.2157C46.3951 76.2157 49.6133 74.8049 51.4235 74.2003C54.0383 73.3941 55.6474 73.1926 55.6474 73.1926C55.6474 73.1926 52.6303 74.8049 50.8201 75.6111C49.0099 76.4173 46.5962 77.6265 46.5962 77.6265C46.5962 77.6265 50.619 77.0219 52.4292 76.8204C55.2451 76.6188 56.8542 77.6265 56.8542 77.6265C56.8542 77.6265 51.6246 78.0296 51.0212 78.0296C50.4178 78.0296 46.9985 78.8358 46.9985 78.8358C46.9985 78.8358 52.6303 80.045 53.4349 80.045C54.2394 80.045 57.0553 80.4481 57.0553 80.4481C57.0553 80.4481 52.4292 81.0528 51.4235 80.8512C50.4178 80.6497 47.1996 80.2466 47.1996 80.2466C47.1996 80.2466 51.2224 82.262 52.6303 82.8667C54.0383 83.2697 57.2565 83.8744 57.2565 83.8744C57.2565 83.8744 54.4405 84.479 51.8258 83.8744C50.4178 83.4713 47.4008 82.6651 47.4008 82.6651C47.4008 82.6651 49.4121 85.0836 52.4292 86.2929C53.4349 86.696 56.2508 87.5022 56.2508 87.5022C56.2508 87.5022 52.6303 87.7037 51.2224 87.0991C48.2053 85.6883 46.7974 83.8744 46.7974 83.8744C46.7974 83.8744 49.211 87.9052 51.8258 89.7191C53.8371 91.1299 56.0496 92.3392 56.0496 92.3392C56.0496 92.3392 52.228 91.7346 49.6133 89.7191C46.9985 87.5022 45.3894 84.6805 44.5849 81.8589C43.7803 77.8281 45.1883 74.2003 48.0042 72.5879Z" fill="#9E9B26"/>
<path d="M184.776 157.236C193.885 157.236 201.27 153.085 201.27 147.965C201.27 142.845 193.885 138.694 184.776 138.694C175.667 138.694 168.283 142.845 168.283 147.965C168.283 153.085 175.667 157.236 184.776 157.236Z" fill="#563835"/>
<path d="M182.363 122.57H180.754H163.054C163.054 122.57 164.462 142.926 168.887 149.98C172.507 155.825 179.547 156.027 181.961 156.027C185.38 156.027 197.247 155.825 201.068 149.98C205.493 143.128 206.901 122.57 206.901 122.57H182.363Z" fill="#563835"/>
<path d="M206.7 122.57C206.7 129.423 196.845 134.864 184.776 134.864C172.708 134.864 162.853 129.423 162.853 122.57C162.853 115.718 172.708 110.276 184.776 110.276C196.845 110.276 206.7 115.718 206.7 122.57Z" fill="#825A50"/>
<path d="M184.777 132.648C195.663 132.648 204.488 128.136 204.488 122.57C204.488 117.005 195.663 112.493 184.777 112.493C173.891 112.493 165.065 117.005 165.065 122.57C165.065 128.136 173.891 132.648 184.777 132.648Z" fill="#6D4D42"/>
<path d="M177.535 107.052C176.932 106.851 176.127 108.06 175.122 108.665C174.116 109.269 172.507 110.68 173.714 112.897C174.921 115.114 179.144 115.517 180.351 113.098C181.357 110.68 179.346 109.269 179.144 108.665C178.541 107.858 178.541 107.254 177.535 107.052Z" fill="white"/>
<path d="M177.737 113.3C177.536 112.695 176.932 112.292 176.128 112.695C175.323 113.098 176.128 113.904 176.731 114.106C177.334 114.307 177.938 114.106 177.737 113.3Z" fill="#F4729C"/>
<path d="M185.782 108.664C185.179 109.268 185.581 110.075 185.179 112.09C184.575 115.113 186.587 116.927 188.799 116.524C191.615 116.121 192.822 113.299 192.621 112.09C192.42 110.276 191.012 109.268 189 109.268C187.391 109.268 186.587 107.858 185.782 108.664Z" fill="white"/>
<path d="M190.408 113.3C189.805 113.3 189.201 113.904 189.201 114.912C189.201 115.92 190.408 115.517 190.81 114.912C191.213 114.308 191.213 113.3 190.408 113.3Z" fill="#F4729C"/>
<path d="M168.686 111.083C168.082 111.687 168.484 112.494 168.082 114.509C167.479 117.532 169.49 119.346 171.703 118.943C174.518 118.54 175.725 115.718 175.524 114.509C175.323 112.695 173.915 111.687 171.904 111.687C170.496 111.687 169.691 110.277 168.686 111.083Z" fill="#FFC1C0"/>
<path d="M173.512 115.719C172.909 115.719 172.306 116.323 172.306 117.331C172.306 118.339 173.512 117.936 173.915 117.331C174.116 116.726 174.317 115.719 173.512 115.719Z" fill="#F4A4A4"/>
<path d="M182.563 111.486C181.759 111.083 181.357 112.091 179.345 112.695C176.328 113.703 175.926 116.323 177.334 118.137C179.144 120.354 182.161 119.951 183.167 119.145C184.575 117.936 184.776 116.323 183.77 114.509C182.966 113.3 183.77 111.889 182.563 111.486Z" fill="#FFC1C0"/>
<path d="M180.954 117.935C180.753 117.331 179.748 117.129 178.943 117.734C178.138 118.137 179.144 118.943 179.748 119.145C180.552 119.145 181.357 118.741 180.954 117.935Z" fill="#F4A4A4"/>
<path d="M176.328 114.912C175.725 114.71 174.92 115.92 173.915 116.524C172.909 117.129 171.3 118.54 172.507 120.757C173.714 122.974 177.937 123.377 179.144 120.958C180.15 118.54 178.139 117.129 177.937 116.524C177.535 115.92 177.334 115.315 176.328 114.912Z" fill="white"/>
<path d="M176.53 121.16C176.329 120.555 175.725 120.152 174.921 120.555C174.116 120.958 174.921 121.765 175.524 121.966C176.127 122.168 176.932 121.966 176.53 121.16Z" fill="#F4729C"/>
<path d="M200.666 111.688C200.263 111.285 199.056 112.091 197.85 112.293C196.643 112.494 194.631 113.099 195.034 115.719C195.436 118.339 199.258 120.153 201.068 118.339C202.878 116.525 201.47 114.51 201.47 113.703C201.47 112.897 201.671 112.293 200.666 111.688Z" fill="white"/>
<path d="M198.855 117.533C198.855 116.928 198.251 116.324 197.447 116.324C196.642 116.324 197.045 117.533 197.447 117.936C197.849 118.339 198.654 118.541 198.855 117.533Z" fill="#F4729C"/>
<path d="M191.212 112.292C190.408 112.494 190.609 113.501 189.402 115.315C187.793 117.935 189 120.354 191.212 120.757C194.028 121.362 196.04 119.145 196.442 117.935C196.844 116.121 195.838 114.711 194.028 113.904C192.62 113.501 192.419 112.091 191.212 112.292Z" fill="#FFC1C0"/>
<path d="M193.827 118.339C193.224 117.935 192.419 118.339 192.017 119.346C191.615 120.354 192.821 120.354 193.425 119.951C194.229 119.548 194.632 118.742 193.827 118.339Z" fill="#F4A4A4"/>
<path d="M203.884 117.735C203.281 117.13 202.476 117.735 200.465 117.735C197.448 117.533 196.04 119.952 196.643 122.169C197.448 124.789 200.465 125.595 201.671 125.192C203.482 124.587 204.085 123.176 203.884 121.161C203.683 119.548 204.89 118.541 203.884 117.735Z" fill="#FFC1C0"/>
<path d="M200.263 123.176C200.263 122.37 199.459 121.967 198.453 122.169C197.447 122.37 198.051 123.378 198.654 123.781C199.257 123.982 200.263 123.982 200.263 123.176Z" fill="#F4A4A4"/>
<path d="M197.247 119.145C196.844 118.741 195.638 119.548 194.431 119.749C193.224 119.951 191.213 120.555 191.615 123.175C192.017 125.795 195.839 127.609 197.649 125.795C199.459 123.982 198.051 121.966 198.051 121.16C198.051 120.354 198.051 119.749 197.247 119.145Z" fill="white"/>
<path d="M195.236 124.99C195.236 124.385 194.632 123.78 193.828 123.78C193.023 123.78 193.426 124.99 193.828 125.393C194.431 125.796 195.236 125.997 195.236 124.99Z" fill="#F4729C"/>
<path d="M182.362 116.122C181.759 116.726 182.161 117.533 181.759 119.548C181.155 122.571 183.167 124.385 185.379 123.982C188.195 123.579 189.402 120.757 189.201 119.548C189 117.734 187.592 116.726 185.58 116.726C184.173 116.525 183.368 115.316 182.362 116.122Z" fill="white"/>
<path d="M187.189 120.556C186.586 120.556 185.982 121.16 185.982 122.168C185.982 123.176 187.189 122.773 187.592 122.168C187.793 121.765 187.994 120.757 187.189 120.556Z" fill="#F4729C"/>
<path d="M166.875 119.145C166.272 119.749 166.674 120.555 166.272 122.571C165.668 125.594 167.68 127.408 169.892 127.005C172.708 126.602 173.915 123.78 173.714 122.571C173.512 120.757 172.105 119.749 170.093 119.749C168.685 119.548 167.881 118.338 166.875 119.145Z" fill="white"/>
<path d="M171.501 123.78C170.897 123.78 170.294 124.385 170.294 125.393C170.294 126.4 171.501 125.997 171.903 125.393C172.305 124.788 172.506 123.78 171.501 123.78Z" fill="#F4729C"/>
<path d="M181.357 119.749C180.955 119.346 179.748 120.152 178.541 120.354C177.334 120.555 175.323 121.16 175.725 123.78C176.127 126.4 179.949 128.214 181.759 126.4C183.569 124.586 182.162 122.571 182.162 121.764C182.162 120.958 182.162 120.354 181.357 119.749Z" fill="#FFC1C0"/>
<path d="M179.345 125.594C179.345 124.989 178.742 124.385 177.937 124.385C177.133 124.385 177.535 125.594 177.937 125.997C178.541 126.4 179.345 126.602 179.345 125.594Z" fill="#F4A4A4"/>
<path d="M184.173 120.757C183.369 120.959 183.57 121.967 182.363 123.78C180.754 126.401 181.961 128.819 184.173 129.222C186.989 129.827 189.001 127.61 189.403 126.401C189.805 124.587 188.799 123.176 186.989 122.37C185.581 121.765 185.38 120.354 184.173 120.757Z" fill="#FFC1C0"/>
<path d="M186.788 126.602C186.185 126.199 185.38 126.602 184.978 127.609C184.576 128.617 185.782 128.617 186.386 128.214C187.19 127.811 187.593 127.005 186.788 126.602Z" fill="#F4A4A4"/>
<path d="M196.241 125.594C195.638 124.99 194.833 125.594 192.822 125.594C189.805 125.393 188.397 127.811 189 130.028C189.805 132.648 192.822 133.455 194.029 133.052C195.839 132.447 196.442 131.036 196.241 129.021C196.04 127.408 197.046 126.401 196.241 125.594Z" fill="#FFC1C0"/>
<path d="M192.419 131.036C192.419 130.23 191.615 129.827 190.609 130.028C189.603 130.23 190.207 131.238 190.81 131.641C191.414 131.842 192.419 131.842 192.419 131.036Z" fill="#F4A4A4"/>
<path d="M188.798 127.811C188.396 127.408 187.189 128.214 185.982 128.416C184.776 128.617 182.764 129.222 183.167 131.842C183.569 134.462 187.39 136.276 189.201 134.462C191.011 132.648 189.603 130.633 189.603 129.826C189.603 129.02 189.603 128.416 188.798 127.811Z" fill="white"/>
<path d="M186.788 133.656C186.788 133.051 186.184 132.447 185.38 132.447C184.575 132.447 184.977 133.656 185.38 134.059C185.983 134.462 186.788 134.664 186.788 133.656Z" fill="#F4729C"/>
<path d="M174.316 125.795C173.713 126.399 174.115 127.205 173.713 129.221C173.11 132.244 175.121 134.058 177.333 133.655C180.149 133.252 181.356 130.43 181.155 129.221C180.954 127.407 179.546 126.399 177.535 126.399C175.925 126.198 175.322 124.988 174.316 125.795Z" fill="white"/>
<path d="M178.942 130.43C178.339 130.43 177.735 131.035 177.735 132.043C177.735 133.05 178.942 132.647 179.344 132.043C179.747 131.438 179.948 130.43 178.942 130.43Z" fill="#F4729C"/>
<path d="M128.659 155.02C137.768 155.02 145.152 150.869 145.152 145.749C145.152 140.628 137.768 136.478 128.659 136.478C119.55 136.478 112.166 140.628 112.166 145.749C112.166 150.869 119.55 155.02 128.659 155.02Z" fill="#6D4D42"/>
<path d="M126.246 120.354H124.637H106.937C106.937 120.354 108.344 140.71 112.769 147.764C116.39 153.609 123.43 154.012 125.843 153.81C129.263 153.81 141.13 153.609 144.951 147.764C149.376 140.911 150.784 120.354 150.784 120.354H126.246V120.354Z" fill="#6D4D42"/>
<path d="M150.382 120.354C150.382 127.206 140.526 132.648 128.458 132.648C116.39 132.648 106.534 127.206 106.534 120.354C106.534 113.501 116.39 108.06 128.458 108.06C140.526 108.06 150.382 113.501 150.382 120.354Z" fill="#825A50"/>
<path d="M148.17 120.354C148.17 125.997 139.32 130.431 128.458 130.431C117.597 130.431 108.747 125.997 108.747 120.354C108.747 114.711 117.597 110.277 128.458 110.277C139.521 110.277 148.17 114.711 148.17 120.354Z" fill="#6D4D42"/>
<path d="M135.497 106.044C135.497 106.044 136.503 103.424 137.911 101.409C139.319 99.1919 138.313 99.1918 138.313 97.781C138.112 96.5718 139.319 95.9672 139.922 96.7733C140.324 97.5795 140.928 99.1919 141.933 97.9826C142.939 96.9749 144.548 97.378 144.347 98.7888C144.347 99.998 143.14 101.207 144.146 101.207C145.554 101.207 146.157 103.021 145.353 103.626C144.146 104.432 141.933 102.618 142.537 104.029C143.14 105.44 142.939 107.052 141.732 106.447C140.123 105.641 141.33 103.626 140.123 104.23C138.916 104.835 137.307 107.455 137.307 107.455L135.497 106.044Z" fill="#9E9B26"/>
<path d="M136.905 104.431C133.486 106.648 131.877 111.082 129.865 114.509C128.458 117.129 127.05 119.95 125.642 122.772C126.245 123.376 127.05 123.981 128.055 124.384C131.877 120.353 134.089 116.322 137.71 110.679C139.922 107.858 138.715 105.439 136.905 104.431Z" fill="#FBBF53"/>
<path d="M131.273 107.253C129.262 111.083 127.452 115.113 125.843 118.338C125.843 118.54 125.843 118.54 125.843 118.741C125.843 120.354 125.642 122.167 125.642 123.78C127.251 120.152 128.86 116.323 129.865 114.71C131.676 111.284 133.285 106.85 136.905 104.633C135.095 103.827 132.681 104.23 131.273 107.253Z" fill="#EA9628"/>
<path d="M131.877 109.268C131.877 109.268 133.285 108.865 134.492 109.672C135.699 110.478 135.9 112.09 135.9 112.09C135.9 112.09 135.296 111.485 134.291 110.478C133.285 109.873 131.877 109.268 131.877 109.268Z" fill="#EA9628"/>
<path d="M128.658 114.913C128.658 114.913 130.066 114.51 131.273 115.316C132.48 116.122 132.681 117.734 132.681 117.734C132.681 117.734 132.078 117.13 131.072 116.122C130.066 115.517 128.658 114.913 128.658 114.913Z" fill="#EA9628"/>
<path d="M129.664 110.478C129.664 110.478 130.67 110.679 131.877 111.082C132.882 111.485 133.284 112.695 133.284 112.695L129.463 111.082L129.664 110.478Z" fill="#EA9628"/>
<path d="M126.849 116.122C126.849 116.122 127.854 116.324 129.061 116.727C130.067 117.13 130.469 118.339 130.469 118.339L126.647 116.727L126.849 116.122Z" fill="#EA9628"/>
<path d="M131.273 113.502C131.273 113.502 133.084 113.502 133.888 113.905C134.492 114.308 135.095 115.316 135.095 115.316L134.492 116.122C134.492 116.122 133.084 114.107 131.273 113.502Z" fill="#EA9628"/>
<path d="M127.653 118.541C127.653 118.541 128.659 118.339 130.268 118.944C131.073 119.347 131.475 120.354 131.475 120.354L131.073 120.959C130.872 121.161 129.464 119.347 127.653 118.541Z" fill="#EA9628"/>
<path d="M125.642 120.757C125.642 120.757 126.848 120.354 127.854 121.16C128.86 121.765 128.86 123.176 128.86 123.176C128.86 123.176 128.458 122.571 127.653 121.966C126.848 121.16 125.642 120.757 125.642 120.757Z" fill="#EA9628"/>
<path d="M141.934 110.276C141.934 110.276 143.14 107.656 144.548 105.843C146.157 103.827 145.152 103.626 145.152 102.416C145.152 101.207 146.359 100.602 146.761 101.61C147.163 102.618 147.565 104.029 148.772 103.021C149.979 102.013 151.387 102.618 151.186 104.029C150.985 105.238 149.979 106.246 150.985 106.447C152.393 106.649 152.996 108.261 151.99 108.866C150.784 109.672 148.571 107.656 149.174 109.067C149.778 110.478 149.376 112.09 148.169 111.486C146.761 110.68 147.968 108.664 146.761 109.067C145.554 109.47 143.744 112.09 143.744 112.09L141.934 110.276Z" fill="#9E9B26"/>
<path d="M143.342 108.865C139.722 110.88 137.71 115.113 135.699 118.337C134.09 120.957 129.665 127.608 128.257 130.43C129.263 130.43 129.866 130.43 131.073 130.43C131.676 129.825 134.894 126.802 135.498 126.197C138.515 122.973 140.727 119.748 144.147 115.314C146.158 112.291 145.152 109.872 143.342 108.865Z" fill="#FBBF53"/>
<path d="M143.342 108.865C141.733 108.059 139.118 108.462 137.509 111.284C132.279 120.353 127.251 130.43 127.251 130.43C127.251 130.43 128.056 130.43 128.458 130.43C130.067 127.81 133.888 120.958 135.699 118.338C137.71 115.113 139.721 110.881 143.342 108.865Z" fill="#EA9628"/>
<path d="M138.112 113.299C138.112 113.299 139.52 112.896 140.727 113.904C141.934 114.912 141.934 116.524 141.934 116.524C141.934 116.524 141.33 115.718 140.526 114.912C139.52 113.904 138.112 113.299 138.112 113.299Z" fill="#EA9628"/>
<path d="M134.291 118.74C134.291 118.74 135.699 118.337 136.906 119.345C138.113 120.353 138.113 121.965 138.113 121.965C138.113 121.965 137.509 121.159 136.705 120.353C135.699 119.345 134.291 118.74 134.291 118.74Z" fill="#EA9628"/>
<path d="M135.698 114.307C135.698 114.307 136.704 114.508 137.709 115.113C138.715 115.717 138.916 116.927 138.916 116.927L135.095 115.113L135.698 114.307Z" fill="#EA9628"/>
<path d="M132.48 119.748C132.48 119.748 133.486 119.95 134.492 120.554C135.497 121.159 135.699 122.368 135.699 122.368L131.877 120.554L132.48 119.748Z" fill="#EA9628"/>
<path d="M137.106 117.33C137.106 117.33 138.917 117.532 139.52 117.935C140.123 118.338 140.727 119.346 140.727 119.346L140.123 120.152C140.123 120.353 138.716 118.136 137.106 117.33Z" fill="#EA9628"/>
<path d="M133.084 122.167C133.084 122.167 134.09 121.965 135.498 122.772C136.101 123.175 136.704 124.384 136.704 124.384L136.101 124.989C136.302 124.989 134.894 123.175 133.084 122.167Z" fill="#EA9628"/>
<path d="M131.072 124.183C131.072 124.183 132.279 123.981 133.084 124.586C133.888 125.392 134.089 126.601 134.089 126.601C134.089 126.601 133.687 125.997 132.882 125.392C132.078 124.787 131.072 124.183 131.072 124.183Z" fill="#EA9628"/>
<path d="M147.969 113.905C147.969 113.905 149.176 111.285 150.584 109.471C152.193 107.455 151.187 107.254 151.187 106.044C151.187 104.835 152.394 104.231 152.796 105.238C153.198 106.246 153.601 107.657 154.807 106.649C156.014 105.641 157.422 106.246 157.221 107.657C157.02 108.866 156.014 109.874 157.02 110.075C158.428 110.277 159.031 111.889 158.026 112.494C156.819 113.3 154.606 111.285 155.21 112.695C155.813 114.106 155.411 115.719 154.204 115.114C152.796 114.308 154.003 112.292 152.796 112.695C151.589 113.098 149.779 115.719 149.779 115.719L147.969 113.905Z" fill="#9E9B26"/>
<path d="M149.577 112.494C145.957 114.51 143.945 118.742 141.934 121.967C140.325 124.385 138.917 127.005 137.509 129.424C139.922 128.819 142.336 127.61 144.347 126.401C146.158 124.184 147.968 121.564 150.18 118.742C152.192 115.92 151.387 113.3 149.577 112.494Z" fill="#FBBF53"/>
<path d="M143.745 114.711C138.515 123.579 135.297 129.625 135.096 129.827C135.699 129.827 136.504 129.625 137.308 129.424C138.716 127.005 140.325 124.385 141.733 121.966C143.745 118.54 145.756 114.308 149.376 112.494C147.767 111.486 145.354 111.889 143.745 114.711Z" fill="#EA9628"/>
<path d="M144.146 116.726C144.146 116.726 145.554 116.323 146.761 117.331C147.968 118.338 147.968 119.951 147.968 119.951C147.968 119.951 147.365 119.145 146.56 118.338C145.554 117.532 144.146 116.726 144.146 116.726Z" fill="#EA9628"/>
<path d="M140.325 122.168C140.325 122.168 141.733 121.765 142.94 122.773C144.147 123.78 144.147 125.393 144.147 125.393C144.147 125.393 143.543 124.788 142.739 123.78C141.733 122.974 140.325 122.168 140.325 122.168Z" fill="#EA9628"/>
<path d="M141.733 117.734C141.733 117.734 142.739 117.936 143.745 118.541C144.75 119.145 144.951 120.354 144.951 120.354L141.13 118.541L141.733 117.734Z" fill="#EA9628"/>
<path d="M138.716 123.377C138.716 123.377 139.721 123.579 140.727 124.184C141.733 124.788 141.934 125.998 141.934 125.998L138.112 124.184L138.716 123.377Z" fill="#EA9628"/>
<path d="M143.142 120.958C143.142 120.958 144.952 121.16 145.555 121.563C146.159 121.966 146.762 122.974 146.762 122.974L146.159 123.78C146.159 123.78 144.751 121.765 143.142 120.958Z" fill="#EA9628"/>
<path d="M116.591 108.261C116.591 108.261 116.792 105.439 117.597 103.222C118.401 100.804 117.395 100.804 116.993 99.7962C116.591 98.587 117.395 97.7808 118.2 98.3854C119.004 99.1916 119.809 100.401 120.614 98.9901C121.418 97.5793 123.027 97.7808 123.228 98.9901C123.429 100.199 122.826 101.61 123.832 101.207C125.24 100.804 126.245 102.416 125.642 103.222C124.837 104.432 122.022 103.222 123.027 104.432C124.033 105.641 124.234 107.253 122.826 107.052C121.217 106.649 121.619 104.432 120.614 105.238C119.608 106.044 118.803 109.067 118.803 109.067L116.591 108.261Z" fill="#9E9B26"/>
<path d="M117.597 106.446C114.781 109.469 114.378 114.105 113.574 117.934C112.971 120.554 112.367 123.174 111.965 125.593C112.166 125.794 113.172 126.601 114.781 127.407C116.993 122.771 118.401 118.136 120.211 112.09C121.217 108.865 119.608 106.849 117.597 106.446Z" fill="#FBBF53"/>
<path d="M111.964 125.795C112.367 123.175 112.97 120.555 113.573 117.935C114.378 114.105 114.78 109.47 117.596 106.447C115.786 106.245 113.573 107.454 112.97 110.679C111.763 117.532 110.959 121.966 110.556 124.384C110.355 124.384 111.361 125.392 111.964 125.795Z" fill="#EA9628"/>
<path d="M113.976 112.292C113.976 112.292 115.182 111.486 116.59 111.889C117.998 112.292 118.602 113.904 118.602 113.904C118.602 113.904 117.797 113.501 116.59 112.896C115.585 112.493 113.976 112.292 113.976 112.292Z" fill="#EA9628"/>
<path d="M112.366 118.741C112.366 118.741 113.573 117.935 114.981 118.338C116.389 118.741 116.992 120.353 116.992 120.353C116.992 120.353 116.188 119.95 114.981 119.346C113.774 118.943 112.366 118.741 112.366 118.741Z" fill="#EA9628"/>
<path d="M112.166 114.105C112.166 114.105 113.172 113.904 114.379 114.105C115.585 114.307 116.189 115.314 116.189 115.314L112.166 114.911V114.105Z" fill="#EA9628"/>
<path d="M110.959 120.353C110.959 120.353 111.965 120.152 113.171 120.353C114.378 120.555 114.982 121.563 114.982 121.563L110.959 121.159V120.353Z" fill="#EA9628"/>
<path d="M114.579 116.524C114.579 116.524 116.389 116.121 117.194 116.323C117.998 116.524 118.803 117.33 118.803 117.33L118.401 118.338C118.401 118.338 116.389 116.927 114.579 116.524Z" fill="#EA9628"/>
<path d="M112.366 122.571C112.366 122.571 113.372 121.966 114.981 122.369C115.786 122.571 116.59 123.377 116.59 123.377L116.389 124.183C116.188 123.981 114.378 122.772 112.366 122.571Z" fill="#EA9628"/>
<path d="M123.832 110.881C123.832 110.881 124.234 108.059 125.24 105.842C126.246 103.424 125.24 103.424 124.838 102.214C124.435 101.005 125.441 100.199 126.045 101.005C126.648 101.811 127.452 103.021 128.257 101.811C129.062 100.602 130.671 100.804 130.872 102.013C131.073 103.222 130.268 104.431 131.274 104.431C132.682 104.23 133.688 105.641 132.883 106.447C131.877 107.455 129.263 106.245 130.268 107.455C131.274 108.664 131.274 110.478 129.866 110.075C128.257 109.672 128.86 107.455 127.855 108.261C126.849 109.067 125.843 112.09 125.843 112.09L123.832 110.881Z" fill="#9E9B26"/>
<path d="M125.039 109.068C122.022 111.89 121.418 116.525 120.211 120.355C119.407 123.176 118.602 125.796 117.798 128.82C118.804 129.223 120.01 129.424 121.016 129.626C123.631 125.192 124.838 120.959 127.251 114.913C128.458 111.89 127.05 109.673 125.039 109.068Z" fill="#FBBF53"/>
<path d="M117.798 128.819C118.602 125.997 119.205 123.176 120.01 120.354C121.217 116.525 121.82 111.889 124.837 109.068C123.027 108.665 120.815 109.672 119.809 112.897C117.194 122.974 115.987 128.013 115.987 128.013C115.987 128.013 117.395 128.618 117.798 128.819Z" fill="#EA9628"/>
<path d="M121.016 114.711C121.016 114.711 122.424 113.904 123.63 114.509C124.837 115.114 125.441 116.726 125.441 116.726C125.441 116.726 124.636 116.121 123.63 115.517C122.625 115.114 121.016 114.711 121.016 114.711Z" fill="#EA9628"/>
<path d="M119.004 121.16C119.004 121.16 120.412 120.354 121.619 120.958C123.027 121.563 123.429 123.175 123.429 123.175C123.429 123.175 122.624 122.571 121.619 121.966C120.412 121.361 119.004 121.16 119.004 121.16Z" fill="#EA9628"/>
<path d="M119.205 116.323C119.205 116.323 120.211 116.323 121.418 116.525C122.624 116.726 123.027 117.936 123.027 117.936L119.004 117.129L119.205 116.323Z" fill="#EA9628"/>
<path d="M117.597 122.571C117.597 122.571 118.602 122.571 119.809 122.773C121.016 122.974 121.418 124.184 121.418 124.184L117.396 123.377L117.597 122.571Z" fill="#EA9628"/>
<path d="M121.217 119.145C121.217 119.145 123.027 118.742 123.832 118.943C124.636 119.145 125.24 120.152 125.24 120.152L124.837 121.16C124.837 120.959 123.027 119.346 121.217 119.145Z" fill="#EA9628"/>
<path d="M118.803 124.788C118.803 124.788 119.808 124.385 121.418 124.586C122.222 124.788 123.027 125.795 123.027 125.795L122.624 126.602C122.624 126.602 120.613 125.191 118.803 124.788Z" fill="#EA9628"/>
<path d="M117.194 127.408C117.194 127.408 118.2 126.804 119.407 127.207C120.413 127.61 120.815 129.021 120.815 129.021C120.815 129.021 120.211 128.618 119.407 128.013C118.401 127.61 117.194 127.408 117.194 127.408Z" fill="#EA9628"/>
<path d="M130.671 112.695C130.671 112.695 131.073 109.874 132.079 107.657C133.085 105.238 132.079 105.238 131.677 104.029C131.274 102.82 132.28 102.013 132.883 102.82C133.487 103.626 134.291 104.835 135.096 103.626C135.9 102.417 137.51 102.618 137.711 103.827C137.912 105.037 137.107 106.246 138.113 106.246C139.521 106.044 140.527 107.455 139.722 108.261C138.716 109.269 136.102 108.06 137.107 109.269C138.113 110.478 138.113 112.292 136.705 111.889C135.096 111.486 135.699 109.269 134.694 110.075C133.688 110.881 132.682 113.905 132.682 113.905L130.671 112.695Z" fill="#9E9B26"/>
<path d="M131.676 110.88C128.659 113.702 128.056 118.337 126.849 122.167C126.045 124.787 125.24 127.608 124.637 130.229C125.039 130.229 127.453 130.229 128.056 130.229C130.269 125.996 131.676 122.167 133.889 116.524C135.297 113.5 133.688 111.485 131.676 110.88Z" fill="#FBBF53"/>
<path d="M124.636 130.43C125.24 127.81 126.044 124.988 126.849 122.368C128.056 118.539 128.659 113.904 131.676 111.082C129.866 110.679 127.653 111.687 126.648 114.911C124.033 124.988 122.826 130.027 122.826 130.027C122.826 130.027 124.033 130.229 124.636 130.43Z" fill="#EA9628"/>
<path d="M127.854 116.524C127.854 116.524 129.262 115.717 130.469 116.322C131.877 116.927 132.279 118.539 132.279 118.539C132.279 118.539 131.475 117.934 130.469 117.33C129.262 116.927 127.854 116.524 127.854 116.524Z" fill="#EA9628"/>
<path d="M125.643 122.772C125.643 122.772 127.051 121.965 128.257 122.57C129.665 123.175 130.068 124.787 130.068 124.787C130.068 124.787 129.263 124.182 128.257 123.578C127.051 123.175 125.643 122.772 125.643 122.772Z" fill="#EA9628"/>
<path d="M125.844 118.136C125.844 118.136 126.849 118.136 128.056 118.337C129.263 118.539 129.665 119.748 129.665 119.748L125.643 118.942L125.844 118.136Z" fill="#EA9628"/>
<path d="M124.234 124.384C124.234 124.384 125.24 124.384 126.447 124.586C127.654 124.787 128.056 125.997 128.056 125.997L124.033 125.19L124.234 124.384Z" fill="#EA9628"/>
<path d="M127.854 120.958C127.854 120.958 129.665 120.555 130.469 120.756C131.274 120.958 131.877 121.965 131.877 121.965L131.676 122.772C131.676 122.772 129.866 121.159 127.854 120.958Z" fill="#EA9628"/>
<path d="M125.441 126.601C125.441 126.601 126.447 126.198 128.056 126.399C128.861 126.601 129.665 127.608 129.665 127.608L129.263 128.213C129.263 128.415 127.453 127.004 125.441 126.601Z" fill="#EA9628"/>
<path d="M174.116 180.414C174.116 185.452 166.674 189.685 157.623 189.685C148.572 189.685 141.13 185.452 141.13 180.414C141.13 175.375 148.572 171.143 157.623 171.143C166.674 171.143 174.116 175.173 174.116 180.414Z" fill="#563835"/>
<path d="M155.411 155.019H153.802H136.102C136.102 155.019 137.51 175.375 141.935 182.429C145.555 188.274 152.595 188.677 155.008 188.475C158.428 188.475 170.295 188.274 174.116 182.429C178.541 175.576 179.949 155.019 179.949 155.019H155.411Z" fill="#563835"/>
<path d="M179.547 155.019C179.547 161.871 169.691 167.313 157.623 167.313C145.555 167.313 135.699 161.871 135.699 155.019C135.699 148.166 145.555 142.724 157.623 142.724C169.691 142.523 179.547 148.166 179.547 155.019Z" fill="#825A50"/>
<path d="M177.335 155.019C177.335 160.662 168.485 165.096 157.623 165.096C146.762 165.096 137.912 160.662 137.912 155.019C137.912 149.376 146.762 144.942 157.623 144.942C168.485 144.942 177.335 149.376 177.335 155.019Z" fill="#6D4D42"/>
<path d="M151.187 139.499C150.784 140.104 150.583 143.127 149.98 144.538C149.376 145.949 147.767 149.778 147.968 151.592C148.17 153.406 151.388 153.406 152.997 153.003C154.405 152.6 158.226 149.576 156.818 145.344C155.008 140.91 153.198 136.678 151.187 139.499Z" fill="#F4729C"/>
<path d="M154.606 140.507C154.606 140.507 154.404 139.701 152.997 137.686C152.393 136.275 152.594 135.469 151.991 135.065C151.79 135.065 151.387 135.267 151.186 135.469C150.985 136.073 152.192 137.081 151.79 137.686C150.784 138.895 150.985 140.306 150.985 140.306C150.985 140.306 151.991 138.895 152.594 138.895C153.198 139.096 154.606 140.507 154.606 140.507Z" fill="#9E9B26"/>
<path d="M158.226 142.725C158.226 142.725 158.025 141.314 158.83 140.911C159.433 140.508 161.243 139.097 161.243 139.097C161.243 139.097 161.847 139.299 161.847 139.702C161.847 140.105 160.841 140.508 160.841 140.911C160.841 141.314 161.646 142.523 161.646 142.523C161.646 142.523 160.037 143.934 158.226 142.725Z" fill="#9E9B26"/>
<path d="M159.031 153.004C160.238 149.981 161.847 144.942 160.439 141.717C159.836 141.717 159.031 141.919 158.629 142.12C157.221 142.927 157.422 145.144 156.014 147.361C154.606 149.577 152.394 150.787 151.991 154.011C151.589 156.632 153.198 157.841 154.606 158.244C155.21 158.042 155.612 157.841 156.014 157.438C157.623 156.631 158.428 154.818 159.031 153.004Z" fill="#E55C8D"/>
<path d="M162.25 146.957C162.451 143.128 161.445 141.919 160.238 141.717C161.847 144.942 160.037 149.981 158.83 153.004C158.227 154.818 157.422 156.632 155.813 157.639C155.411 158.042 154.808 158.244 154.405 158.445C155.612 158.848 157.02 158.848 157.02 158.848C157.02 158.848 162.048 155.624 162.25 146.957Z" fill="#C94580"/>
<path d="M168.686 147.964C169.088 146.352 171.502 142.724 170.094 140.91C168.284 140.709 165.87 142.926 163.657 146.15C161.244 149.375 159.434 156.429 159.434 156.429C159.434 156.429 161.445 156.429 163.657 157.235C164.864 156.026 166.473 155.018 167.077 154.01C168.284 151.995 168.284 149.98 168.686 147.964Z" fill="#F4729C"/>
<path d="M168.485 156.832C171.904 153.809 171.904 149.375 171.3 147.561C170.898 145.747 172.909 141.313 170.295 140.91C171.502 142.724 169.289 146.352 168.887 147.964C168.283 149.98 168.283 151.995 167.077 153.809C166.272 155.018 164.864 156.026 163.657 157.034C165.266 157.84 167.278 158.041 168.485 156.832Z" fill="#C94580"/>
<path d="M168.083 141.515C168.083 141.515 168.485 140.305 170.698 139.499C172.106 138.894 172.508 138.088 173.111 138.29C173.313 138.29 173.514 138.894 173.313 139.096C173.111 139.701 171.502 139.499 171.502 140.305C171.502 141.918 170.497 142.724 170.497 142.724C170.497 142.724 170.698 140.91 170.094 140.708C169.692 140.507 168.083 141.515 168.083 141.515Z" fill="#9E9B26"/>
<path d="M145.153 142.725C145.153 142.725 145.153 141.314 145.757 140.911C146.36 140.508 148.372 139.298 148.372 139.298C148.372 139.298 148.975 139.5 148.774 139.903C148.774 140.306 147.768 140.709 147.567 141.112C147.567 141.515 148.17 142.725 148.17 142.725C148.17 142.725 146.762 144.135 145.153 142.725Z" fill="#9E9B26"/>
<path d="M145.153 153.205C146.561 150.182 148.572 145.345 147.164 142.12C146.561 141.919 145.756 142.12 145.354 142.523C143.946 143.128 143.946 145.546 142.337 147.562C140.728 149.577 138.515 150.786 137.711 154.011C137.108 156.631 138.516 157.84 140.125 158.445C140.728 158.244 141.13 158.042 141.734 157.84C143.544 156.631 144.348 154.817 145.153 153.205Z" fill="#E55C8D"/>
<path d="M148.773 147.36C149.175 143.531 148.169 142.322 147.164 142.12C148.371 145.546 146.359 150.383 145.152 153.205C144.348 154.817 143.543 156.631 141.733 157.639C141.331 157.841 140.727 158.042 140.124 158.244C141.331 158.848 142.538 158.848 142.538 158.848C142.538 158.848 147.968 156.027 148.773 147.36Z" fill="#C94580"/>
<path d="M177.335 148.367C177.335 148.367 177.737 147.158 178.542 146.957C179.346 146.755 181.559 146.352 181.559 146.352C181.559 146.352 181.961 146.755 181.76 146.957C181.559 147.36 180.553 147.36 180.352 147.561C180.151 147.763 180.352 149.375 180.352 149.375C180.352 149.375 178.341 150.181 177.335 148.367Z" fill="#9E9B26"/>
<path d="M174.117 158.243C176.329 155.825 179.748 151.995 179.748 148.368C179.145 147.965 178.542 147.965 177.938 148.166C176.329 148.368 175.726 150.585 173.513 151.995C171.301 153.406 168.887 153.809 167.077 156.631C165.669 158.848 166.675 160.46 167.881 161.67C168.485 161.67 168.887 161.67 169.491 161.67C171.502 160.863 172.91 159.453 174.117 158.243Z" fill="#E55C8D"/>
<path d="M179.347 153.81C180.956 150.383 180.553 148.771 179.548 148.167C179.749 151.794 176.33 155.624 173.916 158.042C172.709 159.453 171.301 160.864 169.29 161.267C168.686 161.468 168.083 161.468 167.681 161.267C168.686 162.073 169.893 162.678 169.893 162.678C169.893 162.678 175.927 161.67 179.347 153.81Z" fill="#C94580"/>
<path d="M151.187 155.018C151.589 153.406 154.003 149.778 152.595 147.964C150.785 147.762 148.371 149.979 146.158 153.204C143.745 156.429 141.935 162.072 141.935 162.072C141.935 162.072 143.946 163.483 146.158 164.087C147.365 162.878 148.974 161.87 149.578 160.863C150.785 159.25 150.583 157.033 151.187 155.018Z" fill="#E55C8D"/>
<path d="M150.985 164.088C154.405 161.065 154.405 156.631 153.801 154.817C153.399 153.003 155.41 148.569 152.595 148.166C153.801 149.98 151.589 153.608 151.187 155.22C150.583 157.235 150.583 159.251 149.376 161.065C148.572 162.274 147.164 163.282 145.957 164.289C147.767 164.894 149.779 165.096 150.985 164.088Z" fill="#C94580"/>
<path d="M150.382 148.77C150.382 148.77 150.784 147.561 152.997 146.755C154.405 146.15 154.807 145.344 155.41 145.546C155.611 145.546 155.813 146.15 155.611 146.352C155.41 146.957 153.801 146.755 153.801 147.561C153.801 149.174 152.795 149.98 152.795 149.98C152.795 149.98 152.997 148.166 152.393 147.964C152.192 147.763 150.382 148.77 150.382 148.77Z" fill="#9E9B26"/>
<path d="M164.663 154.212C164.663 154.212 165.468 153.205 166.272 153.205C167.077 153.205 169.289 153.406 169.289 153.406C169.289 153.406 169.691 153.809 169.289 154.212C168.887 154.414 167.881 154.212 167.68 154.414C167.479 154.615 167.278 156.228 167.278 156.228C167.278 156.228 165.065 156.228 164.663 154.212Z" fill="#9E9B26"/>
<path d="M158.428 162.475C161.243 160.863 165.87 158.243 166.875 154.817C166.473 154.212 165.668 154.011 165.266 154.011C163.858 153.809 162.45 155.623 159.835 156.228C157.422 156.832 154.807 156.429 152.393 158.646C150.382 160.46 150.784 162.274 151.589 163.685C152.192 163.886 152.595 164.088 153.198 164.088C155.209 164.289 156.818 163.282 158.428 162.475Z" fill="#E55C8D"/>
<path d="M166.875 154.816C165.87 158.243 161.445 160.863 158.428 162.475C156.818 163.281 155.008 164.289 153.198 164.087C152.595 164.087 152.192 163.886 151.589 163.684C151.79 163.886 151.991 164.087 151.991 164.289C153.198 165.297 155.612 165.095 157.422 165.095C159.634 164.49 162.249 163.08 165.065 160.057C167.479 157.235 167.68 155.623 166.875 154.816Z" fill="#C94580"/>
<path d="M161.646 164.894C162.652 164.692 163.657 164.692 164.462 164.491C167.077 163.281 169.49 160.46 170.697 158.243C170.496 158.041 170.094 157.84 169.49 157.638C168.887 157.437 166.071 158.646 164.462 159.049C162.853 159.251 158.83 159.452 157.221 160.46C156.617 160.863 156.416 161.468 156.617 162.072C157.221 164.692 159.232 164.692 161.042 165.095C161.445 164.894 161.646 164.894 161.646 164.894Z" fill="#F4729C"/>
<path d="M168.887 163.08C170.697 160.863 171.904 159.049 170.898 158.042C169.49 160.46 167.278 163.282 164.663 164.289C166.071 164.088 167.479 163.685 168.887 163.08Z" fill="#E55C8D"/>
<path d="M170.496 161.065C170.496 161.065 171.099 160.46 172.105 158.445C173.111 157.236 173.915 157.034 173.915 156.228C173.915 156.026 173.312 155.825 173.111 155.825C172.507 155.825 172.306 157.437 171.501 157.236C169.892 156.832 168.887 157.84 168.887 157.84C168.887 157.84 170.697 158.042 170.898 158.646C171.099 159.049 170.496 161.065 170.496 161.065Z" fill="#9E9B26"/>
</g>
<defs>
<clipPath id="clip0_1459_509">
<rect width="194.7" height="167.684" fill="white" transform="translate(12 22)"/>
</clipPath>
</defs>
</svg>
