<svg width="224" height="224" viewBox="0 0 224 224" fill="none" xmlns="http://www.w3.org/2000/svg">
<circle cx="112" cy="112" r="112" fill="#DEE3F0"/>
<g clip-path="url(#clip0_1459_731)">
<path d="M133.79 31.8229C133.324 32.2887 132.579 32.5682 131.833 32.5682C130.529 32.5682 129.132 31.7298 129.039 29.9598C128.759 25.0224 125.219 22.8798 121.679 22.8798C118.232 22.8798 114.599 25.0224 114.413 29.8666V151.903C114.413 153.58 113.016 154.512 111.711 154.512C110.407 154.512 109.01 153.58 109.01 151.903V29.9598V29.8666V29.7734C109.476 22.7866 114.506 17.6629 121.679 17.2903C121.866 17.2903 122.052 17.2903 122.331 17.2903C129.411 17.2903 134.069 23.8113 134.442 29.9598C134.442 30.705 134.256 31.264 133.79 31.8229Z" fill="#2D458A"/>
<path d="M55.0715 69.9244C61.22 69.9244 66.53 68.3407 69.2315 63.217C71.9331 68.3407 77.2431 69.9244 83.3915 69.9244C89.54 69.9244 94.85 68.3407 97.5515 63.217C100.253 68.3407 105.563 69.9244 111.712 69.9244C117.86 69.9244 123.17 68.3407 125.872 63.217C128.573 68.3407 133.883 69.9244 140.032 69.9244C146.18 69.9244 151.49 68.3407 154.192 63.217C156.893 68.3407 162.203 69.9244 168.352 69.9244C174.22 69.9244 179.344 68.6202 182.139 63.8691C178.133 99.2691 148.136 124.888 111.618 124.888C75.2868 124.888 45.29 99.176 41.2842 63.8691C44.0789 68.527 49.2026 69.9244 55.0715 69.9244Z" fill="#C6CFE6"/>
<path d="M111.804 124.888C65.9707 118.553 69.2312 63.1243 69.2312 63.1243C71.9328 68.248 77.2428 69.8316 83.3912 69.8316C89.5397 69.8316 94.8497 68.248 97.5512 63.1243C90.3781 112.032 111.804 124.888 111.804 124.888Z" fill="white"/>
<path d="M111.805 124.888C111.805 124.888 133.231 112.125 125.965 63.2172C128.666 68.3408 133.976 69.9245 140.125 69.9245C146.273 69.9245 151.583 68.3408 154.285 63.2172C154.285 63.124 157.545 118.553 111.805 124.888Z" fill="white"/>
<path d="M163.694 170.348C163.694 170.348 142.733 203.606 163.694 205.841C183.909 202.953 163.694 170.348 163.694 170.348Z" fill="#FDFFFF"/>
<path d="M133.976 127.496C132.859 127.496 131.648 127.589 130.623 128.148C129.505 128.8 128.853 129.732 128.946 131.129C129.039 132.433 129.878 133.085 130.995 133.458C132.486 134.017 134.07 133.738 135.56 133.831C136.305 133.831 137.051 133.831 137.703 133.831C140.218 133.831 140.218 133.831 140.218 136.346C140.218 137.184 139.939 137.65 139.1 137.93C136.492 138.954 134.629 140.724 133.79 143.426C133.511 144.358 133.045 144.637 132.113 144.544C128.294 144.544 112.084 144.544 108.265 144.544C106.588 144.544 106.309 144.823 106.309 146.5C106.309 149.761 106.309 152.928 106.309 156.189C106.309 157.586 106.774 158.052 108.172 158.052C112.271 157.959 128.76 158.052 132.859 158.052C133.511 158.052 134.163 158.052 134.629 158.797C136.771 162.523 140.311 163.641 144.224 163.548C147.578 163.455 150.652 162.43 152.701 159.356C153.074 158.797 153.26 157.959 154.192 158.238C155.123 158.424 155.869 158.983 156.241 159.915C156.428 160.567 156.521 161.219 156.428 161.964C156.334 162.71 156.334 163.548 156.334 164.293C156.428 165.97 157.173 166.995 158.756 167.274C161.924 167.74 165.184 167.74 168.445 167.181C169.935 166.902 170.681 165.877 170.774 164.48C171.799 154.605 165.65 146.593 155.775 145.196C154.564 145.01 153.819 144.637 153.54 143.333C152.888 140.631 150.838 139.234 148.509 138.116C147.484 137.65 146.832 135.228 147.484 134.296C147.764 133.831 148.23 134.017 148.695 134.017C151.118 134.017 153.54 134.017 155.962 133.924C157.918 133.831 159.036 132.806 159.129 131.222C159.222 129.825 158.663 128.893 157.359 128.334C156.241 127.869 155.123 127.775 153.912 127.775C150.652 127.589 137.33 127.403 133.976 127.496Z" fill="#616C8C"/>
</g>
<defs>
<clipPath id="clip0_1459_731">
<rect width="140.948" height="188.458" fill="white" transform="translate(41.2842 17.2896)"/>
</clipPath>
</defs>
</svg>
