<svg width="122" height="158" viewBox="0 0 122 158" fill="none" xmlns="http://www.w3.org/2000/svg">
<g clip-path="url(#clip0_1504_544)">
<path fill-rule="evenodd" clip-rule="evenodd" d="M11.1981 142.812C14.0271 147.051 20.9816 147.875 26.9932 148.463C28.5256 149.876 30.5295 151.054 32.4155 152.466C34.1836 153.761 35.9517 155.645 38.0734 156.234C41.256 157.294 47.0319 157.058 51.8647 157.176C61.4126 157.647 71.5498 157.411 80.2725 158C81.0976 155.057 80.9797 151.289 82.2763 148.817C93.2387 149.17 104.437 148.228 114.692 150.229C115.635 151.054 116.224 152.231 118.11 152.231C119.289 151.878 117.167 150.936 117.757 150.583C118.464 150.7 119.643 152.349 119.996 151.525C119.996 149.523 122.354 146.462 122 143.872C121.646 141.399 117.757 139.045 116.578 136.69C115.045 133.511 114.574 129.037 113.631 125.27C112.57 121.502 111.509 117.617 110.448 114.085C108.091 106.432 102.315 101.958 99.2502 96.3069C101.608 88.7719 103.612 80.8837 107.03 74.526C105.144 67.4619 103.376 59.2205 101.018 53.3338C96.5391 51.8032 90.999 53.8047 86.4019 53.3338C82.63 55.2175 79.5652 58.8673 76.6184 60.9865C71.0783 42.9731 63.77 27.0789 57.8763 9.65419C55.1652 8.83004 53.2792 6.47535 50.9217 4.70933C48.5643 2.94331 45.3816 0.235411 41.9633 0.117676C39.1343 4.00292 34.5372 10.5961 33.0048 16.3651C32.6512 17.5424 32.6512 18.8375 32.6512 19.7794C32.5333 25.1952 33.3585 31.5528 33.5942 38.0283C34.3014 53.8047 33.4763 69.4634 34.1836 84.4157C29.5865 79.3531 24.7536 74.526 20.628 68.9925C19.9208 69.3457 19.3314 69.8166 18.6242 70.1698C15.0879 71.7004 11.3159 72.76 8.25121 74.7615C7.30821 79.7063 4.5971 85.5931 3.18261 91.833C2.00386 97.2488 1.29662 102.665 0 108.198C1.06087 117.97 5.30435 127.271 8.36908 135.395C9.42995 137.985 10.0193 140.928 11.1981 142.812Z" fill="#2D458A"/>
<path fill-rule="evenodd" clip-rule="evenodd" d="M40.7846 2.35449C40.1952 7.53482 38.1913 13.1861 38.1913 19.5438C36.7768 19.5438 35.4802 17.7777 34.1836 16.9536C35.5981 11.3023 38.4271 7.06388 40.7846 2.35449Z" fill="white"/>
<path fill-rule="evenodd" clip-rule="evenodd" d="M43.6133 2.59033C47.0316 7.41746 49.507 13.1865 52.5717 18.3668C51.1572 19.3087 49.6249 21.0747 48.2104 21.3102C47.3853 14.3638 45.0278 8.94801 43.6133 2.59033Z" fill="white"/>
<path fill-rule="evenodd" clip-rule="evenodd" d="M42.1991 2.94336C43.8493 9.30103 45.8532 15.3055 47.032 22.1341C44.5566 21.5454 42.0812 20.9568 39.3701 20.4858C40.431 14.8346 41.2561 8.8301 42.1991 2.94336Z" fill="white"/>
<path fill-rule="evenodd" clip-rule="evenodd" d="M57.0511 12.5977C57.169 12.5977 57.2869 12.7154 57.2869 12.8331C62.827 27.079 68.3671 42.8555 73.6714 58.0433C74.3787 59.927 75.911 62.3994 74.2608 64.2832C67.7777 49.0954 61.5304 33.6722 54.8115 18.8376C55.4009 16.6006 56.1081 14.4814 57.0511 12.5977Z" fill="white"/>
<path fill-rule="evenodd" clip-rule="evenodd" d="M38.0732 21.5453C39.6056 40.7361 42.5525 58.6318 44.91 76.8807C41.9631 79.4708 38.6626 82.7674 35.48 84.5334C35.3621 62.3993 34.8906 40.7361 34.3013 19.1906C35.0085 18.9552 36.8945 20.8389 38.0732 21.5453Z" fill="white"/>
<path fill-rule="evenodd" clip-rule="evenodd" d="M64.2417 69.2278C63.0629 70.1696 61.6484 72.0534 60.5876 72.6421C57.6407 59.5735 53.9866 44.0325 50.5682 30.0221C50.2146 28.3738 49.0359 25.195 49.1538 24.0176C49.3895 22.1339 52.2185 21.4275 53.1615 20.0146C53.3972 20.0146 53.5151 20.0146 53.5151 20.2501C56.1083 36.733 61.1769 52.7449 64.2417 69.2278ZM59.291 60.7509C60.2339 60.6331 60.2339 59.6913 60.2339 58.7494C59.9982 58.7494 59.9982 58.5139 59.6446 58.5139C59.291 58.9848 58.7016 60.0445 59.291 60.7509ZM61.2948 64.6361C60.3518 64.0474 59.4088 66.0489 59.8803 66.9908C61.1769 67.1085 61.2948 65.8135 61.2948 64.6361ZM61.8842 69.581C62.2378 69.11 63.0629 68.9923 63.0629 68.1682C62.2378 68.1682 61.4127 68.9923 61.8842 69.581Z" fill="white"/>
<path fill-rule="evenodd" clip-rule="evenodd" d="M47.8572 24.0179C50.5683 39.6766 56.8156 53.0984 55.8726 71.8182C52.8079 73.4665 49.6253 74.9971 46.2069 76.4099C44.0852 58.2787 41.0204 41.2072 39.606 22.3696C42.7886 22.4874 45.0282 23.547 47.8572 24.0179ZM43.8494 30.6111C42.6707 31.9061 45.0282 31.4352 43.8494 30.6111V30.6111Z" fill="white"/>
<path fill-rule="evenodd" clip-rule="evenodd" d="M55.4009 23.1938C61.4125 37.2043 67.1883 51.4502 72.8463 65.8138C71.3139 69.6991 69.6637 73.4666 68.2492 77.4696C63.1806 60.0448 59.7622 41.2073 55.4009 23.1938ZM66.0096 59.5739C66.7168 59.8093 68.4849 58.5143 68.2492 57.8079C67.0704 57.9256 66.4811 58.632 66.0096 59.5739Z" fill="white"/>
<path fill-rule="evenodd" clip-rule="evenodd" d="M96.6571 54.629C93.5924 55.8064 90.9991 57.4547 87.8165 58.3966C87.6987 56.9837 88.0523 56.1596 88.0523 54.7468C90.7634 54.5113 93.8281 54.629 96.6571 54.629Z" fill="white"/>
<path fill-rule="evenodd" clip-rule="evenodd" d="M97.1287 90.1849C94.2997 80.1774 90.4098 71.2296 88.2881 60.398C91.8243 58.3965 96.1857 57.1014 100.076 55.4531C101.49 58.5142 103.022 65.2251 104.083 69.699C104.437 71.2296 105.38 73.2311 105.262 74.2907C105.144 75.468 103.73 76.7631 102.905 78.0582C100.547 81.8257 98.7789 85.9464 97.1287 90.1849ZM95.1248 67.3443C96.5393 66.9911 97.1287 65.8138 97.4823 64.401C96.0678 64.7542 95.5963 66.0493 95.1248 67.3443ZM95.9499 70.7586C97.1287 70.2877 97.6002 69.1104 97.9538 67.8153C96.8929 67.5798 95.1248 69.2281 95.9499 70.7586Z" fill="white"/>
<path fill-rule="evenodd" clip-rule="evenodd" d="M85.9306 60.9863C85.1055 64.7538 82.6301 68.6391 82.1586 73.3485C79.2117 71.7002 77.6794 68.7568 74.9683 66.9908C78.1509 64.6361 82.1586 62.8701 85.9306 60.9863Z" fill="white"/>
<path fill-rule="evenodd" clip-rule="evenodd" d="M87.227 61.8105C89.4666 73.1131 93.828 82.1787 95.8318 93.5989C92.7671 93.9521 91.1168 95.7181 88.8772 96.7778C87.227 89.125 85.341 81.59 82.6299 74.7614C84.0444 73.8195 83.6908 71.818 84.2801 69.8165C85.1052 66.9909 86.7555 64.5184 87.227 61.8105ZM88.8772 78.9998C89.113 78.4111 89.3487 77.8225 89.2308 76.9983C88.0521 76.7629 87.5806 78.9998 88.8772 78.9998ZM91.7062 90.7733C92.1777 90.1846 92.5313 87.8299 91.3526 87.8299C90.999 88.6541 90.999 90.3023 91.7062 90.7733Z" fill="white"/>
<path fill-rule="evenodd" clip-rule="evenodd" d="M57.0513 64.7539C57.6406 66.5199 57.9943 68.6392 58.4658 70.5229C56.9334 69.6988 57.4049 66.8731 57.0513 64.7539Z" fill="white"/>
<path fill-rule="evenodd" clip-rule="evenodd" d="M73.6716 68.1685C76.6185 70.1699 78.3866 73.231 81.6871 74.9971C83.6909 82.0612 85.3412 89.5962 87.345 96.778C83.5731 98.0731 81.3335 101.487 78.3866 103.96C70.6069 110.435 60.9412 115.498 52.9257 121.973C52.69 122.209 51.9827 122.797 51.5112 122.562C59.2909 104.784 66.2455 86.2996 73.6716 68.1685ZM76.6185 90.4203C76.7363 88.772 77.09 86.0641 76.6185 84.4158C76.5006 85.9464 75.7934 89.0075 76.6185 90.4203ZM74.0252 92.775C75.3219 92.0686 75.0861 87.2415 74.261 86.1819C73.5537 87.8301 73.7895 90.8913 74.0252 92.775ZM67.4243 100.192C67.3064 100.781 67.66 100.663 67.66 101.134C68.4851 101.016 68.8388 100.546 68.4851 99.9568C68.0136 99.9568 67.66 99.9568 67.4243 100.192Z" fill="white"/>
<path fill-rule="evenodd" clip-rule="evenodd" d="M64.2414 70.1699C64.4771 70.2877 64.595 70.2877 64.595 70.5231C63.8878 72.1714 62.0018 73.702 60.9409 74.2906C60.823 72.5246 63.4163 71.7005 64.2414 70.1699Z" fill="white"/>
<path fill-rule="evenodd" clip-rule="evenodd" d="M18.6242 71.2295C19.2136 73.3487 17.3276 76.2921 17.6812 79.4709C15.4416 81.8256 12.7305 84.6513 10.4908 86.2995C10.2551 82.6498 9.54785 79.4709 9.54785 75.7034C12.259 73.9374 15.7952 72.9955 18.6242 71.2295ZM11.4338 80.5305C12.8483 80.1773 13.0841 78.6468 13.4377 77.1162C12.0232 77.4694 11.5517 79.7064 11.4338 80.5305Z" fill="white"/>
<path fill-rule="evenodd" clip-rule="evenodd" d="M20.3922 71.3472C26.4038 78.6467 33.4763 85.0044 38.6627 93.3636C36.3053 93.9522 35.3623 95.9537 33.4763 97.0133C28.997 90.4202 24.6357 83.7093 19.4492 77.8226C19.9207 75.8211 19.9207 73.3487 20.3922 71.3472Z" fill="white"/>
<path fill-rule="evenodd" clip-rule="evenodd" d="M57.6406 71.5825C59.1729 73.7017 60.2338 76.4096 62.4734 77.9402C59.4087 77.587 56.2261 75.821 52.4541 75.5855C54.3401 74.4082 56.8155 73.8195 57.6406 71.5825Z" fill="white"/>
<path fill-rule="evenodd" clip-rule="evenodd" d="M64.8311 72.1714C65.3026 72.4069 65.1848 73.231 65.4205 73.8197C64.4775 74.5261 63.6524 75.3502 63.063 76.4098C62.3558 76.2921 62.2379 75.8212 61.8843 75.468C62.4736 73.9374 64.006 73.4665 64.8311 72.1714Z" fill="white"/>
<path fill-rule="evenodd" clip-rule="evenodd" d="M65.6558 74.9971C66.2452 75.2325 66.0094 76.2921 66.2452 76.7631C65.6558 76.9986 65.0664 77.3518 65.0664 78.1759C64.3592 78.0582 64.2413 77.5872 63.8877 77.234C64.1234 76.1744 65.1843 75.8212 65.6558 74.9971Z" fill="white"/>
<path fill-rule="evenodd" clip-rule="evenodd" d="M66.4813 81.2368C65.4204 84.7688 64.0059 87.9477 62.7093 91.2442C57.8764 93.0103 53.2793 95.0118 48.918 97.2487C49.2716 90.891 50.0967 83.2383 50.6861 76.4097C56.2262 77.587 61.4127 79.353 66.4813 81.2368ZM53.2793 86.4171C54.8117 85.122 55.6368 83.2383 56.2262 81.0013C54.1044 80.8836 53.7508 84.1802 53.2793 86.4171ZM53.0436 91.5974C55.4011 88.8896 56.9334 85.4752 58.8194 82.4141C58.8194 82.2964 58.7015 82.1787 58.4658 82.1787C56.1083 84.7688 54.2223 87.7122 53.0436 91.5974Z" fill="white"/>
<path fill-rule="evenodd" clip-rule="evenodd" d="M34.0659 123.739C35.4804 113.614 38.1915 103.018 40.6669 93.3635C40.7848 90.1847 39.1345 86.2994 39.8418 83.7092C40.3133 81.9432 46.3249 79.4708 48.2108 77.9402C48.3287 77.8225 48.4466 77.3516 48.8002 77.3516C48.9181 79.824 48.2108 84.4157 47.8572 88.1832C47.5036 91.8329 47.6215 95.8359 46.9142 98.7793C46.4427 100.663 44.5567 102.782 43.2601 104.784C39.8418 110.553 36.8949 117.499 34.0659 123.739ZM42.6708 91.9507C44.321 90.5379 45.1461 88.1832 46.0891 85.9462C43.8495 86.8881 42.6708 90.1846 42.6708 91.9507ZM43.4959 96.1891C44.6746 95.9536 44.9104 95.0118 45.1461 93.8344C43.7316 93.8344 43.7316 95.1295 43.4959 96.1891Z" fill="white"/>
<path fill-rule="evenodd" clip-rule="evenodd" d="M66.2454 77.9404C66.8348 77.9404 66.1275 79.1178 66.599 79.1178C66.4812 79.7065 66.1275 78.8823 65.7739 79.1178C65.7739 78.6468 66.3633 78.5291 66.2454 77.9404Z" fill="white"/>
<path fill-rule="evenodd" clip-rule="evenodd" d="M8.25105 79C8.72255 79.3532 8.36892 80.8838 8.4868 81.8256C8.84042 93.3636 11.1979 105.608 11.08 117.97C10.2549 118.088 9.42979 117.146 8.72255 116.322C6.60081 114.203 4.12545 111.377 2.12158 109.14C4.12545 99.1326 6.36506 89.2429 8.25105 79ZM5.77569 103.607C6.71868 103.371 7.07231 102.311 7.5438 101.605C6.48293 100.899 5.18632 102.429 5.77569 103.607ZM6.36506 108.551C7.66168 108.551 7.66168 107.139 8.0153 106.197C7.77955 106.197 7.77955 105.961 7.42593 105.961C7.19018 106.785 5.77569 107.492 6.36506 108.551Z" fill="white"/>
<path fill-rule="evenodd" clip-rule="evenodd" d="M19.2137 79.5884C20.2746 80.2948 20.6282 81.7076 21.5712 82.414C20.6282 82.6495 19.5673 81.3544 18.7422 80.7657C19.0958 80.5303 18.9779 79.8238 19.2137 79.5884Z" fill="white"/>
<path fill-rule="evenodd" clip-rule="evenodd" d="M32.4155 97.7199C28.5256 104.784 26.286 113.496 23.2213 121.267C19.9208 120.914 17.2097 120.678 13.4377 120.443C12.4947 113.496 12.1411 104.549 11.4338 96.6603C11.1981 94.0701 10.2551 90.7736 10.6087 88.8898C11.0802 86.6529 16.3846 83.7095 17.4454 81.708C19.685 82.2967 20.7459 84.1804 23.2213 84.5336C26.4039 88.8898 29.3507 93.3637 32.4155 97.7199ZM18.2706 95.8362C19.3314 95.6007 19.2135 94.3056 19.685 93.4815C19.4493 93.4815 19.4493 93.246 19.0957 93.246C18.6242 93.8347 17.7991 95.012 18.2706 95.8362ZM24.9894 106.197C25.2251 105.137 26.4039 102.429 24.9894 101.841C24.9894 103.253 23.3392 105.49 24.9894 106.197Z" fill="white"/>
<path fill-rule="evenodd" clip-rule="evenodd" d="M37.8378 84.769C38.1915 85.1222 38.1915 85.5932 38.1915 86.1819C37.3663 86.1819 37.1306 87.5947 36.4233 87.1237C35.834 86.0641 37.4842 85.7109 37.8378 84.769Z" fill="white"/>
<path fill-rule="evenodd" clip-rule="evenodd" d="M38.0733 87.1235C38.6626 87.359 38.4269 88.5364 38.4269 89.3605C38.1911 88.8896 37.4839 88.6541 37.4839 87.9477C37.8375 87.9477 37.8375 87.4767 38.0733 87.1235Z" fill="white"/>
<path fill-rule="evenodd" clip-rule="evenodd" d="M61.4124 93.5991C59.9979 98.073 57.6404 101.487 55.165 105.019C52.9254 103.018 50.3322 100.428 48.7998 98.4262C53.279 97.0134 57.1689 95.0119 61.4124 93.5991Z" fill="white"/>
<path fill-rule="evenodd" clip-rule="evenodd" d="M38.427 95.1294C38.5448 95.1294 38.6627 95.2471 38.6627 95.3649C37.2482 100.898 35.7159 106.432 34.4192 112.319C33.1226 118.088 32.769 124.328 31.2366 130.097C30.0579 134.688 27.2289 138.927 26.8753 143.636C26.168 140.34 26.0502 137.043 25.6965 133.629C25.3429 130.332 24.5178 126.447 24.8714 123.268C25.1072 121.502 26.4038 119.147 27.111 117.028C28.5255 112.436 29.94 109.14 31.4724 104.784C32.2975 102.664 32.769 100.192 33.712 98.7792C34.7729 97.2486 37.2482 96.5422 38.427 95.1294ZM28.997 131.98C30.7651 124.328 31.4724 115.615 33.2405 107.962C32.8869 107.962 33.1226 107.374 32.8869 107.374C31.2366 115.027 28.8791 124.092 28.997 131.98Z" fill="white"/>
<path fill-rule="evenodd" clip-rule="evenodd" d="M98.3072 98.5439C99.6038 99.6036 101.136 101.841 103.14 104.548C105.38 107.61 108.209 109.493 106.794 113.143C105.144 113.732 103.494 114.674 101.372 115.733C97.8357 117.499 95.9497 120.325 92.7671 116.557C94.5352 110.553 96.5391 104.666 98.3072 98.5439Z" fill="white"/>
<path fill-rule="evenodd" clip-rule="evenodd" d="M86.8732 99.1328C86.9911 99.1328 87.109 99.2506 87.109 99.3683C82.0404 115.851 79.9187 135.16 78.8578 155.528C77.679 155.645 76.6182 154.821 75.4394 154.35C66.8346 150.936 56.5795 147.875 48.2104 143.99C49.2713 137.75 49.7428 130.803 51.1573 125.034C63.0626 116.322 75.9109 108.669 86.8732 99.1328ZM72.6104 117.617C72.9641 117.853 72.8462 118.441 73.4356 118.441C74.0249 118.324 74.0249 116.322 73.4356 116.204C73.3177 116.793 72.4926 116.675 72.6104 117.617ZM65.8916 138.927C65.8916 138.692 66.1274 138.574 66.2452 138.574C66.5989 133.629 66.5989 127.154 66.2452 122.209C65.4201 127.036 65.1844 134.453 65.8916 138.927ZM64.7129 143.401C64.4771 138.692 64.4771 133.629 63.2984 129.862C63.4162 134.1 62.5911 140.34 64.7129 143.401Z" fill="white"/>
<path fill-rule="evenodd" clip-rule="evenodd" d="M47.6213 99.9565C50.5681 102.664 53.6329 105.137 55.2831 109.14C53.9865 114.438 50.2145 118.912 49.0358 125.152C48.2106 129.743 47.7392 134.688 47.0319 139.751C46.7962 141.399 47.0319 143.401 46.6783 144.696C46.2068 146.109 43.4957 147.875 42.3169 149.052C40.6667 150.582 39.3701 151.995 38.0734 153.408C34.3015 151.289 30.8831 148.934 27.229 146.579C31.8261 128.919 40.0773 114.791 47.6213 99.9565ZM43.0242 124.21C42.6705 122.797 41.9633 121.973 40.7846 121.384C40.5488 122.562 41.6097 124.092 43.0242 124.21ZM41.8454 142.341C40.4309 136.925 39.3701 131.274 37.4841 126.329C37.8377 132.805 39.8416 137.514 41.8454 142.341ZM42.0812 135.512C42.9063 133.393 41.4918 130.214 40.4309 128.684C40.6667 131.274 41.0203 133.864 42.0812 135.512Z" fill="white"/>
<path fill-rule="evenodd" clip-rule="evenodd" d="M108.327 112.79C110.213 117.028 112.217 124.917 113.513 131.039C114.338 134.806 115.871 137.397 114.103 140.811C113.16 133.865 111.391 127.389 109.741 120.561C109.034 117.853 108.209 115.262 108.327 112.79Z" fill="white"/>
<path fill-rule="evenodd" clip-rule="evenodd" d="M106.676 147.404C102.197 146.58 96.6568 146.933 91.7061 147.168C93.4742 138.22 95.2423 129.273 97.364 120.796C100.075 118.205 103.847 116.793 107.03 114.556C107.855 119.736 109.859 129.508 111.391 135.983C111.863 138.22 113.159 141.635 112.806 142.93C112.098 145.167 108.091 145.52 106.676 147.404ZM97.4819 129.155C100.311 126.682 103.258 124.21 105.262 120.913C101.136 122.091 99.7215 126.094 97.4819 129.155ZM97.4819 132.569C99.8394 130.921 101.725 128.919 103.258 126.329C100.547 127.624 98.8964 129.861 97.4819 132.569Z" fill="white"/>
<path fill-rule="evenodd" clip-rule="evenodd" d="M92.0601 118.323C93.3567 118.676 94.064 119.618 94.8891 120.56C94.4176 130.685 91.4708 138.456 89.7026 147.404C87.3452 147.286 84.9877 147.286 82.748 147.051C85.577 137.161 88.8775 127.86 92.0601 118.323Z" fill="white"/>
<path fill-rule="evenodd" clip-rule="evenodd" d="M12.2588 122.562C15.5593 123.268 20.3921 122.444 23.4569 123.386C23.8105 131.157 24.5177 138.456 25.1071 145.991C22.396 146.109 19.0955 145.167 16.2665 144.814C15.2056 137.043 13.909 129.626 12.2588 122.562Z" fill="white"/>
<path fill-rule="evenodd" clip-rule="evenodd" d="M116.106 138.574C117.521 140.575 119.407 141.87 120.703 143.99C119.76 145.52 119.642 147.639 119.053 149.641C117.521 148.11 116.342 146.109 114.81 144.46C115.045 142.224 115.87 140.693 116.106 138.574Z" fill="white"/>
<path fill-rule="evenodd" clip-rule="evenodd" d="M116.342 148.346C114.692 148.581 112.452 147.875 110.566 147.757C111.509 146.698 112.806 146.109 113.749 145.167C115.046 145.756 115.281 147.404 116.342 148.346Z" fill="white"/>
<path fill-rule="evenodd" clip-rule="evenodd" d="M75.3216 155.999C63.652 156.234 51.3931 155.292 40.0771 154.586C41.4916 151.407 45.9709 148.464 48.0926 145.991C57.0511 149.406 66.3631 152.467 75.3216 155.999Z" fill="white"/>
<path fill-rule="evenodd" clip-rule="evenodd" d="M45.6172 2.94336C49.0355 4.94485 52.9254 8.12369 56.2259 10.9493C54.6935 12.1267 54.3399 14.3636 53.8684 16.6006C50.9215 12.2444 48.4462 7.53501 45.6172 2.94336Z" fill="white"/>
<path fill-rule="evenodd" clip-rule="evenodd" d="M86.6378 55.2178C86.52 56.5129 86.2842 57.6902 86.4021 59.2208C83.1016 59.9272 80.0369 60.9868 77.5615 62.6351C79.4475 59.8094 83.9267 56.9838 86.6378 55.2178Z" fill="white"/>
<path fill-rule="evenodd" clip-rule="evenodd" d="M100.665 86.4171C101.018 85.5929 100.075 88.654 99.8397 89.3604C93.8281 107.492 87.6986 126.447 81.5692 144.578C81.3334 133.04 86.2841 123.503 89.4667 114.202C92.7672 104.548 96.3035 95.3649 100.665 86.4171Z" fill="white"/>
<path fill-rule="evenodd" clip-rule="evenodd" d="M95.1247 95.3652C90.9991 105.137 86.8735 116.793 83.1016 127.742C84.2803 118.441 86.6378 108.434 88.5238 99.1327C90.5276 97.7199 93.003 96.7781 95.1247 95.3652ZM88.6417 104.784C90.174 104.431 92.06 102.547 91.5885 101.605C90.4098 102.429 88.9953 103.018 88.6417 104.784Z" fill="white"/>
<path fill-rule="evenodd" clip-rule="evenodd" d="M2.00391 111.142C4.83289 113.496 7.66188 117.617 10.373 120.796C11.5517 128.566 13.3198 135.63 14.6165 143.165C13.202 142.459 12.4947 141.164 11.1981 140.34C8.84062 129.861 4.12565 121.738 2.00391 111.142Z" fill="white"/>
</g>
<defs>
<clipPath id="clip0_1504_544">
<rect width="122" height="158" fill="white"/>
</clipPath>
</defs>
</svg>
