<svg width="186" height="120" viewBox="0 0 186 120" fill="none" xmlns="http://www.w3.org/2000/svg">
<g clip-path="url(#clip0_1504_592)">
<path fill-rule="evenodd" clip-rule="evenodd" d="M166.288 77.586C166.288 77.4136 166.462 77.4136 166.462 77.2412C170.109 65.8618 174.277 55.086 176.535 42.4136C174.19 40.7756 171.933 38.2756 169.501 36.7239C168.72 36.2067 167.591 35.9481 167.417 35.2584C164.465 37.2412 162.207 40.3446 159.949 43.1894C153.003 51.7239 145.274 59.7412 138.849 68.017C138.762 65.4308 139.283 62.6722 139.63 59.9136C140.846 51.4653 142.496 43.1032 143.364 34.5687C144.145 33.4481 145.535 32.8446 145.795 31.2067C143.972 29.8274 142.756 28.1894 140.933 26.3791C139.804 25.2584 137.372 21.9825 135.723 21.8963C134.941 21.8101 133.552 22.4998 132.596 22.8446C131.468 23.2756 130.512 23.5343 129.47 23.9653C127.994 24.5687 124.955 25.8618 124.26 27.0687C123.826 27.7584 124.087 28.6205 123.739 29.4825C122.61 32.9308 121.221 36.8101 120.005 40.7756C118.79 44.8274 117.748 48.8791 116.445 52.2412C115.23 43.9653 114.274 35.8618 113.059 27.6722C112.624 24.9998 111.669 21.8963 111.93 19.4825C112.103 17.7584 113.406 16.0343 113.58 13.9653C113.753 11.2929 113.319 8.87909 113.58 6.03426C111.496 3.62047 108.804 1.89633 106.286 -0.0864258C101.075 0.689436 96.2127 1.72392 90.4816 1.98254C89.3528 3.62047 88.6581 5.86185 88.0502 8.10323C87.4424 10.2584 86.4004 12.586 86.1399 14.9136C85.7925 17.4998 86.2267 20.6032 86.1399 23.6205C85.9662 32.586 86.3135 41.8963 85.7925 50.4308C81.9718 40.517 78.1511 30.6032 74.504 20.517C71.9858 20.2584 69.0334 18.1894 66.5152 17.9308C63.3023 22.3274 60.1763 26.7239 57.7449 31.8101C59.7421 34.9136 59.8289 39.3101 60.1763 44.0515C60.871 53.017 61.6525 62.0687 62.955 69.8274C60.1763 68.7067 58.1791 64.9998 54.532 66.4653C47.9326 52.8446 41.5937 38.9653 34.039 26.2929C30.8261 26.0343 27.3528 24.7412 24.3135 23.8791C22.0558 29.3963 20.2323 35.2584 18.4956 41.2929C20.2323 49.3101 21.8822 58.3618 23.532 65.9481C17.8878 64.9136 12.504 63.7067 6.77293 62.7584C4.25472 64.655 2.25752 67.1549 0.260324 69.5687C0.173489 71.3791 -0.000180296 73.017 0.0866544 74.9136C4.16789 78.9653 9.11747 82.155 13.7197 85.6894C18.3219 89.2239 23.1847 92.586 27.7001 96.2067C26.1371 98.3618 23.8794 99.7412 22.8374 102.327C24.3135 103.707 26.3976 107.5 28.4816 108.017C29.6105 108.276 31.0867 107.758 32.5628 108.189C34.2995 110 35.6889 112.155 37.7729 113.534C39.4228 112.241 42.3752 112.155 44.6329 111.465C46.3696 112.672 47.9326 113.965 49.4956 115.345C51.0586 116.638 52.5348 118.276 54.1847 119.396C56.7029 121.034 58.7001 119.741 61.4788 118.62C64.9522 117.155 67.4704 115.948 70.7701 114.569C72.3331 113.965 74.504 112.758 75.8065 112.758C76.5881 112.758 77.5432 113.362 78.4116 113.534C79.4536 113.793 80.5824 113.707 81.5376 113.879C82.406 114.052 83.3612 114.569 84.3163 114.483C85.011 114.396 85.9662 113.793 86.7477 113.534C89.7001 112.5 91.871 111.81 94.7365 110.948C96.3864 111.983 97.6889 113.534 99.4256 114.483C110.888 112.845 124.173 112.414 136.157 111.379C137.807 111.207 139.543 110.689 141.019 111.379C145.535 108.103 150.571 105.431 155.173 102.327C155.868 102.5 156.389 102.845 157.258 102.845C163.857 98.2756 170.977 92.8446 177.23 87.3274C179.14 85.6032 182.266 83.7067 183.395 81.7239C185.218 78.4481 184.263 74.2239 186 70.4308C183.916 68.8791 181.224 68.017 178.879 66.7239C174.364 69.9998 170.543 74.0515 166.288 77.586Z" fill="#2D458A"/>
<path fill-rule="evenodd" clip-rule="evenodd" d="M111.669 5.77551C108.543 7.84447 105.33 10.0859 101.944 12.5859C101.075 13.1893 100.294 14.2238 99.6861 14.3962C98.7309 14.6548 97.5152 14.3962 96.56 14.3962C93.6945 14.4824 90.7421 15.1721 87.4424 15.1721C88.6581 11.2065 89.6133 6.9824 90.8289 3.10309C96.039 2.93068 101.075 2.06861 105.157 1.20654C105.157 1.20654 105.244 1.20654 105.33 1.20654C108.109 1.46516 108.977 5.08585 111.669 5.77551ZM97.3415 9.48241C96.6469 8.10309 95.8654 6.8962 94.5628 6.12034C95.1707 7.58585 95.8654 8.96516 97.3415 9.48241ZM97.3415 13.1893C97.5152 12.3272 96.56 11.7238 96.039 10.9479C95.0838 9.65482 94.3023 8.10309 93.2603 7.24103C93.0866 7.24103 92.913 7.24103 92.7393 7.24103C94.1287 9.4824 95.1707 11.9824 97.3415 13.1893Z" fill="white"/>
<path fill-rule="evenodd" clip-rule="evenodd" d="M112.364 6.6377C112.537 8.70666 112.277 11.7239 112.364 14.2239C109.498 15.2584 107.327 16.9825 104.896 18.448C103.507 17.2411 101.77 16.3791 100.641 14.9136C104.809 12.4136 108.543 9.39632 112.364 6.6377ZM110.193 12.586C110.54 11.7239 110.28 10.3446 109.585 9.99976C109.498 10.6032 109.411 12.4136 110.193 12.586Z" fill="white"/>
<path fill-rule="evenodd" clip-rule="evenodd" d="M98.6443 15.5171C98.297 20.8619 97.7759 24.0516 96.8208 28.7067C93.521 24.9136 91.1765 20.1723 88.2241 16.1205C91.5238 15.6895 95.1709 15.6895 98.6443 15.5171Z" fill="white"/>
<path fill-rule="evenodd" clip-rule="evenodd" d="M99.6861 15.9482C101.162 16.7241 102.031 18.1034 103.42 19.0517C102.117 20.0862 100.728 20.9482 99.165 21.8103C99.2519 19.8276 99.5992 18.0172 99.6861 15.9482Z" fill="white"/>
<path fill-rule="evenodd" clip-rule="evenodd" d="M87.0083 16.8101C88.9187 19.4825 91.871 23.7928 94.1288 27.1549C94.9103 28.2756 96.0391 29.5687 96.3865 30.517C97.168 32.6721 96.9075 35.6032 97.168 38.1032C97.9495 45.6894 98.5573 53.1032 99.5993 60.3445C96.2996 62.6721 92.1316 64.1376 88.745 66.2928C88.3108 67.4135 87.9635 68.6204 87.6161 69.8273C86.5741 53.017 87.5293 34.1376 87.0083 16.8101ZM90.3949 47.2411C91.4369 46.2066 92.9131 45.6894 93.6077 44.3101C92.0447 44.6549 90.5685 46.0342 90.3949 47.2411ZM90.3949 49.7411C91.1764 49.2239 92.2184 48.448 92.9999 47.6721C93.7814 46.9825 94.9103 45.8618 94.6498 45.0859C92.9131 46.2066 91.1764 47.4997 90.3949 49.7411Z" fill="white"/>
<path fill-rule="evenodd" clip-rule="evenodd" d="M66.9492 18.8789C69.2069 19.4824 70.9436 20.603 73.2882 21.1203C71.812 24.4824 71.6383 29.0513 69.9016 32.0686C69.0333 27.5858 67.6439 23.6203 66.9492 18.8789Z" fill="white"/>
<path fill-rule="evenodd" clip-rule="evenodd" d="M65.8204 19.8271C67.0361 23.6203 67.7307 27.9306 68.7728 31.8961C65.6467 31.7237 62.868 31.1203 59.4814 31.1203C61.2181 26.9823 63.8232 23.7065 65.8204 19.8271Z" fill="white"/>
<path fill-rule="evenodd" clip-rule="evenodd" d="M110.714 21.8103C111.843 29.4827 112.972 36.8965 113.927 44.9138C114.361 48.6207 115.403 51.8965 115.403 56.2069C109.585 53.7931 105.417 58.1034 101.075 59.9138C99.686 53.4483 99.0782 45 98.2967 36.8103C98.123 34.8276 97.5152 31.6379 98.123 30.1724C98.7309 28.7931 102.725 27.0689 104.115 26.1207C106.806 24.3965 108.283 22.931 110.454 21.7241C110.627 21.8103 110.627 21.8103 110.714 21.8103Z" fill="white"/>
<path fill-rule="evenodd" clip-rule="evenodd" d="M74.1569 22.9307C77.2829 31.1203 81.1905 42.0686 84.7507 51.2065C85.4454 53.0169 86.5743 54.5686 86.0532 57.4996C83.7087 53.1031 81.7983 48.6203 79.367 44.3962C77.0224 40.2583 73.549 36.8962 71.1177 32.9307C71.986 29.4824 73.3754 26.5514 74.1569 22.9307Z" fill="white"/>
<path fill-rule="evenodd" clip-rule="evenodd" d="M143.538 30.9481C139.109 31.6378 133.899 31.6378 130.339 33.1895C128.602 31.293 126.779 29.5688 125.476 27.2412C128.515 25.6033 132.076 24.4826 135.202 23.0171C138.414 25.2585 141.019 28.7067 143.538 30.9481ZM129.557 29.9998C130.252 28.9654 130.86 27.8447 131.207 26.4654C130.078 26.9826 128.949 28.8792 129.557 29.9998ZM130.86 31.293C131.989 30.2585 132.423 28.5343 132.77 26.8102C132.77 26.724 132.597 26.6378 132.423 26.6378C131.815 28.0171 130.947 29.3102 130.86 31.293Z" fill="white"/>
<path fill-rule="evenodd" clip-rule="evenodd" d="M32.9971 27.4137C32.9102 33.8793 32.6497 40.5172 32.9971 46.8965C29.0027 44.4827 23.8794 43.1896 19.6245 40.9482C21.1007 35.2586 23.3584 30.3448 25.3556 25.1724C27.8738 25.9482 30.392 26.8103 32.9971 27.4137ZM23.0979 35.862C24.7478 33.8793 26.8318 32.2413 28.1343 29.9137C28.308 29.9137 28.2212 29.7413 27.9606 29.7413C26.3976 31.6379 23.7926 33.5344 23.0979 35.862ZM30.1315 32.931C30.1315 32.7586 30.0447 32.5862 29.7842 32.5862C28.4817 33.7931 27.1791 35.0862 26.5713 36.9827C28.1343 36.0344 28.7422 34.1379 30.1315 32.931ZM22.5769 39.0517C24.0531 37.1551 26.0503 35.6896 27.0923 33.362C25.1819 34.7413 23.3584 37.0689 22.5769 39.0517Z" fill="white"/>
<path fill-rule="evenodd" clip-rule="evenodd" d="M34.126 28.7065C35.689 31.2065 36.9915 33.9652 38.5546 36.4652C37.1652 39.5686 35.689 42.6721 34.2996 45.8617C33.9523 40.4307 34.2996 34.3962 34.126 28.7065Z" fill="white"/>
<path fill-rule="evenodd" clip-rule="evenodd" d="M125.042 29.2241C126.865 30.7758 127.907 33.1896 129.47 35C128.949 43.5345 128.168 51.8103 127.82 60.5172C124.521 59.1379 120.44 58.5345 117.4 56.8103C116.532 54.3965 118.008 52.069 118.703 49.9138C119.484 47.5862 120.005 45.2586 120.613 43.0172C122.003 38.2758 123.566 33.8793 125.042 29.2241Z" fill="white"/>
<path fill-rule="evenodd" clip-rule="evenodd" d="M144.059 31.8101C144.319 32.9307 142.756 32.9307 141.627 33.1032C138.241 33.7066 133.465 34.1376 130.86 34.7411C131.207 33.3618 133.552 33.7066 134.941 33.448C137.72 32.9307 140.759 32.3273 143.885 31.8101C143.885 31.8101 143.972 31.8101 144.059 31.8101Z" fill="white"/>
<path fill-rule="evenodd" clip-rule="evenodd" d="M59.2209 32.0688C62.5206 32.4999 65.994 32.8447 69.1201 33.362C66.1677 33.793 62.6943 33.362 59.6551 33.362C59.5682 32.9309 59.1341 32.7585 59.2209 32.0688Z" fill="white"/>
<path fill-rule="evenodd" clip-rule="evenodd" d="M142.061 34.2241C142.235 36.7241 140.846 39.8276 139.977 42.5862C137.98 48.8793 135.462 55.7758 133.638 62.4138C132.075 61.8965 130.339 61.4655 128.949 60.7758C129.818 52.4138 129.644 44.2241 130.599 35.6034C134.246 35 138.067 34.4827 142.061 34.2241Z" fill="white"/>
<path fill-rule="evenodd" clip-rule="evenodd" d="M70.4227 34.8275C75.7196 49.3103 80.235 64.5689 84.9241 79.6551C84.0557 83.0172 83.1005 86.293 81.9717 89.4827C79.4535 87.3275 77.63 84.3965 75.4591 81.8965C73.2882 79.3103 70.6832 77.1551 69.1202 74.1379C67.5571 73.2758 66.0809 72.3275 64.6916 71.2068C62.347 59.9137 61.5655 47.1551 60.6104 34.3965C63.9101 34.6551 66.9493 34.9999 70.4227 34.8275ZM74.5039 63.4482C75.5459 63.1034 75.4591 60.7758 75.1986 59.7413C74.5907 60.6896 74.4171 61.8965 74.5039 63.4482ZM72.6804 69.9999C73.8092 67.931 72.854 63.2758 73.2882 60.7758C73.2882 60.6034 73.1146 60.5172 72.9409 60.431C72.0725 62.8448 72.5935 67.1551 72.6804 69.9999Z" fill="white"/>
<path fill-rule="evenodd" clip-rule="evenodd" d="M166.462 37.2412C166.115 39.9998 167.591 42.586 167.417 44.9998C167.33 46.4653 166.288 48.5343 165.767 50.1722C163.683 56.5516 159.168 60.9481 155.347 65.9481C152.395 69.8274 149.79 73.7929 146.924 76.8964C145.361 76.8102 144.059 77.0688 142.843 77.4136C141.627 74.7412 140.585 71.8964 139.283 69.3102C148.314 58.6205 157.518 48.1033 166.462 37.2412ZM157.865 54.8274C159.255 54.3964 159.949 53.3619 160.47 52.0688C159.342 52.155 158.386 53.7067 157.865 54.8274ZM146.49 68.4481C151.005 65.6033 154.131 61.3791 157.518 57.4998C153.263 60.5171 149.877 64.4826 146.49 68.4481Z" fill="white"/>
<path fill-rule="evenodd" clip-rule="evenodd" d="M167.938 37.2412C170.456 38.7067 172.193 40.8619 174.625 42.4136C172.888 43.1895 170.37 43.2757 168.286 43.7067C167.851 41.8102 167.938 39.5688 167.938 37.2412Z" fill="white"/>
<path fill-rule="evenodd" clip-rule="evenodd" d="M38.7279 38.3618C44.1985 47.2411 48.106 57.7584 53.3161 66.9825C52.882 67.8446 51.8399 68.017 51.2321 68.6204C51.2321 70.1722 51.2321 71.7239 51.2321 73.2756C50.1032 72.9308 48.9744 72.6722 47.6719 72.4997C44.1116 66.2928 39.5962 58.5342 35.7755 51.5515C35.2545 50.6032 34.2993 48.8791 34.2993 48.3618C34.2993 47.0687 35.9492 45.2584 36.557 43.8791C37.5122 41.7239 38.0332 39.9997 38.7279 38.3618Z" fill="white"/>
<path fill-rule="evenodd" clip-rule="evenodd" d="M19.8848 42.2412C24.2265 44.4826 28.7419 46.4653 33.3442 48.3619C37.078 56.4653 41.6803 64.7412 45.8484 71.8964C38.7279 69.9998 31.868 67.9309 24.5738 66.2929C22.924 58.3619 21.6215 50.086 19.8848 42.2412Z" fill="white"/>
<path fill-rule="evenodd" clip-rule="evenodd" d="M175.058 43.5342C174.972 44.9997 174.277 47.3273 173.756 48.879C171.238 50.8618 169.327 53.3618 166.896 55.5169C166.114 55.3445 166.114 54.31 165.246 54.2238C166.635 51.4652 167.764 48.6204 168.459 45.1721C170.89 44.8273 172.974 44.1376 175.058 43.5342Z" fill="white"/>
<path fill-rule="evenodd" clip-rule="evenodd" d="M173.148 50.8618C171.151 60.3446 167.851 69.8273 164.899 78.7929C161.599 81.9825 158.213 85.086 154.826 88.1894C153.176 84.7411 151.787 81.0342 149.616 78.1894C153.524 72.6722 158.213 67.7584 162.468 62.4135C163.857 60.6894 165.073 58.6204 166.549 57.0687C168.546 54.8273 171.238 53.1894 173.148 50.8618Z" fill="white"/>
<path fill-rule="evenodd" clip-rule="evenodd" d="M164.639 55.1724C165.16 55.431 165.333 55.9482 165.768 56.1206C160.905 62.4999 155.521 68.4482 150.658 75C150.05 75.7758 149.529 77.2413 148.227 77.2413C147.966 76.7241 148.661 76.3793 148.922 76.1206C151.266 73.0172 153.611 69.6551 156.216 66.6379C159.342 63.0172 162.12 59.0517 164.639 55.1724Z" fill="white"/>
<path fill-rule="evenodd" clip-rule="evenodd" d="M110.888 56.4653C110.888 59.224 110.193 62.6722 110.106 65.8619C105.591 67.8446 101.162 69.8274 96.2996 71.5515C94.7366 69.655 92.6526 68.4481 90.7422 66.8964C97.2548 63.1895 104.115 59.9136 110.888 56.4653Z" fill="white"/>
<path fill-rule="evenodd" clip-rule="evenodd" d="M112.19 56.6377C118.095 58.6205 124.087 60.517 129.905 62.586C124.26 64.0515 117.314 64.2239 111.496 65.517C111.669 62.4998 112.017 59.6549 112.19 56.6377Z" fill="white"/>
<path fill-rule="evenodd" clip-rule="evenodd" d="M7.20703 63.7065C22.7504 66.4652 36.4703 70.9479 51.2322 74.3962C51.2322 75.3445 51.2322 76.2065 51.2322 77.1548C37.3387 74.4824 23.6188 71.6376 10.0726 68.6203C8.68322 67.4134 7.98854 65.5169 7.20703 63.7065Z" fill="white"/>
<path fill-rule="evenodd" clip-rule="evenodd" d="M132.162 63.8789C133.551 64.3099 134.854 64.9134 136.417 65.172C138.241 69.9134 140.151 74.6548 142.582 78.7065C141.974 84.2237 146.663 88.6203 144.058 93.7065C140.672 89.4824 136.504 84.3961 132.509 79.4824C131.641 78.4479 128.949 75.8617 128.776 74.6548C128.602 73.2755 129.904 71.2065 130.599 69.4824C131.207 67.5858 131.728 65.6893 132.162 63.8789Z" fill="white"/>
<path fill-rule="evenodd" clip-rule="evenodd" d="M129.384 64.0513C127.734 65.7754 123.305 68.7064 120.266 70.8616C119.224 71.6375 118.008 72.8444 117.314 72.9306C114.882 73.4478 110.801 72.4995 107.849 72.4133C104.636 72.3271 101.51 72.4133 98.2969 72.2409C100.12 71.034 102.378 70.5168 104.462 69.6547C106.373 68.8789 108.196 67.4995 110.28 66.8961C111.756 66.4651 113.493 66.4651 115.143 66.2926C119.658 65.6892 124.695 64.8271 129.384 64.0513Z" fill="white"/>
<path fill-rule="evenodd" clip-rule="evenodd" d="M130.86 64.2241C131.12 64.1379 131.207 64.3965 131.034 64.3965C130.078 68.1034 128.429 71.1207 127.473 74.7414C124.868 76.7241 122.176 78.7931 119.485 80.6897C119.571 78.2759 118.008 76.4655 118.529 74.569C118.703 73.8793 120.613 72.5862 121.482 71.9828C124.521 69.569 128.515 66.4655 130.86 64.2241Z" fill="white"/>
<path fill-rule="evenodd" clip-rule="evenodd" d="M8.94361 69.224C7.98843 70.3447 7.12008 71.6378 6.1649 72.7585C4.60187 71.8102 3.29935 70.5171 1.73633 69.5688C2.95201 67.7585 4.60187 66.2068 5.99123 64.5688C7.20692 65.9482 7.98843 67.6723 8.94361 69.224Z" fill="white"/>
<path fill-rule="evenodd" clip-rule="evenodd" d="M56.79 67.1547C56.0953 68.9651 54.7928 70.172 54.3586 72.1547C53.3166 71.5513 53.3166 69.9996 52.4482 69.2237C53.6639 68.4478 55.1401 67.0685 56.79 67.1547Z" fill="white"/>
<path fill-rule="evenodd" clip-rule="evenodd" d="M89.8737 67.5859C91.8709 69.0515 93.2602 70.948 95.4311 72.2411C91.784 76.8101 88.0501 81.2066 84.6636 86.1204C86.4003 80.6032 88.4843 73.9652 89.8737 67.5859Z" fill="white"/>
<path fill-rule="evenodd" clip-rule="evenodd" d="M178.793 67.9307C180.529 69.1376 182.787 69.741 184.524 71.0341C184.003 74.2238 183.134 77.0686 182.7 80.4307C180.529 79.1376 179.053 77.0686 176.708 75.9479C177.577 73.3617 178.272 70.6893 178.793 67.9307Z" fill="white"/>
<path fill-rule="evenodd" clip-rule="evenodd" d="M57.3977 68.2754C61.4789 71.9823 63.8235 77.4133 68.5994 80.3444C67.3837 83.965 66.689 88.0168 65.9943 92.1547C62.6946 91.2926 59.2212 89.9995 56.2689 89.3961C56.0084 86.8961 55.7478 84.4823 55.661 81.465C55.4873 78.965 54.7058 76.3788 54.8795 74.3961C54.9663 71.8961 56.7899 70.2581 57.3977 68.2754Z" fill="white"/>
<path fill-rule="evenodd" clip-rule="evenodd" d="M177.316 68.8789C176.709 70.9479 176.969 73.4479 175.84 75.3444C175.059 76.7237 172.367 78.1892 170.977 79.3961C166.202 83.2755 160.905 87.7582 156.216 91.2065C156.042 90.4306 155.521 90.0858 155.434 89.3099C162.381 82.1548 170.456 76.1203 177.316 68.8789Z" fill="white"/>
<path fill-rule="evenodd" clip-rule="evenodd" d="M51.2325 78.2756C51.3193 81.9825 51.0588 86.0343 51.5798 89.2239C51.8403 89.2239 52.1008 90.1722 52.3614 91.0343C47.5854 91.1205 42.8964 90.7756 38.0336 90.6894C36.3838 90.6894 34.5602 90.9481 33.3445 90.517C31.8684 89.9998 29.1765 86.8101 27.7871 85.6894C22.1429 80.9481 16.2381 76.4653 10.5938 72.155C10.6807 71.3791 10.0728 70.3446 10.7675 69.9136C24.1401 72.7584 37.5126 75.6032 51.2325 78.2756ZM36.7311 87.155C32.563 83.1032 28.0476 79.3963 23.2717 76.0343C27.4398 80.086 31.8684 83.7929 36.7311 87.155ZM33.8656 86.4653C30.8263 84.3963 28.4818 80.7756 25.2689 79.3963C28.1345 81.5515 30.8263 84.9136 33.8656 86.4653ZM35.4286 82.9308C34.1261 81.5515 32.3894 79.7412 30.5658 79.3963C32.1289 80.6032 33.3445 82.2412 35.4286 82.9308Z" fill="white"/>
<path fill-rule="evenodd" clip-rule="evenodd" d="M1.30225 70.3447C2.51793 71.1206 3.73362 72.0689 4.86247 72.9309C3.82045 73.362 2.51793 73.5344 1.47592 73.8792C1.47592 72.6723 1.56275 71.3792 1.30225 70.3447Z" fill="white"/>
<path fill-rule="evenodd" clip-rule="evenodd" d="M9.46478 70.5171C9.81212 70.5171 9.55161 71.2067 9.63845 71.4654C9.46478 71.3792 9.37794 71.2067 9.11744 71.1205C9.0306 70.6895 9.46478 70.8619 9.46478 70.5171Z" fill="white"/>
<path fill-rule="evenodd" clip-rule="evenodd" d="M52.3611 71.293C54.8793 75.6033 53.5768 83.8792 55.3135 89.0516C54.3583 88.8792 53.4899 88.6206 52.5347 88.4481C52.4479 83.3619 52.2742 77.0688 52.3611 71.293Z" fill="white"/>
<path fill-rule="evenodd" clip-rule="evenodd" d="M97.689 73.103C103.767 73.9651 111.062 73.7065 117.487 74.2237C117.4 76.8099 117.921 78.7927 118.095 81.0341C113.493 82.7582 108.717 84.3099 104.115 86.0341C101.857 81.8099 99.9467 77.3272 97.689 73.103Z" fill="white"/>
<path fill-rule="evenodd" clip-rule="evenodd" d="M96.039 73.7065C97.602 75.7755 98.8177 78.4479 100.294 81.4652C101.075 83.1031 102.638 85.3445 102.725 86.6376C102.899 88.3617 101.944 90.8617 101.596 92.9307C100.468 99.2238 99.7729 106.034 98.9914 112.586C97.6888 111.982 96.8205 110.948 95.6048 110.344C95.6916 109.655 95.518 109.224 95.2575 108.879C90.7421 103.017 86.9213 96.4652 82.5796 90.5169C86.7477 84.6548 91.6972 79.4824 96.039 73.7065Z" fill="white"/>
<path fill-rule="evenodd" clip-rule="evenodd" d="M32.5628 91.2927C32.5628 93.7927 31.7813 95.4306 31.7813 97.9306C22.3163 89.741 11.1146 83.2754 1.91016 74.8272C3.12584 74.9996 4.60203 73.8789 5.81772 74.0513C6.59923 74.1375 8.16226 75.5168 9.20427 76.1203C16.9326 80.9479 24.9214 86.8961 32.5628 91.2927Z" fill="white"/>
<path fill-rule="evenodd" clip-rule="evenodd" d="M182.266 81.2926C174.885 88.8789 165.594 94.5685 157.518 101.465C155.608 100.862 154.045 99.9133 151.787 99.5685C153.697 97.4133 156.476 96.2064 158.126 93.7926C157.171 93.7064 157.084 92.8444 156.65 92.3271C162.815 86.8961 169.936 82.3271 175.84 76.5513C178.011 78.0168 180.008 79.8271 182.266 81.2926Z" fill="white"/>
<path fill-rule="evenodd" clip-rule="evenodd" d="M69.2939 76.6377C72.2463 79.9998 75.8065 84.4825 79.0194 88.2756C80.1482 89.5687 81.5376 90.6032 82.4059 91.8101C83.448 93.1894 84.2295 94.9998 85.1847 96.4653C87.5292 100.258 89.8737 103.879 92.6524 107.414C93.0866 107.931 93.8681 108.707 93.7813 109.483C90.7421 110.776 87.4424 111.896 84.0558 112.845C80.0614 104.31 77.63 94.1377 72.5068 86.7239C74.9382 95.7756 79.2799 104.483 83.1006 112.672C81.0166 112.241 79.9746 110.172 78.8457 108.62C75.2855 103.879 71.0306 99.1377 67.644 94.2239C66.602 88.017 70.3359 83.1894 69.2939 76.6377Z" fill="white"/>
<path fill-rule="evenodd" clip-rule="evenodd" d="M140.585 109.914C137.893 109.828 135.809 110.259 133.291 110.259C128.081 101.724 125.042 91.0345 121.134 81.2069C122.784 79.0517 125.91 78.3621 127.994 76.7241C130.773 80.9483 135.809 86.4655 139.717 90.9483C140.672 92.0689 143.364 94.3103 143.624 95.431C143.885 97.0689 142.496 101.034 142.148 102.672C141.54 105.172 141.019 107.414 140.585 109.914ZM134.767 92.5862C132.77 87.7586 130.165 83.5345 127.3 79.4827C129.384 84.3103 131.989 88.5345 134.767 92.5862ZM136.851 99.9138C137.286 100.517 137.633 101.638 138.501 101.552C134.594 95.7758 131.033 88.7069 126.779 83.7931C129.991 88.9655 133.378 95 136.851 99.9138Z" fill="white"/>
<path fill-rule="evenodd" clip-rule="evenodd" d="M147.619 78.2758C146.75 79.2241 145.448 79.7413 143.711 79.9137C143.364 79.7413 143.624 78.8793 143.538 78.4482C145.014 78.4482 146.056 78.1034 147.619 78.2758Z" fill="white"/>
<path fill-rule="evenodd" clip-rule="evenodd" d="M148.748 78.4482C151.526 83.4482 153.958 88.7931 156.389 94.1379C154.479 96.2069 151.96 97.6724 149.876 99.6551C147.184 93.9655 145.361 87.5 143.364 81.1207C145.882 80.862 147.619 79.9138 148.748 78.4482Z" fill="white"/>
<path fill-rule="evenodd" clip-rule="evenodd" d="M130.86 110.517C126.518 110.431 122.871 110.948 118.79 111.121C117.835 101.81 117.053 92.3275 116.011 83.1896C117.227 82.7586 118.443 82.4137 119.571 81.8965C123.74 91.2068 127.213 100.862 130.86 110.517Z" fill="white"/>
<path fill-rule="evenodd" clip-rule="evenodd" d="M114.795 83.7065C116.445 92.241 116.358 102.5 117.921 111.12C111.669 111.465 106.112 112.5 100.033 113.017C101.336 104.138 102.725 95.3445 104.288 86.7238C107.848 85.9479 111.409 84.9134 114.795 83.7065ZM107.935 94.0514C109.151 93.2755 110.888 91.379 110.367 89.9996C109.498 91.379 108.369 92.3272 107.935 94.0514ZM106.285 99.9996C108.196 98.879 110.367 95.7755 111.148 93.5341C109.498 95.6893 107.761 97.7583 106.285 99.9996ZM105.504 103.276C108.022 101.207 110.106 98.7065 112.016 96.0341C112.016 95.9479 111.843 95.8617 111.669 95.8617C109.585 98.2755 106.98 100.258 105.504 103.276Z" fill="white"/>
<path fill-rule="evenodd" clip-rule="evenodd" d="M33.5179 91.6377C33.7784 91.5515 33.7784 91.8101 34.0389 91.8101C33.8653 93.7929 34.5599 96.3791 34.6468 98.6205C34.2126 98.4481 33.6916 98.448 32.9969 98.448C32.6496 95.6032 34.0389 94.0515 33.5179 91.6377Z" fill="white"/>
<path fill-rule="evenodd" clip-rule="evenodd" d="M34.9941 91.6377C40.9857 91.8963 46.7168 92.0687 53.2294 92.1549C55.2266 95.6032 57.3975 98.9653 59.5684 102.327C51.5796 101.81 43.8513 99.6549 35.8625 98.6205C35.6888 96.1205 35.1678 94.0515 34.9941 91.6377Z" fill="white"/>
<path fill-rule="evenodd" clip-rule="evenodd" d="M145.622 92.3271C146.751 95.2582 147.879 98.1892 149.356 100.689C151.092 100.431 152.134 101.379 153.784 101.637C150.05 104.31 146.056 106.637 142.062 109.051C142.93 103.793 144.667 98.0168 145.622 92.3271Z" fill="white"/>
<path fill-rule="evenodd" clip-rule="evenodd" d="M39.3357 100.345C38.0332 101.207 36.7307 104.224 34.6467 105.172C33.8651 105.517 32.5626 105.517 31.5206 105.776C30.6523 106.034 29.2629 106.724 28.5682 106.552C26.9184 106.207 25.4422 102.672 24.1396 101.724C25.3553 99.9138 27.0052 98.4483 28.3946 96.7241C30.7391 99.3103 35.1677 99.7414 39.3357 100.345Z" fill="white"/>
<path fill-rule="evenodd" clip-rule="evenodd" d="M50.2774 102.155C50.0169 103.707 48.6275 105.603 46.8908 106.207C45.3278 105.258 43.8516 104.138 41.8544 103.62C43.1569 105.517 46.7171 106.552 48.367 108.62C45.762 110.431 41.5939 110.603 38.4678 111.81C37.86 109.396 36.297 107.931 35.8628 105.345C37.86 104.224 39.1625 102.414 40.5519 100.689C43.8516 101.12 46.804 101.81 50.2774 102.155ZM41.7676 107.155C42.2017 107.241 42.1149 106.81 42.4622 106.81C42.4622 106.379 42.2017 106.207 41.7676 106.207C41.5939 106.379 41.5939 106.896 41.7676 107.155Z" fill="white"/>
<path fill-rule="evenodd" clip-rule="evenodd" d="M51.0585 102.327C52.8821 102.758 54.9661 103.017 56.7896 103.448C54.6188 104.051 52.5347 105.775 50.4507 104.569C50.4507 103.965 50.798 103.103 51.0585 102.327Z" fill="white"/>
<path fill-rule="evenodd" clip-rule="evenodd" d="M60.35 103.621C61.2184 104.655 61.3052 106.552 61.3052 108.448C58.8738 108.362 56.703 109.828 54.6189 109.569C52.9691 109.396 51.7534 108.017 50.1035 107.931C52.3612 105.345 56.0083 104.138 60.35 103.621Z" fill="white"/>
<path fill-rule="evenodd" clip-rule="evenodd" d="M62.0864 104.569C67.036 106.81 71.7251 109.31 76.8483 111.379C72.1593 110.776 67.3833 108.879 62.3469 108.017C62.5206 106.638 62.3469 105.603 62.0864 104.569Z" fill="white"/>
<path fill-rule="evenodd" clip-rule="evenodd" d="M51.4058 105.517C50.3638 106.293 49.2349 108.189 47.6719 106.982C48.4534 105.948 49.8427 104.396 51.4058 105.517Z" fill="white"/>
<path fill-rule="evenodd" clip-rule="evenodd" d="M34.9944 106.207C35.6891 107.586 36.2969 108.879 36.8179 110.431C35.9496 109.741 34.9944 109.138 34.2129 108.362C34.3866 107.5 34.5602 106.724 34.9944 106.207Z" fill="white"/>
<path fill-rule="evenodd" clip-rule="evenodd" d="M33.5181 106.638C33.4313 106.896 33.2576 107.069 33.1708 107.241C32.9103 107.069 32.3024 107.241 32.3893 106.724C32.9103 106.896 32.9103 106.551 33.5181 106.638Z" fill="white"/>
<path fill-rule="evenodd" clip-rule="evenodd" d="M52.882 109.741C51.4058 110.344 49.1481 110.689 47.1509 110.344C48.4534 108.448 50.7111 108.793 52.882 109.741Z" fill="white"/>
<path fill-rule="evenodd" clip-rule="evenodd" d="M73.9829 111.983C70.1622 113.707 65.3863 115.172 60.9577 116.983C60.0025 117.414 57.658 118.965 57.0501 118.879C55.7476 118.879 53.9241 116.121 53.1426 115.345C51.7532 113.879 50.798 112.845 49.9297 111.293C54.3583 110.603 58.5263 110.172 62.2602 108.879C63.1286 108.534 67.0361 110 68.2518 110.345C70.249 110.862 72.0725 111.638 73.9829 111.983ZM61.826 112.5C62.1734 112.672 62.0866 113.276 62.7812 113.103C63.4759 112.155 61.9997 111.293 61.826 112.5ZM55.7476 114.397C55.6608 115.259 56.2686 115.517 56.8765 115.69C57.7448 115 56.616 113.534 55.7476 114.397Z" fill="white"/>
<path fill-rule="evenodd" clip-rule="evenodd" d="M112.017 15.3447C111.843 16.724 110.888 18.6206 110.54 20.3447C106.285 22.9309 102.031 25.5171 98.0361 28.2758C97.8625 26.8102 98.8177 24.9999 98.9913 23.4482C103.246 20.6033 107.675 18.0171 112.017 15.3447Z" fill="white"/>
<path fill-rule="evenodd" clip-rule="evenodd" d="M72.6807 37.2412C77.2829 41.8964 81.451 49.8274 84.577 57.0688C85.0112 58.1033 85.9664 59.1378 86.2269 59.9998C86.4874 61.2067 86.1401 63.2757 86.2269 64.655C86.4006 69.224 87.1821 73.2757 85.7059 76.724C80.4958 64.4826 78.1513 49.3102 72.6807 37.2412ZM81.6246 63.8791C82.7535 62.586 83.9692 59.655 83.535 57.9309C82.5798 59.5688 82.0588 61.724 81.6246 63.8791ZM83.1008 64.8274C83.535 63.0171 85.0112 61.4654 84.577 59.3102C83.9692 61.0343 82.9272 63.0171 83.1008 64.8274Z" fill="white"/>
<path fill-rule="evenodd" clip-rule="evenodd" d="M137.98 66.0342C137.285 65.6031 137.459 64.5687 137.372 63.9652C136.764 63.2756 135.288 63.2756 134.42 62.8445C136.764 56.379 138.675 49.3962 140.933 42.8445C140.846 42.2411 141.193 42.5859 141.106 43.0169C139.543 50.0859 138.588 57.8445 137.98 66.0342Z" fill="white"/>
<path fill-rule="evenodd" clip-rule="evenodd" d="M59.3081 68.8789C62.2605 70.3444 65.0392 73.3617 68.2521 75.172C68.5994 75.8617 68.3389 77.1548 68.4258 78.103C64.9524 75.4306 62.4342 71.8961 59.3081 68.8789Z" fill="white"/>
<path fill-rule="evenodd" clip-rule="evenodd" d="M7.29395 73.4479C8.07546 71.379 9.11748 72.241 10.8542 73.6204C15.8906 77.4997 22.0559 82.0686 26.4844 85.8617C20.5797 81.8962 13.8066 77.4135 7.29395 73.4479Z" fill="white"/>
<path fill-rule="evenodd" clip-rule="evenodd" d="M52.9692 90C57.0505 90.6897 61.5659 92.3276 65.6471 93.5345C69.902 99.7414 74.6779 105.172 79.0197 111.207C74.5911 109.31 70.423 107.069 65.8208 105.086C64.3446 104.397 62.5211 104.052 61.3922 103.19C60.0028 101.983 58.4398 98.5345 57.311 96.7241C55.9216 94.2241 54.3586 91.9828 52.9692 90Z" fill="white"/>
<path fill-rule="evenodd" clip-rule="evenodd" d="M46.5435 111.379C46.804 111.206 47.9328 111.551 48.6275 111.379C49.4958 112.931 51.1457 114.569 52.5351 116.034C52.7956 116.293 53.6639 117.155 53.1429 117.155C50.972 115.172 48.7143 113.275 46.5435 111.379Z" fill="white"/>
</g>
<defs>
<clipPath id="clip0_1504_592">
<rect width="186" height="120" fill="white"/>
</clipPath>
</defs>
</svg>
