<svg width="460" height="36" viewBox="0 0 460 36" fill="none" xmlns="http://www.w3.org/2000/svg">
<g clip-path="url(#clip0_591_1356)">
<path d="M1.44 0H0V36H1.44V0Z" fill="#3551A2"/>
<path d="M24.516 27.252C26.172 25.776 27.828 24.408 28.98 23.472C35.64 18.216 38.988 15.408 38.988 11.556C38.988 7.272 36.36 4.176 30.672 4.176C25.848 4.176 21.78 6.48 21.456 10.62C21.888 11.52 22.752 12.096 23.796 12.096C24.912 12.096 26.1 11.52 26.496 9.108L27.288 5.544C27.756 5.436 28.224 5.4 28.656 5.4C31.428 5.4 33.12 7.632 33.12 11.196C33.12 15.084 31.356 17.46 27.432 21.888C25.668 23.904 23.652 26.172 21.564 28.44V31.68H39.6V27.252H24.516Z" fill="#3551A2"/>
<path d="M49.1183 18.18C49.1183 8.1 50.8823 5.436 53.0063 5.436C55.1303 5.436 56.9663 8.136 56.9663 18.18C56.9663 28.296 55.1303 31.032 53.0063 31.032C50.8823 31.032 49.1183 28.332 49.1183 18.18ZM53.0063 4.176C48.0023 4.176 43.6463 8.424 43.6463 18.18C43.6463 28.008 48.0023 32.292 53.0063 32.292C57.9743 32.292 62.4023 28.008 62.4023 18.18C62.4023 8.424 57.9743 4.176 53.0063 4.176Z" fill="#3551A2"/>
<path d="M69.7607 27.252C71.4167 25.776 73.0727 24.408 74.2247 23.472C80.8847 18.216 84.2327 15.408 84.2327 11.556C84.2327 7.272 81.6047 4.176 75.9167 4.176C71.0927 4.176 67.0247 6.48 66.7007 10.62C67.1327 11.52 67.9967 12.096 69.0407 12.096C70.1567 12.096 71.3447 11.52 71.7407 9.108L72.5327 5.544C73.0007 5.436 73.4687 5.4 73.9007 5.4C76.6727 5.4 78.3647 7.632 78.3647 11.196C78.3647 15.084 76.6007 17.46 72.6767 21.888C70.9127 23.904 68.8967 26.172 66.8087 28.44V31.68H84.8447V27.252H69.7607Z" fill="#3551A2"/>
<path d="M92.383 27.252C94.039 25.776 95.695 24.408 96.847 23.472C103.507 18.216 106.855 15.408 106.855 11.556C106.855 7.272 104.227 4.176 98.539 4.176C93.715 4.176 89.647 6.48 89.323 10.62C89.755 11.52 90.619 12.096 91.663 12.096C92.779 12.096 93.967 11.52 94.363 9.108L95.155 5.544C95.623 5.436 96.091 5.4 96.523 5.4C99.295 5.4 100.987 7.632 100.987 11.196C100.987 15.084 99.223 17.46 95.299 21.888C93.535 23.904 91.519 26.172 89.431 28.44V31.68H107.467V27.252H92.383Z" fill="#3551A2"/>
<path d="M135.921 29.16C138.405 30.384 139.701 32.112 140.313 33.48C143.373 37.188 151.041 29.376 136.101 28.728L135.921 29.16ZM134.085 12.888V10.944H136.137V12.888H134.085ZM136.929 14.544C138.261 14.544 139.881 14.148 139.881 13.968V10.944H143.877C144.381 10.944 144.705 10.764 144.813 10.368C143.625 9.252 141.645 7.704 141.645 7.704L139.917 9.936H139.881V7.956C140.601 7.848 140.853 7.524 140.889 7.128L136.137 6.696V9.936H134.085V7.992C134.805 7.884 135.057 7.56 135.093 7.164L130.341 6.732V9.936H128.397L128.685 10.944H130.341V14.76H131.133C132.465 14.76 134.085 14.328 134.085 14.184V13.896H136.137V14.544H136.929ZM137.505 26.604V23.076H138.945V26.604H137.505ZM132.321 23.076H133.797V26.604H132.321V23.076ZM133.797 19.044V22.068H132.321V19.044H133.797ZM138.945 19.044V22.068H137.505V19.044H138.945ZM140.169 16.344L138.621 18.036H132.501L128.469 16.416V29.16H129.009C129.945 29.16 130.881 28.872 131.529 28.584C130.053 30.492 127.245 32.94 124.545 34.38L124.725 34.776C128.541 34.2 132.393 32.904 134.625 31.5C135.741 31.716 136.389 31.536 136.677 31.14L131.961 28.332C132.177 28.188 132.321 28.044 132.321 27.936V27.612H138.945V28.188H139.665C140.961 28.188 143.013 27.468 143.049 27.216V19.656C143.733 19.512 144.165 19.224 144.381 18.972L140.889 16.344H144.129C144.633 16.344 144.957 16.164 145.065 15.768C143.985 14.724 142.185 13.32 142.185 13.32L140.637 15.336H127.929L128.217 16.344H140.169ZM122.421 16.596C122.997 16.488 123.393 16.236 123.573 16.02L119.865 13.176L118.029 15.12H117.201L116.517 14.868C117.777 11.916 118.785 8.712 119.433 5.364H123.213C123.357 5.364 123.501 5.364 123.609 5.328V16.02C123.609 20.556 123.537 25.236 122.421 29.52V16.596ZM116.733 28.512V16.128H118.353V28.512H116.733ZM139.377 5.184H136.245C138.657 4.356 139.197 0.288001 132.033 0.576001L131.781 0.756001C132.573 1.656 133.401 3.24 133.509 4.716C133.833 4.932 134.121 5.076 134.445 5.184H128.577L123.609 3.42V4.248C122.133 2.988 120.225 1.548 120.225 1.548L118.029 4.356H110.721L111.009 5.364H114.717C113.853 11.268 112.377 18.936 110.685 24.048L111.189 24.336C111.729 23.58 112.269 22.788 112.773 21.96V33.156H113.493C115.509 33.156 116.733 32.256 116.733 31.968V29.52H118.353V31.788H119.037C120.009 31.788 121.305 31.356 121.989 31.032C121.521 32.472 120.909 33.84 120.117 35.136L120.513 35.424C127.569 30.24 127.929 22.428 127.929 16.02V6.192H144.273C144.777 6.192 145.137 6.012 145.245 5.616C143.805 4.32 141.465 2.484 141.465 2.484L139.377 5.184Z" fill="#3551A2"/>
<path d="M174.009 9.396V30.672H167.277V3.132C168.285 2.988 168.537 2.628 168.609 2.088L161.661 1.476V30.672H155.073V11.052C156.009 10.908 156.297 10.548 156.405 10.008L149.565 9.36V30.06C149.061 30.456 148.557 30.96 148.197 31.392L153.669 33.984L155.253 31.68H174.009V35.136H175.017C177.141 35.136 179.553 33.984 179.553 33.552V11.052C180.561 10.908 180.813 10.512 180.885 10.008L174.009 9.396Z" fill="#3551A2"/>
<path d="M194.637 13.212V14.652C194.637 15.336 194.673 15.876 194.817 16.272L191.505 15.984C192.441 15.228 193.125 14.292 193.629 13.212H194.637ZM199.497 10.224L197.805 12.204H195.717V10.224H199.497ZM195.501 18.396V17.172L195.645 17.136C196.041 17.28 196.545 17.352 197.229 17.352H197.805L196.797 18.396H195.501ZM186.141 18.288C188.481 17.784 190.173 17.064 191.397 16.092V18.396H187.617L187.905 19.404H191.397V21.168C189.273 21.24 187.437 21.276 186.213 21.24L188.049 25.812C188.445 25.776 188.841 25.488 189.093 25.02C194.529 23.472 198.237 22.14 201.009 21.024L200.973 20.556C199.137 20.7 197.301 20.844 195.501 20.952V19.404H200.469C200.937 19.404 201.297 19.224 201.369 18.828C200.721 18.324 199.893 17.748 199.281 17.316C201.405 17.244 202.161 16.74 202.161 15.696C202.161 15.12 201.909 14.832 201.081 14.508L200.901 14.436H200.577C200.361 14.508 200.037 14.544 199.857 14.58C199.713 14.58 199.353 14.616 199.245 14.616H198.561C198.309 14.616 198.237 14.472 198.237 14.148V13.212H201.801C202.305 13.212 202.665 13.032 202.773 12.636L202.197 12.168H204.105C204.069 12.924 204.033 13.644 203.961 14.328C203.349 14.256 202.701 14.22 201.981 14.22L201.765 14.688C202.485 15.084 203.133 15.552 203.709 16.02C203.133 18.756 201.801 20.988 198.705 22.824L199.029 23.328C202.809 22.14 205.005 20.664 206.337 18.792C206.625 19.224 206.841 19.62 206.985 19.944C209.613 21.24 211.629 17.424 207.813 15.372C208.065 14.4 208.173 13.32 208.281 12.168H209.793C209.829 16.668 210.261 20.808 212.601 22.968C213.681 23.904 215.841 24.444 216.741 22.896C217.245 22.068 216.921 21.096 216.201 20.052L216.489 16.524L216.129 16.452C215.805 17.424 215.445 18.36 215.085 19.044C214.941 19.296 214.797 19.368 214.617 19.188C213.933 18.288 213.645 15.12 213.825 12.492C214.365 12.42 214.941 12.204 215.121 11.952L211.413 9.144L209.397 11.16H208.353C208.389 10.476 208.389 9.792 208.425 9.072C209.181 8.964 209.541 8.604 209.613 8.136L204.141 7.668C204.141 8.892 204.141 10.08 204.141 11.16H201.729L202.017 12.024C200.973 11.232 199.821 10.404 199.569 10.224H199.965C200.469 10.224 200.793 10.044 200.901 9.648C199.749 8.604 197.877 7.164 197.877 7.164L196.257 9.216H195.717V7.956C196.329 7.848 196.509 7.596 196.581 7.236L193.377 6.948C194.745 6.804 195.753 6.408 196.257 5.724L196.185 5.148H200.793C201.297 5.148 201.621 4.968 201.729 4.572C200.505 3.42 198.453 1.8 198.453 1.8L196.653 4.14H196.005L195.789 2.592C196.509 2.376 196.797 1.98 196.797 1.548L190.533 1.152L190.893 4.14H184.773L185.061 5.148H191.037L191.253 7.02H191.433V9.216H187.257L187.545 10.224H191.433V12.204H185.925L186.213 13.212H189.453C189.057 15.12 188.049 16.848 185.745 17.82L186.141 18.288ZM204.213 23.976H193.197L193.485 24.984H209.793C210.333 24.984 210.729 24.804 210.801 24.408C209.181 23.076 206.553 21.204 206.553 21.204L204.213 23.976ZM210.729 27.036H186.069L186.357 28.044H195.105C193.629 28.872 191.541 29.808 189.777 30.024C189.381 30.132 188.553 30.204 188.553 30.204L189.993 35.028C190.389 34.92 190.785 34.632 191.109 34.2C198.201 33.372 204.285 32.508 208.785 31.788C210.045 32.94 211.017 34.02 211.521 34.776C215.733 36.72 218.757 28.296 205.005 28.296L204.825 28.692C205.761 29.34 206.697 30.024 207.525 30.708C202.485 30.708 197.769 30.744 194.169 30.708C196.401 30.384 198.705 29.952 200.325 29.448C201.369 29.592 201.837 29.232 201.981 28.8L199.497 28.044H216.453C216.957 28.044 217.353 27.864 217.461 27.468C215.769 26.136 213.105 24.228 213.105 24.228L210.729 27.036ZM212.673 4.14H210.837L211.089 2.916C212.097 2.808 212.421 2.412 212.493 1.98L206.301 1.008L205.761 4.14H202.341L202.629 5.148H205.581L205.221 7.2C207.345 7.632 209.397 7.308 210.369 6.588L210.657 5.148H217.533C218.037 5.148 218.397 4.968 218.505 4.572C217.137 3.204 214.761 1.188 214.761 1.188L212.673 4.14Z" fill="#3551A2"/>
<path d="M254.109 5.904C254.613 5.904 255.009 5.724 255.117 5.328C253.677 3.924 251.193 1.908 251.193 1.908L248.997 4.896H244.893L245.181 5.904H254.109ZM240.465 2.736C241.041 3.636 241.581 5.112 241.581 6.372C244.065 8.568 247.305 3.888 240.825 2.556L240.465 2.736ZM226.425 0.972C225.489 3.816 223.293 8.208 220.881 11.016L221.169 11.34C225.021 9.684 228.477 6.984 230.673 4.608C231.537 4.716 231.897 4.5 232.077 4.14L226.425 0.972ZM228.585 15.444C229.377 14.472 230.097 13.5 230.745 12.6C231.645 12.744 231.969 12.492 232.185 12.132L226.461 8.892C225.489 12.6 223.185 18.432 220.485 22.284L220.809 22.608C222.141 21.78 223.365 20.808 224.481 19.8V35.1H225.381C227.253 35.1 229.269 34.164 229.341 33.84V16.848C230.025 16.74 230.349 16.488 230.493 16.164L228.585 15.444ZM244.641 10.512C245.145 10.512 245.505 10.332 245.613 9.936C244.245 8.64 241.977 6.804 241.977 6.804L239.961 9.504H239.709V2.736C240.681 2.628 240.969 2.232 241.041 1.728L235.245 1.152V9.504H230.637L230.925 10.512H235.245V14.544L231.105 14.148V18.612C231.105 22.068 230.997 26.856 229.629 30.24L230.061 30.6C233.625 27.54 234.309 22.284 234.345 18.684V15.516C234.777 15.48 235.065 15.336 235.245 15.192V34.668H236.109C237.765 34.668 239.709 33.588 239.709 33.12V10.512H244.641ZM245.541 25.524H245.217C245.037 25.56 244.749 25.632 244.569 25.632C244.461 25.668 244.317 25.668 244.173 25.668C244.065 25.668 244.029 25.488 244.029 25.164V15.552C244.713 15.444 245.037 15.12 245.073 14.652L240.681 14.22V25.992C240.681 27.9 240.861 28.692 242.913 28.692H243.597C245.649 28.692 246.765 28.116 246.765 26.892C246.765 26.244 246.477 25.956 245.721 25.596L245.541 25.524ZM249.429 12.852H243.957L244.245 13.86H247.413V29.664C247.413 30.024 247.305 30.24 246.837 30.24C246.297 30.24 244.353 30.132 244.353 30.132V30.6C245.649 30.816 246.153 31.356 246.441 31.968C246.765 32.616 246.837 33.696 246.873 35.1C251.409 34.74 252.021 32.76 252.021 29.772V13.86H254.757C255.297 13.86 255.657 13.68 255.765 13.284C254.253 11.844 251.697 9.72 251.697 9.72L249.429 12.852Z" fill="#3551A2"/>
<path d="M272.145 17.532H273.081C275.709 17.532 277.257 16.74 277.257 16.56V11.7C281.901 13.896 285.645 16.776 287.265 18.504C291.945 20.376 294.609 11.052 277.257 10.584V9.936H289.713C290.217 9.936 290.613 9.756 290.721 9.36C288.993 7.92 286.185 5.868 286.185 5.868L283.701 8.928H277.257V5.616C280.101 5.508 282.729 5.328 284.889 5.112C286.113 5.652 287.013 5.616 287.445 5.292L283.161 0.720001C278.337 2.304 268.977 4.212 261.813 5.076L261.849 5.616C265.089 5.76 268.653 5.796 272.145 5.76V8.928H258.717L259.005 9.936H268.077C265.845 13.284 262.101 16.812 257.673 19.044L257.889 19.44C263.577 18 268.581 15.732 272.145 12.744V17.532ZM284.277 24.66H277.401V22.932C278.157 22.824 278.517 22.572 278.589 22.032L277.941 21.996C280.137 21.348 282.405 20.592 284.097 19.98C284.889 19.944 285.213 19.836 285.537 19.512L281.073 15.588L278.373 18.144H264.621L264.945 19.152H277.977C277.293 19.98 276.465 20.952 275.673 21.816L272.325 21.528V24.66H258.285L258.573 25.668H272.325V29.268C272.325 29.664 272.145 29.808 271.677 29.808C270.885 29.808 266.745 29.556 266.745 29.556V30.024C268.725 30.384 269.481 30.888 270.129 31.644C270.741 32.4 270.921 33.48 271.065 35.064C276.609 34.596 277.401 32.796 277.401 29.484V25.668H290.289C290.793 25.668 291.189 25.488 291.297 25.092C289.641 23.544 286.797 21.204 286.797 21.204L284.277 24.66Z" fill="#3551A2"/>
<path d="M303.033 11.808C304.617 9.432 306.057 6.804 307.317 3.816C308.181 3.852 308.649 3.564 308.829 3.096L301.989 0.864C300.369 8.1 297.093 15.624 294.033 20.304L294.393 20.592C295.977 19.476 297.489 18.216 298.893 16.812V35.1H299.865C301.917 35.1 304.041 34.02 304.113 33.66V13.32C304.833 13.176 305.121 12.924 305.229 12.6L303.033 11.808ZM327.837 9.864C328.377 9.864 328.809 9.684 328.917 9.288C327.081 7.668 324.021 5.292 324.021 5.292L321.285 8.856H314.445C315.417 7.344 316.317 5.724 317.145 3.996C318.009 4.068 318.477 3.78 318.657 3.312L311.745 0.900001C310.233 7.308 307.317 14.112 304.653 18.324L305.013 18.576C308.289 16.416 311.169 13.608 313.653 10.044V35.028H314.661C317.433 35.028 319.053 34.02 319.053 33.732V25.488H327.261C327.801 25.488 328.233 25.308 328.341 24.912C326.469 23.292 323.373 20.88 323.373 20.88L320.637 24.48H319.053V17.604H326.541C327.081 17.604 327.477 17.424 327.585 17.028C325.857 15.516 323.013 13.284 323.013 13.284L320.493 16.596H319.053V9.864H327.837Z" fill="#3551A2"/>
<path d="M352.713 4.752V12.852H343.713V4.752H352.713ZM343.713 13.86H352.713V16.92H353.613C355.413 16.92 357.897 15.876 357.933 15.552V5.58C358.689 5.436 359.157 5.076 359.373 4.788L354.657 1.224L352.353 3.744H343.929L338.493 1.656V17.316H339.249C341.409 17.316 343.713 16.164 343.713 15.696V13.86ZM337.917 29.844V20.376H341.877V29.844H337.917ZM341.517 19.368H338.097L332.985 17.388V34.704H333.705C335.793 34.704 337.917 33.588 337.917 33.12V30.852H341.877V34.056H342.741C344.469 34.056 346.845 33.012 346.881 32.688V21.168C347.637 21.024 348.069 20.7 348.285 20.412L343.749 16.92L341.517 19.368ZM354.369 29.844V20.376H358.617V29.844H354.369ZM360.525 16.884L358.257 19.368H354.549L349.437 17.388V34.704H350.157C352.245 34.704 354.369 33.588 354.369 33.12V30.852H358.617V34.2H359.481C361.173 34.2 363.693 33.336 363.729 33.048V21.204C364.485 21.024 364.953 20.7 365.169 20.412L360.525 16.884Z" fill="#3551A2"/>
<path d="M376.545 12.42H381.153V15.372L377.481 16.992L378.165 17.784L381.153 16.488V22.14C379.605 22.536 378.021 22.896 376.545 23.256V12.42ZM400.053 23.904H399.693C398.793 26.352 398.073 28.08 397.533 28.8C397.173 29.196 396.741 29.34 396.129 29.376C395.409 29.412 394.113 29.448 392.637 29.448H388.101C386.481 29.448 385.977 29.16 385.977 28.152V14.364L388.137 13.428V26.964H389.001C390.801 26.964 392.853 25.992 392.853 25.56V11.376L395.445 10.224C395.445 14.292 395.121 20.196 394.545 24.768L394.905 24.984C397.317 21.24 399.225 15.444 400.233 11.52C401.061 11.448 401.421 11.304 401.709 10.98L397.749 6.84L395.625 9.036L392.853 10.26V2.484C393.861 2.34 394.113 1.98 394.185 1.476L388.137 0.900001V12.312L385.977 13.284V7.812C386.841 7.704 387.201 7.308 387.237 6.84L381.153 6.228V10.872C380.073 9.54 378.741 8.1 378.741 8.1L376.905 11.412H376.545V3.204C377.553 3.06 377.805 2.664 377.877 2.16L371.613 1.62V11.412H367.725L368.013 12.42H371.613V24.372C369.885 24.732 368.445 25.02 367.545 25.164L370.281 30.924C370.749 30.78 371.109 30.384 371.289 29.88C376.005 26.82 379.137 24.408 381.153 22.68V29.412C381.153 33.192 382.845 33.948 387.489 33.948H392.169C400.125 33.948 402.177 33.156 402.177 30.924C402.177 30.06 401.709 29.52 400.197 28.944L400.053 23.904Z" fill="#3551A2"/>
<path d="M420.789 23.76V20.988H422.373V23.76H420.789ZM423.417 18.72L422.157 19.98H420.933L418.053 18.792V26.28H418.449C419.565 26.28 420.789 25.668 420.789 25.452V24.768H422.373V26.064H422.841C423.705 26.064 425.109 25.488 425.145 25.236V21.132C425.541 21.06 425.901 20.844 426.009 20.7L423.417 18.72ZM423.633 14.22V11.772H424.497V12.924H425.253C426.153 12.924 427.377 12.636 428.133 12.348L426.549 14.22H423.633ZM418.521 10.764V7.992H424.497V10.764H418.521ZM417.081 27.216V18.072H426.153V27.216H417.081ZM428.817 8.496C429.429 8.388 429.789 8.136 429.969 7.92L426.045 5.004L424.173 6.984H418.701L414.273 5.292V13.428H414.849C416.577 13.428 418.521 12.528 418.521 12.204V11.772H419.313V14.22H411.645L411.933 15.228H427.557L425.829 17.064H417.297L413.121 15.408V30.636H413.697C415.353 30.636 417.081 29.772 417.081 29.376V28.224H426.153V29.952H426.837C428.133 29.952 430.113 29.196 430.149 28.908V18.54C430.725 18.432 431.121 18.18 431.301 17.964L427.737 15.228H431.157C431.661 15.228 432.057 15.048 432.129 14.652C431.013 13.68 429.357 12.492 428.745 12.06C428.781 12.024 428.817 11.988 428.817 11.952V8.496ZM411.069 31.356V4.536H432.165V31.356H411.069ZM434.109 0.972L431.805 3.528H411.465L406.209 1.44V35.172H407.037C409.125 35.172 411.069 33.984 411.069 33.336V32.364H432.165V34.848H432.921C434.757 34.848 437.025 33.696 437.097 33.336V5.328C437.817 5.148 438.285 4.86 438.537 4.536L434.109 0.972Z" fill="#3551A2"/>
<path d="M459.129 0H457.689V36H459.129V0Z" fill="#3551A2"/>
</g>
<defs>
<clipPath id="clip0_591_1356">
<rect width="460" height="36" fill="white"/>
</clipPath>
</defs>
</svg>
