<svg width="72" height="183" viewBox="0 0 72 183" fill="none" xmlns="http://www.w3.org/2000/svg">
<path d="M41.7529 4.368V8.928H34.5049V4.368H41.7529ZM34.5049 14.928V10.224H41.7529V14.928H34.5049ZM41.7529 16.272V18.912H42.6169C44.2489 18.912 46.8409 17.952 46.8889 17.616V5.088C47.7529 4.944 48.3289 4.512 48.6169 4.176L43.6249 0.384001L41.2729 2.976H34.6969L29.0329 0.527999V44.352H29.9449C32.4409 44.352 34.5049 42.96 34.5049 42.24V16.272H41.7529ZM54.1369 25.488H60.6169C61.2889 25.488 61.7209 25.248 61.8649 24.72C60.3289 23.088 57.6889 20.784 57.6889 20.784L55.3849 24.096H54.0889L54.0409 20.784C55.2409 20.592 55.6249 20.112 55.7689 19.44L49.0489 18.864L49.1449 24.096H36.6649L37.0489 25.488H46.2169C44.0089 30.096 40.4569 34.464 35.8969 37.536L36.2809 38.208C41.5609 36 46.0249 33.12 49.2409 29.424L49.3849 35.904C49.3849 36.432 49.1929 36.672 48.5209 36.672C47.5609 36.672 43.7209 36.432 43.7209 36.432V37.056C45.8809 37.344 46.7929 38.016 47.3209 38.832C47.8489 39.696 48.0889 40.944 48.0889 42.576C53.5129 42.096 54.3769 39.408 54.2809 36L54.1369 25.488ZM55.8169 14.928V10.224H63.3049V14.928H55.8169ZM63.3049 4.368V8.928H55.8169V4.368H63.3049ZM65.3689 0L62.8249 2.976H56.0089L50.5849 0.816001V18.48H51.3049C53.5129 18.48 55.8169 17.28 55.8169 16.8V16.272H63.3049V37.104C63.3049 37.728 63.1129 38.112 62.3449 38.112C61.4329 38.112 57.3529 37.776 57.3529 37.776V38.496C59.4649 38.88 60.3769 39.504 61.0489 40.32C61.6249 41.136 61.8649 42.48 61.9609 44.304C68.0569 43.776 68.8249 41.568 68.8249 37.728V5.232C69.8329 5.088 70.4569 4.656 70.7929 4.272L65.3689 0Z" fill="#F5F7FF"/>
<path d="M51.5929 99.96V97.032C52.7449 96.84 53.0809 96.408 53.1769 95.832L46.2169 95.208V99.96H41.0809L39.2569 99.288C41.6089 97.848 43.5769 96.312 45.4009 94.632H55.2409C56.2009 96.12 57.3529 97.416 58.7449 98.616L57.5449 99.96H51.5929ZM40.3129 84.264H57.6889V87.624H40.3129V84.264ZM57.6889 79.176V82.92H40.3129V79.176H57.6889ZM69.2089 94.632C69.8329 94.632 70.3129 94.392 70.4569 93.864C68.5369 92.184 65.3689 89.88 65.3689 89.88L62.6329 93.24H46.7929C47.3689 92.664 47.8969 92.04 48.3769 91.464C49.9609 91.464 50.5369 91.176 50.7769 90.552L44.7769 88.968H57.6889V90.312H58.6489C60.5209 90.312 63.2569 89.16 63.2569 88.776V79.992C64.1209 79.8 64.7449 79.416 65.0329 79.032L60.6169 75.768L60.6649 75.72L61.1929 73.512H69.5929C70.2649 73.512 70.7449 73.272 70.8889 72.744C69.2569 71.112 66.4249 68.712 66.4249 68.712L63.9289 72.168H61.4809L61.8649 70.536C63.1609 70.44 63.5929 69.912 63.7369 69.336L56.7289 68.136L55.9609 72.168H50.5369L50.9209 73.512H55.7209L55.1449 76.392C56.3449 76.632 57.4969 76.68 58.5049 76.536L57.2089 77.832H40.6489L37.7209 76.68C39.5929 76.584 41.1289 76.104 41.8009 75.288L41.5609 73.512H48.2329C48.9049 73.512 49.3849 73.272 49.4809 72.744C47.8489 71.112 45.0169 68.712 45.0169 68.712L42.5209 72.168H41.3209L41.0329 70.056C41.9449 69.768 42.3289 69.24 42.3769 68.664L35.3209 68.184L35.8489 72.168H27.2089L27.5929 73.512H35.9929L36.3769 76.152L34.7929 75.576V91.08H35.5609C37.8649 91.08 40.3129 89.88 40.3129 89.4V88.968H43.1929C42.4249 90.36 41.4649 91.8 40.2649 93.24H28.1689L28.5529 94.632H39.0649C35.8489 98.088 31.4809 101.448 26.2969 103.848L26.6329 104.376C29.7529 103.656 32.6329 102.648 35.2249 101.448V111.24H36.1369C38.8249 111.24 40.4569 110.04 40.4569 109.656V101.352H46.2169V113.352H47.1289C49.2409 113.352 51.5929 112.488 51.5929 112.056V101.352H58.0249V105.432C58.0249 106.008 57.8329 106.296 57.2089 106.296C56.2009 106.296 52.9369 106.056 52.9369 106.056V106.68C54.8089 107.016 55.5289 107.592 56.1049 108.264C56.6809 109.032 56.8249 110.184 56.9209 111.72C62.5849 111.24 63.3049 109.272 63.3049 105.96V102.264C63.5449 102.216 63.7369 102.168 63.9289 102.12C65.2249 102.84 66.6649 103.464 68.1049 103.944C68.5849 101.496 69.7369 99.816 71.6089 99.192L71.6569 98.664C66.7609 98.136 60.7129 96.84 57.0169 94.632H69.2089Z" fill="#F5F7FF"/>
<path d="M42.5209 159.216H50.2969C50.9689 159.216 51.4489 158.976 51.5929 158.448C49.5289 156.624 46.1689 153.984 46.1689 153.984L43.1449 157.872H28.4569L28.8409 159.216H36.8569V173.52C32.6809 174.288 29.2249 174.912 27.1609 175.2L30.8089 181.296C31.2889 181.104 31.7689 180.72 32.0089 180.048C41.8969 176.208 48.3769 173.28 52.8409 171.072L52.6969 170.448C49.1929 171.168 45.7369 171.84 42.5209 172.464V159.216ZM70.8889 167.76L70.3609 167.664C69.4969 169.728 68.1529 172.272 67.3849 173.568C66.9529 174.384 66.5689 174.384 65.8969 173.712C59.6089 168.672 57.4009 159.648 56.7769 149.568H70.0729C70.7449 149.568 71.3209 149.328 71.4649 148.8C69.9289 147.552 67.8169 145.92 66.5689 145.008C68.7289 143.328 67.9609 138.48 58.9849 138.96L58.6489 139.344C60.3289 140.64 62.4889 143.04 63.3049 145.104C63.6889 145.296 64.0729 145.44 64.4569 145.488L62.2009 148.176H56.7289C56.5849 145.392 56.5849 142.56 56.6329 139.728C57.8329 139.536 58.2649 138.96 58.3609 138.336L50.7769 137.568C50.7769 141.216 50.8729 144.768 51.0649 148.176H26.7769L27.2089 149.568H51.1609C52.0249 161.808 54.7609 172.272 62.5369 179.328C64.6969 181.296 68.6329 183.36 70.8889 181.152C71.7049 180.384 71.4649 178.8 69.7849 175.92L70.8889 167.76Z" fill="#F5F7FF"/>
<circle cx="9" cy="23.08" r="8" fill="#FFDC60"/>
<circle cx="9" cy="89.08" r="8" fill="#FFDC60"/>
<circle cx="9" cy="155.08" r="8" fill="#FFDC60"/>
</svg>
