<svg width="150" height="150" viewBox="0 0 150 150" fill="none" xmlns="http://www.w3.org/2000/svg">
<path d="M50.5393 5.33888C51.8552 3.88851 53.5611 2.84799 55.453 2.34187C57.345 1.83575 59.3427 1.88547 61.2071 2.48508C61.2071 0.553613 72.884 66.8095 72.2112 64.8781C72.884 66.8095 49.9207 3.59188 50.5393 5.33888ZM75.9661 64.5851C75.6622 66.5383 87.3392 0.282339 87.0028 2.18126C85.4625 0.950742 83.592 0.204321 81.6276 0.0362952C79.6632 -0.131731 77.693 0.286178 75.9661 1.23722C75.6622 -0.7268 75.6622 66.5383 75.9661 64.5851ZM73.9693 64.5851C74.3165 66.5383 74.3165 -0.7268 73.9693 1.23722C72.2498 0.300151 70.2924 -0.110023 68.3413 0.0578552C66.3903 0.225734 64.5318 0.964235 62.9977 2.18126C62.6612 0.29319 74.3491 66.5383 74.0018 64.5851H73.9693ZM65.4828 70.5423C67.3277 71.5188 9.05124 37.8917 10.614 38.8683C8.97661 39.9238 7.66954 41.4188 6.84235 43.1824C6.01516 44.9459 5.70129 46.9067 5.93665 48.8404C4.09177 48.4823 67.2843 71.4863 65.4828 70.5423ZM66.3836 68.9689C68.0765 70.195 16.5501 26.9648 17.8524 28.2235C16.0626 28.9957 14.5224 30.2496 13.4034 31.8456C12.2843 33.4415 11.6305 35.3168 11.5147 37.2624C9.76748 36.5571 68.0765 70.195 66.3836 68.9363V68.9689ZM70.54 65.4966C71.4841 67.287 48.4665 4.11272 48.8355 5.94654C46.8968 5.70872 44.9304 6.0212 43.161 6.84824C41.3915 7.67527 39.8906 8.98349 38.8298 10.6233C37.8422 9.07161 71.4841 67.287 70.54 65.4966ZM77.8218 64.8781C77.149 66.8095 100.167 3.58103 99.5263 5.33888C98.2079 3.88871 96.5 2.84851 94.6065 2.34248C92.713 1.83644 90.7138 1.88595 88.8477 2.48508C88.8043 0.553613 77.1164 66.8095 77.7893 64.8781H77.8218ZM68.9664 66.3863C70.2253 68.0899 36.5833 9.83118 37.2887 11.5239C35.3357 11.6336 33.4519 12.2857 31.8492 13.4071C30.2465 14.5285 28.9884 16.0746 28.2163 17.8717C26.9466 16.5588 70.1927 68.0899 68.9338 66.3863H68.9664ZM79.5365 65.4966C78.5489 67.3304 112.191 9.07161 111.214 10.6233C110.156 8.98072 108.656 7.6703 106.885 6.84291C105.115 6.01553 103.147 5.70481 101.208 5.94654C101.534 4.10187 78.5164 67.287 79.5039 65.4966H79.5365ZM67.599 67.5474C69.0966 69.0557 25.8613 17.5245 26.8814 19.0328C24.9853 19.4844 23.2513 20.4525 21.8721 21.8297C20.4928 23.2069 19.5222 24.9393 19.0678 26.8346C17.516 25.8146 69.0424 69.0557 67.5448 67.5474H67.599ZM19.0136 123.18C19.4695 125.076 20.4405 126.809 21.8194 128.187C23.1982 129.566 24.9313 130.537 26.8272 130.993C25.8071 132.49 69.0424 80.9592 67.5448 82.4783C69.0424 80.9592 17.516 124.2 19.0136 123.18ZM82.4774 82.4783C80.9798 80.9809 124.226 132.501 123.206 131.004C125.102 130.548 126.835 129.577 128.214 128.198C129.593 126.82 130.564 125.087 131.019 123.191C132.495 124.2 80.9581 80.97 82.4774 82.4783ZM131.019 26.8455C130.564 24.9498 129.593 23.2169 128.214 21.8382C126.835 20.4596 125.102 19.4887 123.206 19.0328C124.204 17.5245 80.9581 69.0557 82.4774 67.5474C80.9581 69.0557 132.495 25.8146 130.998 26.8346L131.019 26.8455ZM81.0992 66.3972C79.8295 68.1008 123.076 16.5696 121.817 17.8717C121.047 16.0807 119.793 14.5393 118.196 13.4201C116.6 12.3009 114.723 11.6481 112.777 11.5348C113.45 9.77692 79.8078 68.0899 81.0775 66.3863L81.0992 66.3972ZM64.8751 72.2133C66.8068 72.8861 3.57086 49.882 5.32892 50.5114C3.87745 51.8288 2.83634 53.5365 2.33017 55.43C1.824 57.3236 1.87421 59.3229 2.47478 61.1887C0.543087 61.2104 66.8068 72.8861 64.8751 72.2133ZM84.5176 70.5423C82.6728 71.5188 145.92 48.504 144.075 48.8404C144.315 46.9002 144.003 44.9317 143.176 43.1603C142.349 41.389 141.039 39.8865 139.397 38.8249C140.949 37.8483 82.6728 71.4863 84.5176 70.5423ZM83.6169 68.9689C81.924 70.2276 140.2 36.5896 138.497 37.2949C138.387 35.3436 137.736 33.4615 136.616 31.8593C135.497 30.2571 133.953 28.9982 132.159 28.2235C133.483 26.954 81.924 70.195 83.6169 68.9363V68.9689ZM144.682 50.5222C146.44 49.8495 83.1937 72.8644 85.1254 72.2242C83.1937 72.8861 149.468 61.2104 147.591 61.2104C148.184 59.3412 148.225 57.3405 147.709 55.4485C147.193 53.5564 146.142 51.8535 144.682 50.544V50.5222ZM66.3836 81.0785C68.0765 79.8198 9.76748 113.458 11.5147 112.752C11.6281 114.699 12.2809 116.575 13.4002 118.171C14.5196 119.768 16.0611 121.021 17.8524 121.791C16.5501 123.05 68.0765 79.8198 66.3836 81.0785ZM81.0666 83.6285C79.8078 81.9249 113.45 140.195 112.755 138.491C114.702 138.379 116.579 137.726 118.176 136.607C119.773 135.488 121.026 133.946 121.795 132.154C123.054 133.478 79.8078 81.9249 81.0666 83.6285ZM83.6169 81.0785C81.924 79.8198 133.461 123.061 132.159 121.802C133.95 121.029 135.492 119.774 136.611 118.176C137.73 116.578 138.383 114.7 138.497 112.752C140.2 113.458 81.924 79.8198 83.6169 81.0785V81.0785ZM84.5176 79.5052C82.6728 78.5286 140.949 112.167 139.397 111.19C141.04 110.129 142.35 108.627 143.178 106.855C144.005 105.084 144.316 103.115 144.075 101.175C145.92 101.543 82.6728 78.5286 84.5176 79.5052ZM79.5039 84.5291C78.5164 82.6845 101.534 145.913 101.208 144.068C103.148 144.313 105.116 144.003 106.887 143.176C108.658 142.348 110.158 141.036 111.214 139.392C112.158 140.943 78.5164 82.6845 79.5039 84.5291V84.5291ZM77.7893 85.1368C77.1164 83.2053 88.8043 149.461 88.7934 147.53C90.6596 148.129 92.6587 148.178 94.5523 147.672C96.4458 147.166 98.1537 146.126 99.472 144.676C100.134 146.434 77.1164 83.2053 77.7893 85.1368V85.1368ZM85.3858 74.0146C83.4324 74.3509 150.705 74.3509 148.741 74.0146C149.682 72.2907 150.095 70.3278 149.927 68.3709C149.759 66.414 149.018 64.55 147.797 63.0117C149.761 62.6645 83.4758 74.3509 85.4292 74.0146H85.3858ZM85.3858 76.0003C83.4324 75.6639 149.696 87.3504 147.797 87.0032C149.032 85.4662 149.785 83.5984 149.96 81.6348C150.136 79.6712 149.727 77.6995 148.785 75.9677C150.749 75.6639 83.4758 75.6639 85.4292 75.9677L85.3858 76.0003ZM85.082 77.8016C83.1611 77.1288 146.397 100.144 144.639 99.5035C146.113 98.1962 147.176 96.4899 147.7 94.5911C148.224 92.6922 148.186 90.6822 147.591 88.8044C149.468 88.8153 83.2045 77.1288 85.1254 77.8016H85.082ZM64.8317 77.8016C66.8068 77.1288 0.543087 88.8044 2.47478 88.8044C1.8751 90.6686 1.82538 92.666 2.33156 94.5577C2.83773 96.4494 3.87837 98.1552 5.32892 99.4709C3.57086 100.144 66.8068 77.1288 64.8751 77.8016H64.8317ZM65.4394 79.5052C67.2843 78.5286 4.04836 101.533 5.89324 101.207C5.65148 103.146 5.96223 105.113 6.78972 106.883C7.6172 108.653 8.92777 110.154 10.5705 111.212C9.06209 112.167 67.2843 78.5286 65.4828 79.5052H65.4394ZM64.5712 74.0146L2.17092 63.0117C0.947024 64.5487 0.204485 66.413 0.0365133 68.3705C-0.131458 70.328 0.282622 72.2915 1.22678 74.0146C-0.737476 74.3509 66.5355 74.3509 64.5712 74.0146ZM64.5712 76.0003C66.5355 75.6639 -0.737476 75.6639 1.22678 76.0003C0.282622 77.7233 -0.131458 79.6868 0.0365133 81.6443C0.204485 83.6018 0.947024 85.4661 2.17092 87.0032L64.5712 76.0003ZM75.9661 85.4406C75.6297 83.4766 75.6297 150.742 75.9661 148.778C77.6901 149.719 79.6533 150.131 81.6104 149.963C83.5675 149.796 85.4318 149.055 86.9702 147.834C87.3392 149.754 75.6622 83.4766 75.9661 85.4406ZM68.9013 83.6285C70.1927 81.9249 26.9466 133.478 28.2163 132.154C28.9894 133.945 30.2451 135.486 31.8433 136.605C33.4415 137.724 35.3193 138.377 37.267 138.491C36.5508 140.184 70.1927 81.9249 68.9338 83.6285H68.9013ZM73.9693 85.4406L62.9651 147.834C64.5036 149.055 66.3678 149.796 68.3249 149.963C70.282 150.131 72.2452 149.719 73.9693 148.778C74.3491 150.742 74.3491 83.4766 74.0018 85.4406H73.9693ZM70.54 84.5291C71.5167 82.6845 37.8748 140.954 38.8515 139.392C39.9088 141.03 41.4059 142.337 43.1716 143.164C44.9372 143.991 46.9001 144.304 48.8355 144.068C48.4665 145.902 71.4841 82.6845 70.54 84.5291ZM72.2438 85.1368C72.9166 83.2053 49.899 146.434 50.5393 144.676C51.849 146.136 53.5522 147.187 55.4444 147.703C57.3367 148.218 59.3376 148.177 61.2071 147.584C61.1962 149.461 72.884 83.2053 72.2112 85.1368H72.2438Z" fill="white"/>
</svg>
