<svg width="109" height="112" viewBox="0 0 109 112" fill="none" xmlns="http://www.w3.org/2000/svg">
<path d="M2.96285 111.306L1.57762 112L0.375165 111.036L0 109.523L0.77919 108.328L1.08702 106.979L1.4237 105.629L1.77001 104.271L2.13556 102.931L2.88589 101.688L3.54002 100.444L3.84785 99.0854L4.29035 97.7747L4.6078 96.3773L5.22346 95.1243L5.6852 93.8136L6.08922 92.5222L6.37781 91.144L7.2532 89.9778L7.37825 88.5514L8.07087 87.3178L8.41717 85.9685L8.79234 84.6192L9.16751 83.2796L9.74468 82.0074L10.4662 80.793L10.8221 79.4438L11.1299 78.0656L11.8418 76.8416L12.1688 75.4827L12.5055 74.1141L13.2751 72.919L13.6791 71.5794L13.9004 70.1819L14.6411 68.9772L14.7565 67.5412L15.5549 66.3461L15.7473 64.939L16.3534 63.6764L16.8824 62.3946L17.2865 61.0646L17.5366 59.6768L18.2292 58.4432L18.5755 57.0939L19.2393 55.8988L19.297 54.4435L19.9607 53.2002L20.6245 51.9666L20.6726 50.5017L21.4614 49.3066L21.7404 47.938L22.4041 46.6948L22.558 45.2684L23.4046 44.0926L23.8952 42.8011L24.0491 41.3458L24.6359 40.0833L25.0976 38.7726L25.7036 37.51L25.973 36.1318L26.4732 34.8307L26.7329 33.4525L27.262 32.1611L27.8103 30.8407L28.2625 29.53L28.7434 28.2193L29.1763 26.8989L29.6381 25.5882L30.2056 24.316L30.7828 23.0727L31.1772 21.7331L31.6871 20.4416L31.7448 19.0056L32.3316 17.7334L32.8414 16.442L33.3993 15.1698L34.0727 13.9265V12.4616L34.8615 11.2665L35.0154 9.84976L35.5926 8.57757L36.1313 7.29576L36.8047 6.05249V4.57792L37.5646 3.3732L38.2284 2.13958L38.5555 0.751742L39.7772 0L41.0181 0.963772L41.172 2.40943L40.6525 3.70089L40.1619 5.00198L39.9118 6.38981L39.2385 7.62344L39.1807 9.07874L38.642 10.3606L38.0841 11.6424L37.3915 12.8664L37.151 14.2542L36.8624 15.6324L36.1409 16.8564L35.9678 18.3117L35.506 19.6224L34.6307 20.7307L34.4286 22.1668L34.0823 23.516L33.3993 24.7497L32.8991 26.0219L32.7067 27.4386L31.8794 28.6144L31.3696 29.8769V31.3322L30.8982 32.643L30.0902 33.8381L29.5226 35.1102L29.0609 36.421L28.6761 37.7606L28.4452 39.1484L27.945 40.4784L27.3678 41.7506L27.0119 43.0999L26.3963 44.3335L26.1846 45.7406L25.2804 46.8972V48.3717L24.4531 49.5572L23.9625 50.8583L23.6931 52.2365L23.1641 53.5183L22.9524 54.935L22.1251 56.1494L21.8847 57.5372L21.4422 58.8576L20.7688 60.1009L20.663 61.5369L20.0088 62.7801L19.2393 63.9849V65.4594L18.4023 66.6449L17.8636 67.9267L17.8444 69.3916L16.9979 70.5674L16.5842 71.8974L16.3534 73.2467L16.0071 74.596L15.4491 75.8778L14.8046 77.1211L14.2274 78.3932L13.6983 79.6847L13.3713 81.0436L12.948 82.3736L12.3997 83.6458L11.8802 84.9373L11.5436 86.3058L11.1491 87.7033L10.9279 89.1008L10.0237 90.2573L9.76392 91.5584L9.36952 92.898L8.81158 94.1702L8.57109 95.5677L7.78228 96.7628L7.58027 98.1602L7.2532 99.5191L6.73374 100.849L5.81987 101.996L5.59862 103.394L5.08878 104.695L4.45389 105.938L4.18454 107.316L3.54002 108.569L3.21296 109.928L2.96285 111.306ZM109 63.2524V61.8453L108.038 60.6213L106.72 60.178L105.518 59.4069L104.152 59.1371L102.786 58.8383L101.429 58.5299L100.083 58.1829L98.8705 57.4601L97.6488 56.7855L96.3117 56.4L95.0034 55.8988L93.6952 55.4169L92.5697 54.5881L91.3865 53.7785L90.2706 53.0075L89.0874 52.2557L88.4044 50.9739L87.2115 50.1836L86.5766 48.95L85.6147 47.8899L84.797 46.7622L84.0274 45.5575L83.4887 44.2468L83.1328 42.8493L82.4594 41.6061L81.7668 40.3628L81.4975 38.946L80.8818 37.6739L80.2373 36.392L80.0642 34.956L79.5255 33.6453L78.7848 32.4117L78.5443 30.9949L77.6881 29.8769L77.4284 28.4409L76.5434 27.3037L75.9951 25.9544L75.3409 24.6919L74.5136 23.5353L73.5517 22.5716L72.936 21.3186L71.9741 20.2874L71.3007 19.0634L70.0982 18.2731L69.3479 17.0973L68.5879 15.9312L67.3374 15.1891L66.6159 13.9651L65.4904 13.1362L64.6247 12.0472L63.3645 11.3918L62.5661 10.1871L61.4983 9.3004L60.2092 8.72214L59.1511 7.82583L57.9967 7.07409L56.8712 6.24525L55.5726 5.78263L54.3413 5.14654L52.9945 4.81886L51.7247 4.29843L50.4261 3.85509L49.0601 3.54668L47.7037 3.34429L46.3281 3.2961L44.9621 3.35393L43.5865 3.44067H43.0575L42.817 4.03821L42.3264 5.37785L42.2302 6.83315L41.6434 8.11496L41.1431 9.41606L40.5852 10.7075L39.9118 11.9604V13.435L39.123 14.6493L38.9787 16.0854L38.3919 17.3479L37.8532 18.649L37.1895 19.9019V21.3861L36.4295 22.6101L35.7754 23.863L35.5157 25.2605L35.2848 26.6676L34.7461 27.9494L34.0823 29.2023L33.5629 30.513L33.0723 31.8238L32.8318 33.2212L32.1584 34.4741V35.9391L31.6293 37.2402L31.0233 38.5509L30.3403 39.7942L30.0998 41.2013L29.8208 42.5987L29.109 43.8324L28.9358 45.2973L28.4741 46.6177L27.5121 47.7838L27.4063 49.1524L27.0696 50.5113V51.6775L27.8296 52.7087L28.8589 52.6702L30.196 52.1015L31.3504 51.3305L32.3123 50.1836L33.534 49.4897L34.9 49.1524L36.2083 48.7091L37.5165 48.2754L38.8152 47.8128L40.1331 47.2827L41.5183 47.0996H42.9228L44.3176 47.0032L45.6932 47.2827H47.1073L48.3579 48.0537H49.8297L50.9936 48.9211L52.2346 49.5379L53.5621 50.0102L54.6876 50.8004L55.9574 51.3691L56.8424 52.487L58.0352 53.181L59.0838 54.0773L59.9495 55.1663L61.1905 55.8506L62.0274 56.959L62.7777 58.154L64.1052 58.7805L64.7882 60.0334L65.7502 61.0646L67.0199 61.72L67.7318 62.9633L68.7996 63.8403L70.0213 64.5246L71.166 65.2763L72.2242 66.1437L73.2727 67.1075L74.3982 67.9074L75.591 68.611L76.8993 69.0736L78.1883 69.5651L79.4485 70.1434L80.7375 70.6252L82.0843 70.9337L83.4503 71.1553H84.8355L86.1053 71.8589H87.5001L88.8757 71.9649L90.2321 72.1962L91.5788 72.0227L92.9256 72.3311L94.2339 71.9263L95.5133 71.5312L96.8119 71.2421H98.2356L99.3804 70.4807L100.612 69.9217L101.872 69.4205L102.901 68.5242L104.123 67.9074L105.085 66.9436L105.989 65.922L107.268 65.3631L108.028 64.1776L109 63.2524Z" fill="#259A94"/>
</svg>
